<svg xmlns="http://www.w3.org/2000/svg" viewBox="0 0 222.57 222.57"><defs><style>.cls-1{fill:none;stroke:#e87952;stroke-miterlimit:10;stroke-width:5px;}.cls-2{fill:#e87952;}.cls-3{fill:#743d29;}</style></defs><g id="Calque_2" data-name="Calque 2"><g id="Calque_1-2" data-name="Calque 1"><circle class="cls-1" cx="111.28" cy="111.28" r="108.78"/><g id="Calque_2-2" data-name="Calque 2"><g id="Calque_2-2-2" data-name="Calque 2-2"><path class="cls-2" d="M122.59,114.3V92L146,104.71v22.65Zm46.87,32.86-46.87,25v-13.9l35.15-18.34v-37l11.72-6.12Zm-52.67.92L94.41,136.24l22.34-11.84,21.91,12.24ZM87.44,104.71,110.87,92v22.31L87.44,126.66ZM116.7,61.34,163.06,86.9l-12.89,6.74L116.79,75.43,83.54,93.49l-12.89-7ZM64,147.19v-51l11.71,6.4v37l35.14,18.58v14Zm49.46-97.44L55.82,81.19a6.74,6.74,0,0,0-3.52,5.92v63A6.75,6.75,0,0,0,55.88,156l57.73,30.77a6.7,6.7,0,0,0,6.36,0L177.7,156a6.76,6.76,0,0,0,3.59-5.93V87.49a6.76,6.76,0,0,0-3.5-5.92L120.06,49.76A6.78,6.78,0,0,0,113.48,49.75Z"/><path class="cls-3" d="M120.19,110.73V88.39l23.44,12.75v22.62Zm46.87,32.86-46.87,25v-13.9l35.11-18.34v-37L167,93.24Zm-52.73.93L92,132.64l22.34-11.84L136.22,133ZM85,101.15l23.44-12.76V110.7L85,123.09Zm29.28-43.38,46.37,25.57-12.9,6.73L114.33,71.89l-33.22,18-12.89-7ZM61.6,143.62v-51L73.3,99v37l35.15,18.6v13.94ZM111,46.18,53.39,77.62a6.76,6.76,0,0,0-3.52,5.93v63a6.73,6.73,0,0,0,3.58,5.92l57.73,30.77a6.7,6.7,0,0,0,6.36,0l57.73-30.77a6.75,6.75,0,0,0,3.58-5.92V83.92A6.77,6.77,0,0,0,175.36,78L117.62,46.2A6.78,6.78,0,0,0,111,46.18Z"/><path d="M117.79,107.16V84.82l23.43,12.75v22.59ZM164.66,140l-46.87,25v-13.9l35.08-18.34v-37l11.73-6.1Zm-52.79.93L89.53,129l22.34-11.85,21.91,12.23ZM82.59,97.58,106,84.82v22.31L82.59,119.52Zm29.28-43.39,46.38,25.58-12.9,6.72L111.87,68.35l-33.19,18-12.89-7ZM59.19,140.05v-51l11.68,6.36v37L106,151.05V165Zm49.42-97.43L51,74.06A6.78,6.78,0,0,0,47.43,80v63A6.76,6.76,0,0,0,51,148.92l57.73,30.77a6.7,6.7,0,0,0,6.36,0l57.73-30.77a6.75,6.75,0,0,0,3.57-5.92V80.35a6.77,6.77,0,0,0-3.49-5.92l-57.73-31.8A6.78,6.78,0,0,0,108.61,42.62Z"/></g></g></g></g></svg>