<svg xmlns="http://www.w3.org/2000/svg" viewBox="0 0 260.13 54"><defs><style>.cls-1{isolation:isolate;}.cls-2{fill:#f23d3d;}.cls-3{fill:none;stroke:#fff;stroke-miterlimit:10;}.cls-4{fill:#ea6a1f;}.cls-5{fill:#e29700;}</style></defs><g id="Calque_2" data-name="Calque 2"><g id="Calque_1-2" data-name="Calque 1"><g id="Calque_2-2" data-name="Calque 2"><g id="Calque_1-2-2" data-name="Calque 1-2"><g class="cls-1"><g class="cls-1"><path class="cls-2" d="M37,44.17H19.7L17,52.65H5.29L21.72,7H34.89L51.32,52.65H39.65ZM34.31,35.7l-6-19-6,19Z"/></g><g class="cls-1"><path class="cls-3" d="M37,44.17H19.7L17,52.65H5.29L21.72,7H34.89L51.32,52.65H39.65ZM34.31,35.7l-6-19-6,19Z"/></g><g class="cls-1"><path class="cls-2" d="M67.3,19.59h6.45v8.74H67.3V52.65H56.67V28.33h-4V19.59h4c0-6.13,2.09-14.21,12.52-14.21a26,26,0,0,1,4.56.45v8.55a13.44,13.44,0,0,0-2-.14C68.34,14.24,67.3,16.13,67.3,19.59Z"/></g><g class="cls-1"><path class="cls-3" d="M67.3,19.59h6.45v8.74H67.3V52.65H56.67V28.33h-4V19.59h4c0-6.13,2.09-14.21,12.52-14.21a26,26,0,0,1,4.56.45v8.55a13.44,13.44,0,0,0-2-.14C68.34,14.24,67.3,16.13,67.3,19.59Z"/></g><g class="cls-1"><path class="cls-2" d="M91.68,19.59h6.45v8.74H91.68V52.65H81.05V28.33H77V19.59h4c0-6.13,2.09-14.21,12.52-14.21a26,26,0,0,1,4.56.45v8.55a13.44,13.44,0,0,0-1.95-.14C92.72,14.24,91.68,16.13,91.68,19.59Z"/><path class="cls-2" d="M103.41,10.33a5.55,5.55,0,0,1,11.09,0,5.55,5.55,0,1,1-11.09,0Zm.26,9.26h10.57V52.65H103.67Z"/><path class="cls-2" d="M143.12,40.13l9.13,5.48a17.47,17.47,0,0,1-15.06,7.89c-10.31,0-17.74-7.57-17.74-17.35s7.43-17.34,17.74-17.34c6.58,0,12.06,3.06,15.06,7.89l-9.13,5.47a7.1,7.1,0,0,0-13,4,6.86,6.86,0,0,0,7.05,7A7,7,0,0,0,143.12,40.13Z"/><path class="cls-2" d="M188.24,32V52.65H177.61V34.85c0-3.78-2.35-5.68-5.28-5.68s-5.28,2-5.28,5.68v17.8H156.48V7h10.57V22.66a11.46,11.46,0,0,1,9.06-3.85C184.39,18.81,188.24,25.33,188.24,32Z"/><path class="cls-2" d="M227.62,39.35H203.75C204.86,43.19,208,45,212,45a9,9,0,0,0,6.78-2.86l7.44,4.43c-2.68,4.11-7.76,7-14.22,7-11.14,0-18.58-7-18.58-17.35a17.07,17.07,0,0,1,17.08-17.34C220.31,18.81,228.92,25.46,227.62,39.35ZM218,33c-.78-3.85-3.52-5.61-7.17-5.61A7.14,7.14,0,0,0,203.75,33Z"/><path class="cls-2" d="M259.63,42.41c0,7-5.15,11.09-14.8,11.09-6.65,0-13-2.16-14.41-8l9.58-3c.4,1.31,1.7,2.68,4.7,2.68,2.22,0,4-.66,4-2.35,0-2.28-3.46-2.15-7.37-3-6.33-1.44-9.78-3.72-9.78-10.17,0-6.91,5.93-10.89,14.21-10.89,5.67,0,11.28,2.8,12.72,8.41l-8.87,2.15c-.39-1.56-1.83-2.41-3.78-2.41s-4,.58-4,2.41c0,2.15,3.58,2.28,6.19,2.8C256.31,33.94,259.63,36.35,259.63,42.41Z"/></g><g class="cls-1"><path class="cls-3" d="M91.68,19.59h6.45v8.74H91.68V52.65H81.05V28.33H77V19.59h4c0-6.13,2.09-14.21,12.52-14.21a26,26,0,0,1,4.56.45v8.55a13.44,13.44,0,0,0-1.95-.14C92.72,14.24,91.68,16.13,91.68,19.59Z"/><path class="cls-3" d="M103.41,10.33a5.55,5.55,0,0,1,11.09,0,5.55,5.55,0,1,1-11.09,0Zm.26,9.26h10.57V52.65H103.67Z"/><path class="cls-3" d="M143.12,40.13l9.13,5.48a17.47,17.47,0,0,1-15.06,7.89c-10.31,0-17.74-7.57-17.74-17.35s7.43-17.34,17.74-17.34c6.58,0,12.06,3.06,15.06,7.89l-9.13,5.47a7.1,7.1,0,0,0-13,4,6.86,6.86,0,0,0,7.05,7A7,7,0,0,0,143.12,40.13Z"/><path class="cls-3" d="M188.24,32V52.65H177.61V34.85c0-3.78-2.35-5.68-5.28-5.68s-5.28,2-5.28,5.68v17.8H156.48V7h10.57V22.66a11.46,11.46,0,0,1,9.06-3.85C184.39,18.81,188.24,25.33,188.24,32Z"/><path class="cls-3" d="M227.62,39.35H203.75C204.86,43.19,208,45,212,45a9,9,0,0,0,6.78-2.86l7.44,4.43c-2.68,4.11-7.76,7-14.22,7-11.14,0-18.58-7-18.58-17.35a17.07,17.07,0,0,1,17.08-17.34C220.31,18.81,228.92,25.46,227.62,39.35ZM218,33c-.78-3.85-3.52-5.61-7.17-5.61A7.14,7.14,0,0,0,203.75,33Z"/><path class="cls-3" d="M259.63,42.41c0,7-5.15,11.09-14.8,11.09-6.65,0-13-2.16-14.41-8l9.58-3c.4,1.31,1.7,2.68,4.7,2.68,2.22,0,4-.66,4-2.35,0-2.28-3.46-2.15-7.37-3-6.33-1.44-9.78-3.72-9.78-10.17,0-6.91,5.93-10.89,14.21-10.89,5.67,0,11.28,2.8,12.72,8.41l-8.87,2.15c-.39-1.56-1.83-2.41-3.78-2.41s-4,.58-4,2.41c0,2.15,3.58,2.28,6.19,2.8C256.31,33.94,259.63,36.35,259.63,42.41Z"/></g></g><path class="cls-4" d="M31.93,33.55l-6-19-6,19ZM34.56,42H17.32l-2.67,8.48H2.91L19.34,4.87H32.56L48.94,50.51H37.27Z"/><path class="cls-4" d="M64.92,17.44h6.45v8.74H64.92V50.51H54.29V26.19h-4V17.44h4c0-6.13,2.09-14.21,12.52-14.21a24.91,24.91,0,0,1,4.56.45v8.54a14.82,14.82,0,0,0-2-.13C66,12.1,64.92,14,64.92,17.44Z"/><path class="cls-4" d="M89.3,17.44h6.46v8.74H89.3V50.51H78.68V26.19H74.63V17.44h4.05c0-6.13,2.08-14.21,12.51-14.21a25.1,25.1,0,0,1,4.57.45v8.54a14.82,14.82,0,0,0-2-.13C90.35,12.1,89.3,14,89.3,17.44Z"/><path class="cls-4" d="M101.3,17.44h10.56V50.51H101.3ZM101,8.18a5.54,5.54,0,1,1,5.52,5.62A5.6,5.6,0,0,1,101,8.19Z"/><path class="cls-4" d="M140.75,38l9.12,5.45a17.47,17.47,0,0,1-15.06,7.89c-10.3,0-17.73-7.56-17.73-17.34s7.48-17.32,17.73-17.32c6.59,0,12.06,3.06,15.06,7.89L140.75,30a7.1,7.1,0,0,0-13,4,6.86,6.86,0,0,0,6.7,7h.3A7,7,0,0,0,140.75,38Z"/><path class="cls-4" d="M185.86,29.84V50.51H175.24V32.71c0-3.79-2.35-5.68-5.29-5.68s-5.28,2-5.28,5.68v17.8H154.11V4.87h10.56V20.51a11.46,11.46,0,0,1,9.07-3.84C182,16.67,185.86,23.19,185.86,29.84Z"/><path class="cls-4" d="M215.66,30.82c-.78-3.85-3.52-5.61-7.17-5.61a7.11,7.11,0,0,0-7.11,5.61Zm9.58,6.39H201.38c1.11,3.84,4.24,5.6,8.28,5.6a9,9,0,0,0,6.78-2.87l7.43,4.44c-2.67,4.1-7.76,7-14.21,7-11.15,0-18.58-7-18.58-17.34a17.07,17.07,0,0,1,16.77-17.37h.31c9.78,0,18.4,6.65,17.08,20.54Z"/><path class="cls-4" d="M257.26,40.27c0,7-5.16,11.08-14.8,11.08-6.65,0-13-2.15-14.41-8l9.58-3c.39,1.3,1.7,2.67,4.69,2.67,2.22,0,4-.65,4-2.34,0-2.29-3.46-2.14-7.37-3-6.33-1.41-9.78-3.72-9.78-10.18,0-6.91,5.94-10.88,14.22-10.88,5.67,0,11.28,2.8,12.71,8.41l-8.86,2.15c-.4-1.57-1.83-2.41-3.79-2.41s-4,.58-4,2.41c0,2.15,3.59,2.28,6.19,2.8C253.93,31.79,257.26,34.21,257.26,40.27Z"/><g class="cls-1"><g class="cls-1"><path class="cls-5" d="M32.22,39.88H14.94l-2.67,8.48H.53L17,2.72H30.13L46.56,48.36H34.89Zm-2.67-8.47-6-19-6,19Z"/></g><g class="cls-1"><path class="cls-5" d="M62.54,15.3H69V24H62.54V48.36H51.91V24h-4V15.3h4C51.91,9.17,54,1.09,64.43,1.09A26,26,0,0,1,69,1.54v8.54A15.33,15.33,0,0,0,67,10C63.58,10,62.54,11.84,62.54,15.3Z"/></g><g class="cls-1"><path class="cls-5" d="M86.92,15.3h6.45V24H86.92V48.36H76.29V24h-4V15.3h4c0-6.13,2.09-14.21,12.52-14.21a26,26,0,0,1,4.56.45v8.54a15.33,15.33,0,0,0-2-.13C88,10,86.92,11.84,86.92,15.3Z"/><path class="cls-5" d="M98.65,6a5.55,5.55,0,0,1,11.09,0A5.55,5.55,0,1,1,98.65,6Zm.26,9.26h10.57V48.36H98.91Z"/><path class="cls-5" d="M138.36,35.84l9.13,5.48a17.47,17.47,0,0,1-15.06,7.89c-10.31,0-17.74-7.57-17.74-17.35s7.43-17.34,17.74-17.34c6.58,0,12.06,3.06,15.06,7.89l-9.13,5.47a7.1,7.1,0,0,0-13,4,6.86,6.86,0,0,0,7.05,7A7,7,0,0,0,138.36,35.84Z"/><path class="cls-5" d="M183.48,27.69V48.36H172.85V30.56c0-3.78-2.35-5.68-5.28-5.68s-5.28,2-5.28,5.68v17.8H151.73V2.72h10.56V18.37a11.46,11.46,0,0,1,9.06-3.85C179.63,14.52,183.48,21,183.48,27.69Z"/><path class="cls-5" d="M222.86,35.06H199c1.11,3.84,4.24,5.6,8.28,5.6a9,9,0,0,0,6.79-2.86l7.43,4.43c-2.68,4.11-7.76,7-14.22,7-11.14,0-18.58-7.05-18.58-17.35a17.07,17.07,0,0,1,17.08-17.34C215.56,14.52,224.16,21.17,222.86,35.06Zm-9.59-6.39c-.78-3.85-3.52-5.61-7.17-5.61A7.14,7.14,0,0,0,199,28.67Z"/><path class="cls-5" d="M254.87,38.12c0,7-5.15,11.09-14.8,11.09-6.65,0-13-2.16-14.41-8l9.58-3c.4,1.31,1.7,2.68,4.7,2.68,2.22,0,4-.66,4-2.35,0-2.28-3.46-2.15-7.37-3-6.33-1.44-9.78-3.72-9.78-10.17,0-6.91,5.93-10.89,14.21-10.89,5.67,0,11.28,2.8,12.72,8.41l-8.87,2.15c-.39-1.56-1.83-2.41-3.78-2.41s-4,.58-4,2.41c0,2.15,3.58,2.28,6.19,2.8C251.55,29.64,254.87,32.06,254.87,38.12Z"/></g></g><g class="cls-1"><g class="cls-1"><path class="cls-5" d="M32.4,39.88H15.12l-2.67,8.48H.71L17.14,2.72H30.31L46.74,48.36H35.07Zm-2.67-8.47-6-19-6,19Z"/></g><g class="cls-1"><path class="cls-3" d="M32.4,39.88H15.12l-2.67,8.48H.71L17.14,2.72H30.31L46.74,48.36H35.07Zm-2.67-8.47-6-19-6,19Z"/></g><g class="cls-1"><path class="cls-5" d="M62.72,15.3h6.45V24H62.72V48.36H52.09V24h-4V15.3h4c0-6.13,2.09-14.21,12.52-14.21a26,26,0,0,1,4.56.45v8.54a15.33,15.33,0,0,0-2-.13C63.76,10,62.72,11.84,62.72,15.3Z"/></g><path class="cls-3" d="M62.72,15.3h6.45V24H62.72V48.36H52.09V24h-4V15.3h4c0-6.13,2.09-14.21,12.52-14.21a26,26,0,0,1,4.56.45v8.54a15.33,15.33,0,0,0-2-.13C63.76,10,62.72,11.84,62.72,15.3Z"/><path class="cls-5" d="M87.1,15.3h6.45V24H87.1V48.36H76.47V24h-4V15.3h4C76.47,9.17,78.56,1.09,89,1.09a26,26,0,0,1,4.56.45v8.54a15.33,15.33,0,0,0-2-.13C88.14,10,87.1,11.84,87.1,15.3Z"/><path class="cls-5" d="M98.83,6a5.55,5.55,0,0,1,11.09,0A5.55,5.55,0,1,1,98.83,6Zm.26,9.26h10.57V48.36H99.09Z"/><path class="cls-5" d="M138.54,35.84l9.13,5.48a17.47,17.47,0,0,1-15.06,7.89c-10.31,0-17.74-7.57-17.74-17.35s7.43-17.34,17.74-17.34c6.58,0,12.06,3.06,15.06,7.89l-9.13,5.47a7.1,7.1,0,0,0-13,4,6.86,6.86,0,0,0,7.05,7A7,7,0,0,0,138.54,35.84Z"/><path class="cls-5" d="M183.66,27.69V48.36H173V30.56c0-3.78-2.35-5.68-5.28-5.68s-5.28,2-5.28,5.68v17.8H151.9V2.72h10.57V18.37a11.46,11.46,0,0,1,9.06-3.85C179.81,14.52,183.66,21,183.66,27.69Z"/><path class="cls-5" d="M223,35.06H199.17c1.11,3.84,4.24,5.6,8.28,5.6a9,9,0,0,0,6.78-2.86l7.44,4.43c-2.68,4.11-7.76,7-14.22,7-11.14,0-18.58-7.05-18.58-17.35A17.07,17.07,0,0,1,206,14.52C215.73,14.52,224.34,21.17,223,35.06Zm-9.59-6.39c-.78-3.85-3.52-5.61-7.17-5.61a7.14,7.14,0,0,0-7.11,5.61Z"/><path class="cls-5" d="M255.05,38.12c0,7-5.15,11.09-14.8,11.09-6.65,0-13-2.16-14.41-8l9.58-3c.4,1.31,1.7,2.68,4.7,2.68,2.22,0,4-.66,4-2.35,0-2.28-3.46-2.15-7.37-3C230.4,34.14,227,31.86,227,25.41c0-6.91,5.93-10.89,14.21-10.89,5.67,0,11.28,2.8,12.72,8.41L245,25.08c-.39-1.56-1.83-2.41-3.78-2.41s-4,.58-4,2.41c0,2.15,3.58,2.28,6.19,2.8C251.73,29.64,255.05,32.06,255.05,38.12Z"/><g class="cls-1"><path class="cls-3" d="M87.1,15.3h6.45V24H87.1V48.36H76.47V24h-4V15.3h4C76.47,9.17,78.56,1.09,89,1.09a26,26,0,0,1,4.56.45v8.54a15.33,15.33,0,0,0-2-.13C88.14,10,87.1,11.84,87.1,15.3Z"/><path class="cls-3" d="M98.83,6a5.55,5.55,0,0,1,11.09,0A5.55,5.55,0,1,1,98.83,6Zm.26,9.26h10.57V48.36H99.09Z"/><path class="cls-3" d="M138.54,35.84l9.13,5.48a17.47,17.47,0,0,1-15.06,7.89c-10.31,0-17.74-7.57-17.74-17.35s7.43-17.34,17.74-17.34c6.58,0,12.06,3.06,15.06,7.89l-9.13,5.47a7.1,7.1,0,0,0-13,4,6.86,6.86,0,0,0,7.05,7A7,7,0,0,0,138.54,35.84Z"/><path class="cls-3" d="M183.66,27.69V48.36H173V30.56c0-3.78-2.35-5.68-5.28-5.68s-5.28,2-5.28,5.68v17.8H151.9V2.72h10.57V18.37a11.46,11.46,0,0,1,9.06-3.85C179.81,14.52,183.66,21,183.66,27.69Z"/><path class="cls-3" d="M223,35.06H199.17c1.11,3.84,4.24,5.6,8.28,5.6a9,9,0,0,0,6.78-2.86l7.44,4.43c-2.68,4.11-7.76,7-14.22,7-11.14,0-18.58-7.05-18.58-17.35A17.07,17.07,0,0,1,206,14.52C215.73,14.52,224.34,21.17,223,35.06Zm-9.59-6.39c-.78-3.85-3.52-5.61-7.17-5.61a7.14,7.14,0,0,0-7.11,5.61Z"/><path class="cls-3" d="M255.05,38.12c0,7-5.15,11.09-14.8,11.09-6.65,0-13-2.16-14.41-8l9.58-3c.4,1.31,1.7,2.68,4.7,2.68,2.22,0,4-.66,4-2.35,0-2.28-3.46-2.15-7.37-3C230.4,34.14,227,31.86,227,25.41c0-6.91,5.93-10.89,14.21-10.89,5.67,0,11.28,2.8,12.72,8.41L245,25.08c-.39-1.56-1.83-2.41-3.78-2.41s-4,.58-4,2.41c0,2.15,3.58,2.28,6.19,2.8C251.73,29.64,255.05,32.06,255.05,38.12Z"/></g></g></g></g></g></g></svg>