<svg xmlns="http://www.w3.org/2000/svg" viewBox="0 0 222.57 222.57"><defs><style>.cls-1,.cls-4,.cls-5{fill:none;stroke-miterlimit:10;}.cls-1{stroke:#e5b853;stroke-width:5px;}.cls-2{fill:#e5b853;}.cls-3{fill:#735c2a;}.cls-4{stroke:#735c2a;stroke-width:6.5px;}.cls-5{stroke:#000;stroke-width:8px;}</style></defs><g id="Calque_2" data-name="Calque 2"><g id="Calque_1-2" data-name="Calque 1"><circle class="cls-1" cx="111.28" cy="111.28" r="108.78"/><path class="cls-2" d="M111.81,118.46l11.83-20.7a2.11,2.11,0,0,1,3.68,0l11.83,20.7a2.12,2.12,0,0,1-1.84,3.18H113.65A2.12,2.12,0,0,1,111.81,118.46Zm-10.88,3.18H97a2.13,2.13,0,0,1-1.82-3.22l4.64-7.74a2.13,2.13,0,0,1,3.64,0l1.89,3.14a2.13,2.13,0,0,1,0,2.14l-2.63,4.61A2.13,2.13,0,0,1,100.93,121.64Zm22.71-37.59-12,20.92a2.12,2.12,0,0,1-3.66,0l-4.53-7.55a2.13,2.13,0,0,0-3.64,0L83.2,125.22A2.13,2.13,0,0,0,85,128.44h64a2.12,2.12,0,0,0,1.84-3.18L127.32,84.05A2.12,2.12,0,0,0,123.64,84.05Z"/><path class="cls-3" d="M108.7,116.33l11.83-20.71a2.13,2.13,0,0,1,3.69,0L136,116.33a2.12,2.12,0,0,1-1.84,3.17H110.54A2.12,2.12,0,0,1,108.7,116.33ZM97.82,119.5h-3.9a2.12,2.12,0,0,1-1.82-3.21l4.65-7.74a2.12,2.12,0,0,1,3.64,0l1.88,3.14a2.1,2.1,0,0,1,0,2.14l-2.63,4.6A2.11,2.11,0,0,1,97.82,119.5Zm22.71-37.58-12,20.92a2.12,2.12,0,0,1-3.66,0l-4.53-7.54a2.12,2.12,0,0,0-3.64,0L80.09,123.09a2.12,2.12,0,0,0,1.82,3.21h64a2.12,2.12,0,0,0,1.84-3.17L124.22,81.92A2.12,2.12,0,0,0,120.53,81.92Z"/><path d="M105.59,114.19l11.83-20.7a2.12,2.12,0,0,1,3.69,0l11.83,20.7a2.13,2.13,0,0,1-1.85,3.18H107.44A2.13,2.13,0,0,1,105.59,114.19Zm-10.87,3.18h-3.9A2.13,2.13,0,0,1,89,114.15l4.64-7.74a2.13,2.13,0,0,1,3.64,0l1.88,3.14a2.12,2.12,0,0,1,0,2.15l-2.63,4.6A2.13,2.13,0,0,1,94.72,117.37Zm22.7-37.59-12,20.92a2.12,2.12,0,0,1-3.66,0l-4.53-7.55a2.13,2.13,0,0,0-3.64,0L77,121a2.13,2.13,0,0,0,1.82,3.22h64a2.13,2.13,0,0,0,1.85-3.18L121.11,79.78A2.13,2.13,0,0,0,117.42,79.78Z"/><path class="cls-2" d="M129.45,155.64H102.24a3.4,3.4,0,1,0,0,6.8h27.21a3.4,3.4,0,0,0,0-6.8Z"/><path class="cls-3" d="M126.91,153.51H99.7a3.4,3.4,0,0,0,0,6.8h27.21a3.4,3.4,0,0,0,0-6.8Z"/><path d="M124.37,151.37H97.16a3.41,3.41,0,0,0,0,6.81h27.21a3.41,3.41,0,0,0,0-6.81Z"/><path class="cls-2" d="M144.19,142H89.77a3.4,3.4,0,1,0,0,6.8h54.42a3.4,3.4,0,0,0,0-6.8Z"/><path class="cls-3" d="M141.08,139.91H86.66a3.4,3.4,0,1,0,0,6.8h54.42a3.4,3.4,0,1,0,0-6.8Z"/><path d="M138,137.77H83.56a3.4,3.4,0,0,0,0,6.8H138a3.4,3.4,0,1,0,0-6.8Z"/><rect class="cls-1" x="64.8" y="53.62" width="108.92" height="129.76" rx="2.68"/><rect class="cls-4" x="60.56" y="49.78" width="108.92" height="129.76" rx="2.68"/><rect class="cls-5" x="56.32" y="45.95" width="108.92" height="129.76" rx="2.68"/></g></g></svg>