<svg xmlns="http://www.w3.org/2000/svg" viewBox="0 0 256 256"><defs><style>.cls-1{fill:#fefefe;}.cls-2{fill:#626262;}.cls-3{fill:#919191;}.cls-4{fill:#4b4b4b;}</style></defs><g id="Calque_2" data-name="Calque 2"><g id="Calque_1-2" data-name="Calque 1"><circle class="cls-1" cx="128" cy="128" r="181.02"/><path class="cls-2" d="M69,221c-.46,1.27-1.58,1-2.52,1-11.66,0-23.33-.06-35,0a10.1,10.1,0,0,1-6.79-2.69,24.09,24.09,0,0,1-6.7-8.62c-7.84-18.13-8.16-36.4-.57-54.72,4.55-5.62,4.95-12.46,5.38-19.21A95.51,95.51,0,0,1,25,122C29.67,100.91,39,82.3,53.82,66.47A105.12,105.12,0,0,1,83.91,43.66a101,101,0,0,1,32.79-9.79c26.84-3.29,50.89,3.94,72.2,19.93,21.67,16.27,35.26,38.19,42,64.4a94.6,94.6,0,0,1,3.31,26.14,9.74,9.74,0,0,0,1.64,6.15c5.16,7.3,7.2,15.78,7.95,24.39.91,10.47.34,20.92-3.49,31a39.74,39.74,0,0,1-6.62,11.65,11.5,11.5,0,0,1-9.09,4.47c-11.66,0-23.33,0-35,0-.94,0-2.07.3-2.5-1,1.84-2.5,4.59-2.29,7.23-2.46,6.39-.42,8.12-1.95,8.17-8.1q.19-27.87,0-55.75c0-6.21-1.8-7.82-8.07-8.2-2.31-.14-4.68,0-6.74-1.31-2.46-3.38.24-4,2.56-4.35,4.63-.6,9.32-.17,14-.3,5.6-.16,7-1.62,6.13-7-4.5-27.26-17.08-49.62-40.57-64.91C139.87,49.15,100.64,53.3,74.89,78c-15.1,14.48-24,32.07-28,52.4-.29,1.48-.32,3-.5,4.47-.46,3.91,1.48,5.52,5.16,5.62,4.66.13,9.34-.25,14,.28,2.31.26,5,.72,3.11,4.25-1.73,1.22-3.74,1.27-5.74,1.42-6.87.53-8.29,2-8.36,9-.09,10.32,0,20.65,0,31,0,8-.12,16,.05,24,.12,6,1.69,7.61,7.69,8.12C64.72,218.73,67.26,218.7,69,221Z"/><path class="cls-3" d="M186.83,201.16c-3.56,2.5-6.2,6-9.38,8.86-1.33,1.21-2.32,2.82-4.22,3.66-6-5.83-12.52-11.24-18.2-17.54-4.55-5-4.72-4.88-9.43-.18s-9.37,9.43-14.1,14.1c-2.35,2.32-2.45,2.33-4.73.08-5.56-5.49-11.06-11-16.59-16.55-.7-.7-1.46-1.36-2.1-2.12-1.45-1.72-2.65-1.35-4.09.11-5.59,5.69-11.26,11.3-16.9,16.94-1.17,1.16-2.38,2.28-3.84,3.67-2.92-2.92-5.6-5.79-8.51-8.42-1.78-1.61-2.92-4.06-5.59-4.62-2.32-.88-2.39-3-2.45-4.91-.19-6.21-.53-12.43.3-18.61,1.24-3.29,3.35-3.3,5.83-1.44a54.25,54.25,0,0,1,4.37,4.08c4.21,4,5.48,4,9.54,0,4.4-4.29,8.65-8.74,13.09-13s5.92-4.21,10.43.09c4.21,4,8.23,8.21,12.38,12.29,4.81,4.72,5.88,4.74,10.59.14,3.8-3.72,7.42-7.63,11.35-11.21,3.62-3.3,5.36-3.29,9,.09,4.72,4.44,9.15,9.18,13.81,13.68,3.9,3.77,5.32,3.76,9.19.13,2.18-2,4.15-4.33,6.47-6.22s4.51-2.1,6,1.14c.88,7.08.53,14.17.29,21.25C189.2,198.52,189,200.4,186.83,201.16Z"/><path class="cls-4" d="M186.83,201.16l0-27.29c-1.75-1.13-2.08-2.93-2.15-4.79-.28-6.82-.3-13.65,0-20.46.09-1.85.32-3.71,2.35-4.61,5,0,10,0,15,0,2.06,0,3.13.68,3,2.88-.09,1.49,0,3,0,4.48v63.31c0,1.16-.07,2.33,0,3.49.15,2.19-.92,2.91-3,2.88-5-.07-10,0-15,0Z"/><path class="cls-4" d="M69.22,173.83c-.35,8.44-.24,16.88-.07,25.32Q69.07,210.07,69,221c-4.66,0-9.31-.05-14,0-2,0-3.18-.63-3-2.84.06-.83,0-1.67,0-2.5V149.32c0-1,0-2,0-3,0-1.72.9-2.32,2.49-2.32,4.83,0,9.65,0,14.47,0,1.78.81,2.17,2.44,2.26,4.13.38,7.12.35,14.24,0,21.37A5.09,5.09,0,0,1,69.22,173.83Z"/><path class="cls-1" d="M69.22,173.83,69,144c-.76-1.69-2.3-1-3.5-1-6.5,0-13,.05-19.49,0-2.94,0-3.21-.23-2.94-3.21a99.29,99.29,0,0,1,5.31-25.28C53.81,99.58,62,86.41,73.76,75.59,85.32,65,98.66,57.81,114.1,55.11c23.76-4.16,45.25,1.42,64.1,16.52,18.57,14.89,29.54,34.33,33.86,57.63.66,3.59,1.35,7.19,1.74,10.81.28,2.57-.1,2.88-2.76,2.9-6.83.06-13.66,0-20.5,0-1.19,0-2.73-.69-3.47,1q-.1,14.94-.22,29.86c-4.15,4.08-8.29,8.18-12.47,12.23-2.3,2.23-2.37,2.24-4.73-.09-5.57-5.49-11.09-11-16.63-16.56-.59-.59-1.16-1.2-1.77-1.77-2.23-2.07-2.3-2.13-4.41-.07-3.46,3.36-6.84,6.81-10.26,10.23-2.11,2.11-4.2,4.26-6.36,6.34s-2.29,2.14-4.39.09c-3.69-3.6-7.31-7.28-11-10.92-2.36-2.35-4.7-4.72-7.08-7-2.76-2.7-2.82-2.72-5.46-.1C96.88,171.58,91.5,177,86.07,182.43c-4.44,4.42-3.54,4.48-7.94.12C75.18,179.63,72.19,176.73,69.22,173.83Z"/></g></g></svg>