<svg xmlns="http://www.w3.org/2000/svg" xmlns:xlink="http://www.w3.org/1999/xlink" viewBox="0 0 367.42 55.06"><defs><style>.cls-1{fill:url(#Dégradé_sans_nom_8);}.cls-2{fill:url(#Dégradé_sans_nom_8-2);}.cls-3{fill:url(#Dégradé_sans_nom_8-3);}.cls-4{fill:url(#Dégradé_sans_nom_8-4);}.cls-5{fill:url(#Dégradé_sans_nom_8-5);}.cls-6{fill:url(#Dégradé_sans_nom_8-6);}.cls-7{fill:url(#Dégradé_sans_nom_8-7);}.cls-8{fill:url(#Dégradé_sans_nom_8-8);}.cls-9{fill:url(#Dégradé_sans_nom_8-9);}.cls-10{fill:url(#Dégradé_sans_nom_8-10);}.cls-11{fill:url(#Dégradé_sans_nom_8-11);}.cls-12{fill:url(#Dégradé_sans_nom_8-12);}.cls-13{fill:url(#Dégradé_sans_nom_8-13);}.cls-14{fill:#fff;}</style><linearGradient id="Dégradé_sans_nom_8" x1="130.01" y1="-0.01" x2="129.94" y2="18.79" gradientUnits="userSpaceOnUse"><stop offset="0" stop-color="#3b37cf"/><stop offset="1" stop-color="#864ad1"/></linearGradient><linearGradient id="Dégradé_sans_nom_8-2" x1="21.74" y1="12.05" x2="21.57" y2="55.2" xlink:href="#Dégradé_sans_nom_8"/><linearGradient id="Dégradé_sans_nom_8-3" x1="61.44" y1="23.22" x2="61.32" y2="55.08" xlink:href="#Dégradé_sans_nom_8"/><linearGradient id="Dégradé_sans_nom_8-4" x1="98.03" y1="11.42" x2="97.86" y2="55.07" xlink:href="#Dégradé_sans_nom_8"/><linearGradient id="Dégradé_sans_nom_8-5" x1="126.32" y1="9.41" x2="126.14" y2="54.29" xlink:href="#Dégradé_sans_nom_8"/><linearGradient id="Dégradé_sans_nom_8-6" x1="152.83" y1="22.55" x2="152.69" y2="55.06" xlink:href="#Dégradé_sans_nom_8"/><linearGradient id="Dégradé_sans_nom_8-7" x1="187.13" y1="23.28" x2="187.13" y2="54.27" xlink:href="#Dégradé_sans_nom_8"/><linearGradient id="Dégradé_sans_nom_8-8" x1="212.89" y1="9.41" x2="212.89" y2="54.27" xlink:href="#Dégradé_sans_nom_8"/><linearGradient id="Dégradé_sans_nom_8-9" x1="235.8" y1="22.55" x2="235.8" y2="55.06" xlink:href="#Dégradé_sans_nom_8"/><linearGradient id="Dégradé_sans_nom_8-10" x1="268.95" y1="23.28" x2="268.95" y2="55.06" xlink:href="#Dégradé_sans_nom_8"/><linearGradient id="Dégradé_sans_nom_8-11" x1="304.79" y1="22.55" x2="304.79" y2="55.06" xlink:href="#Dégradé_sans_nom_8"/><linearGradient id="Dégradé_sans_nom_8-12" x1="330.78" y1="11.49" x2="330.78" y2="54.27" xlink:href="#Dégradé_sans_nom_8"/><linearGradient id="Dégradé_sans_nom_8-13" x1="353.73" y1="22.55" x2="353.73" y2="55.06" xlink:href="#Dégradé_sans_nom_8"/></defs><g id="Calque_2" data-name="Calque 2"><g id="Calque_1-2" data-name="Calque 1"><path class="cls-1" d="M132.67,0a.56.56,0,0,0-.43.22l-.06.08-.09.69c-.32,2.33-.75,5.35-1.14,8-.56,3.81-.55,3.77-.66,4s-.29.46-.49.49a1,1,0,0,1-.53-.13,6.52,6.52,0,0,0-3.72-.41,10.58,10.58,0,0,0-1.46.42,3.6,3.6,0,0,0-2.15,2.06,3.63,3.63,0,0,0-.12.85,2.48,2.48,0,0,0,1.52,1.88,6.26,6.26,0,0,0,1.24.41,7.36,7.36,0,0,0,1.16.16,7.19,7.19,0,0,0,2.22-.32,11.72,11.72,0,0,0,1.49-.55,3.06,3.06,0,0,0,2-2c0-.17.28-1.79.61-4.18.26-1.85.73-5.23.82-5.92s.11-.77.22-.91a.67.67,0,0,1,.35-.24,1,1,0,0,1,.52,0,1.93,1.93,0,0,1,.76.59,15.26,15.26,0,0,1,1,1.19,4.43,4.43,0,0,1,.74,1.83l.07.37a3.89,3.89,0,0,1-.07,1.67.73.73,0,0,0,.13.6.48.48,0,0,0,.66.06c.12-.06.16-.12.35-.49a3.87,3.87,0,0,0,.49-2.36,1.31,1.31,0,0,0,0-.27s0-.15,0-.22a3.54,3.54,0,0,0-.47-1.27c-.15-.24-.22-.34-.52-.79A15.08,15.08,0,0,0,135.78,4c-.58-.68-.81-1-1-1.26-.05-.07-.15-.21-.23-.3a5.49,5.49,0,0,1-.7-1.27,7.76,7.76,0,0,0-.43-.87.59.59,0,0,0-.48-.32A.67.67,0,0,0,132.67,0Z"/><path class="cls-2" d="M29.7,46.32H13.51l-2.51,8H0L15.4,11.49H27.74l15.4,42.78H32.21Zm-2.51-7.94L21.57,20.6,16,38.38Z"/><path class="cls-3" d="M76.26,23.28v31h-10V51.46a10.56,10.56,0,0,1-8.43,3.6C50.11,55.06,46.5,49,46.5,42.72V23.28h9.9V40c0,3.54,2.26,5.32,5,5.32,2.93,0,4.95-1.9,4.95-5.32V23.28Z"/><path class="cls-4" d="M114.63,11.49V54.27h-9.9v-3A10.72,10.72,0,0,1,96,55.06c-9.66,0-14.85-8.13-14.85-16.25S86.34,22.55,96,22.55a10.72,10.72,0,0,1,8.73,3.79V11.49Zm-10.2,27.32a6.35,6.35,0,0,0-6.66-6.67,6.27,6.27,0,0,0-6.6,6.67,6.25,6.25,0,0,0,6.6,6.6A6.33,6.33,0,0,0,104.43,38.81Z"/><path class="cls-5" d="M121.11,14.61a5.2,5.2,0,1,1,10.39,0,5.2,5.2,0,1,1-10.39,0Zm.24,8.67h9.9v31h-9.9Z"/><path class="cls-6" d="M169.38,38.81c0,9.16-6.9,16.25-16.62,16.25S136.14,48,136.14,38.81s7-16.26,16.62-16.26S169.38,29.58,169.38,38.81Zm-10,0a6.63,6.63,0,1,0-13.26,0,6.63,6.63,0,0,0,13.26,0Z"/><path class="cls-7" d="M204,23.28l-12,31h-9.6l-12-31h10.57l6.29,19.8,6.3-19.8Z"/><path class="cls-8" d="M207.69,14.61a5.2,5.2,0,1,1,5.2,5.25A5.19,5.19,0,0,1,207.69,14.61Zm.25,8.67h9.9v31h-9.9Z"/><path class="cls-9" d="M249.49,44.67c0,6.54-4.83,10.39-13.87,10.39-6.24,0-12.23-2-13.51-7.45l9-2.81c.37,1.22,1.59,2.5,4.4,2.5,2.08,0,3.73-.61,3.73-2.2,0-2.14-3.24-2-6.9-2.81-5.93-1.34-9.17-3.48-9.17-9.53,0-6.48,5.56-10.21,13.32-10.21,5.32,0,10.57,2.63,11.92,7.88l-8.31,2c-.37-1.47-1.71-2.26-3.55-2.26s-3.79.55-3.79,2.26c0,2,3.37,2.14,5.81,2.63C246.37,36.73,249.49,39,249.49,44.67Z"/><path class="cls-10" d="M283.83,23.28v31h-10V51.46a10.56,10.56,0,0,1-8.44,3.6c-7.76,0-11.36-6.11-11.36-12.34V23.28H264V40c0,3.54,2.26,5.32,4.95,5.32,2.93,0,4.95-1.9,4.95-5.32V23.28Z"/><path class="cls-11" d="M320.74,41.8H298.37c1,3.61,4,5.26,7.76,5.26a8.4,8.4,0,0,0,6.36-2.69l7,4.15c-2.5,3.85-7.27,6.54-13.32,6.54-10.45,0-17.42-6.6-17.42-16.25a16,16,0,0,1,16-16.26C313.89,22.55,322,28.78,320.74,41.8Zm-9-6c-.73-3.6-3.3-5.25-6.72-5.25a6.68,6.68,0,0,0-6.66,5.25Z"/><path class="cls-12" d="M335.76,11.49V54.27h-10V11.49Z"/><path class="cls-13" d="M367.42,44.67c0,6.54-4.83,10.39-13.88,10.39-6.23,0-12.22-2-13.5-7.45l9-2.81c.37,1.22,1.59,2.5,4.4,2.5,2.08,0,3.73-.61,3.73-2.2,0-2.14-3.24-2-6.9-2.81-5.93-1.34-9.17-3.48-9.17-9.53,0-6.48,5.56-10.21,13.32-10.21,5.32,0,10.57,2.63,11.92,7.88l-8.31,2c-.37-1.47-1.72-2.26-3.55-2.26s-3.79.55-3.79,2.26c0,2,3.36,2.14,5.81,2.63C364.3,36.73,367.42,39,367.42,44.67Z"/><circle class="cls-14" cx="212.89" cy="14.64" r="1.6"/><path class="cls-14" d="M214.23,10.51a.5.5,0,0,0,0,1A.5.5,0,0,0,214.23,10.51Z"/><path class="cls-14" d="M215.73,11.82a.43.43,0,0,0-.58.64,2.16,2.16,0,0,1,.37.43c.06.1.12.19.17.29v.05l.06.16a1.4,1.4,0,0,1,.09.29l0,.14s0,.1,0,.12a2.71,2.71,0,0,1,0,.29v.19a.25.25,0,0,0,0,.08.43.43,0,1,0,.84.19A3.26,3.26,0,0,0,215.73,11.82Z"/></g></g></svg>