<svg xmlns="http://www.w3.org/2000/svg" viewBox="0 0 152.82 152.82"><defs><style>.cls-1{fill:#6c83d8;}.cls-2{fill:#36426c;}.cls-3{fill:none;stroke:#6b87d6;stroke-miterlimit:10;stroke-width:2px;}</style></defs><g id="Calque_2" data-name="Calque 2"><g id="Calque_1-2" data-name="Calque 1"><g id="Calque_2-2" data-name="Calque 2"><g id="Calque_2-2-2" data-name="Calque 2-2"><path class="cls-1" d="M135.56,78h0a2.67,2.67,0,0,0-2.66,2.66h0a2.67,2.67,0,0,0,2.65,2.67h0a2.65,2.65,0,0,0,2.67-2.65s0,0,0,0h0A2.65,2.65,0,0,0,135.58,78ZM124.9,72.66h0a2.69,2.69,0,0,0-2.67,2.67V86a2.67,2.67,0,0,0,2.67,2.66h0A2.66,2.66,0,0,0,127.57,86V75.33A2.68,2.68,0,0,0,124.9,72.66ZM114.24,62h0a2.67,2.67,0,0,0-2.67,2.66h0v32a2.66,2.66,0,0,0,2.66,2.67h0a2.68,2.68,0,0,0,2.67-2.67v-32A2.67,2.67,0,0,0,114.26,62Zm-10.66,5.33h0A2.68,2.68,0,0,0,100.91,70V91.33A2.68,2.68,0,0,0,103.58,94h0a2.67,2.67,0,0,0,2.66-2.67V70A2.67,2.67,0,0,0,103.58,67.33Zm-10.67-16h0A2.66,2.66,0,0,0,90.25,54v48a2.66,2.66,0,0,0,2.64,2.67h0A2.67,2.67,0,0,0,95.58,102V54a2.68,2.68,0,0,0-2.67-2.67ZM82.25,40.67h0a2.65,2.65,0,0,0-2.67,2.65h0v69.33a2.67,2.67,0,0,0,2.67,2.67h0a2.67,2.67,0,0,0,2.66-2.67V43.33a2.67,2.67,0,0,0-2.66-2.66Zm-64,42.66h0a2.67,2.67,0,0,1-2.67-2.66h0A2.66,2.66,0,0,1,18.25,78h0a2.65,2.65,0,0,1,2.66,2.65h0a2.67,2.67,0,0,1-2.65,2.67ZM28.92,72.66h0a2.68,2.68,0,0,0-2.67,2.67V86a2.66,2.66,0,0,0,2.67,2.66h0A2.67,2.67,0,0,0,31.59,86V75.33A2.69,2.69,0,0,0,28.92,72.66Zm21.33,0h0a2.68,2.68,0,0,0-2.67,2.67V86a2.66,2.66,0,0,0,2.67,2.66h0A2.67,2.67,0,0,0,52.92,86V75.33A2.69,2.69,0,0,0,50.25,72.66ZM39.58,67.33h0A2.66,2.66,0,0,0,36.92,70V91.33A2.66,2.66,0,0,0,39.58,94h0a2.68,2.68,0,0,0,2.67-2.67V70A2.68,2.68,0,0,0,39.58,67.33ZM60.92,62h0a2.65,2.65,0,0,0-2.67,2.65s0,0,0,0v32a2.67,2.67,0,0,0,2.67,2.67h0a2.67,2.67,0,0,0,2.66-2.67v-32A2.67,2.67,0,0,0,60.93,62ZM71.58,51.33h0A2.68,2.68,0,0,0,68.91,54v48a2.67,2.67,0,0,0,2.67,2.67h0A2.68,2.68,0,0,0,74.25,102V54A2.69,2.69,0,0,0,71.58,51.33Z"/><path class="cls-2" d="M133.75,76.43h0a2.67,2.67,0,0,0-2.67,2.66h0a2.66,2.66,0,0,0,2.66,2.66h0a2.67,2.67,0,0,0,2.64-2.68h0A2.67,2.67,0,0,0,133.75,76.43Zm-10.66-5.35h0a2.66,2.66,0,0,0-2.7,2.64V84.43a2.66,2.66,0,0,0,2.67,2.66h0a2.66,2.66,0,0,0,2.69-2.64V73.74A2.67,2.67,0,0,0,123.09,71.08Zm-10.7-10.65h0a2.67,2.67,0,0,0-2.67,2.66h0v32a2.65,2.65,0,0,0,2.66,2.64h0a2.67,2.67,0,0,0,2.67-2.65v-32A2.66,2.66,0,0,0,112.39,60.43Zm-10.66,5.33h0a2.67,2.67,0,0,0-2.64,2.67V89.74a2.67,2.67,0,0,0,2.66,2.69h0a2.67,2.67,0,0,0,2.63-2.69V68.43a2.67,2.67,0,0,0-2.63-2.69Zm-10.67-16h0a2.65,2.65,0,0,0-2.67,2.65s0,0,0,0v48a2.66,2.66,0,0,0,2.66,2.66h0a2.65,2.65,0,0,0,2.7-2.61V52.43a2.67,2.67,0,0,0-2.64-2.68h-.06ZM80.39,39.08h0a2.65,2.65,0,0,0-2.67,2.65s0,0,0,0v69.32a2.67,2.67,0,0,0,2.67,2.67h0a2.67,2.67,0,0,0,2.66-2.67V41.75a2.67,2.67,0,0,0-2.65-2.67Zm-64,42.66h0a2.66,2.66,0,0,1-2.66-2.66h0a2.65,2.65,0,0,1,2.66-2.65h0a2.67,2.67,0,0,1,2.67,2.65v0h0A2.66,2.66,0,0,1,16.39,81.74ZM27.1,71.08h0a2.67,2.67,0,0,0-2.71,2.63V84.43a2.66,2.66,0,0,0,2.67,2.66h0a2.67,2.67,0,0,0,2.7-2.63V73.74A2.67,2.67,0,0,0,27.1,71.08Zm21.33,0h0a2.66,2.66,0,0,0-2.67,2.66V84.43a2.66,2.66,0,0,0,2.63,2.64h0a2.67,2.67,0,0,0,2.7-2.63h0V73.74a2.68,2.68,0,0,0-2.68-2.66h0ZM37.77,65.74h0a2.68,2.68,0,0,0-2.68,2.67V89.74a2.66,2.66,0,0,0,2.64,2.69h0a2.68,2.68,0,0,0,2.62-2.69V68.43A2.68,2.68,0,0,0,37.77,65.74ZM59.1,60.43h0A2.65,2.65,0,0,0,56.39,63v32A2.66,2.66,0,0,0,59,97.75h0a2.67,2.67,0,0,0,2.66-2.66h0v-32A2.67,2.67,0,0,0,59.1,60.43ZM69.76,49.75h0a2.67,2.67,0,0,0-2.67,2.66v48a2.66,2.66,0,0,0,2.66,2.66h0a2.67,2.67,0,0,0,2.63-2.66v-48A2.68,2.68,0,0,0,69.76,49.75Z"/><path d="M131.94,74.82h0a2.65,2.65,0,0,0-2.67,2.65s0,0,0,0h0a2.65,2.65,0,0,0,2.65,2.66h0a2.67,2.67,0,0,0,2.66-2.66h0A2.67,2.67,0,0,0,132,74.82Zm-10.67-5.33h0a2.66,2.66,0,0,0-2.67,2.66V82.82a2.68,2.68,0,0,0,2.67,2.67h0a2.69,2.69,0,0,0,2.67-2.67V72.15A2.67,2.67,0,0,0,121.27,69.49ZM110.6,58.82h0a2.66,2.66,0,0,0-2.66,2.67v32a2.66,2.66,0,0,0,2.65,2.66h0a2.65,2.65,0,0,0,2.66-2.65h0v-32A2.68,2.68,0,0,0,110.6,58.82ZM99.94,64.16h0a2.66,2.66,0,0,0-2.67,2.66V88.15a2.67,2.67,0,0,0,2.67,2.67h0a2.67,2.67,0,0,0,2.66-2.66h0V66.82A2.67,2.67,0,0,0,99.94,64.16Zm-10.67-16h0a2.66,2.66,0,0,0-2.66,2.66h0v48a2.66,2.66,0,0,0,2.66,2.66h0a2.65,2.65,0,0,0,2.66-2.65h0v-48a2.67,2.67,0,0,0-2.66-2.66ZM78.61,37.49h0a2.67,2.67,0,0,0-2.67,2.67v69.32a2.66,2.66,0,0,0,2.64,2.67h0a2.67,2.67,0,0,0,2.66-2.66h0V40.16A2.67,2.67,0,0,0,78.61,37.49Zm-64,42.66h0A2.66,2.66,0,0,1,12,77.49h0a2.66,2.66,0,0,1,2.64-2.67h0a2.67,2.67,0,0,1,2.67,2.65v0h0a2.67,2.67,0,0,1-2.66,2.66ZM25.28,69.49h0a2.66,2.66,0,0,0-2.67,2.66V82.82a2.68,2.68,0,0,0,2.67,2.67h0A2.69,2.69,0,0,0,28,82.82V72.15A2.67,2.67,0,0,0,25.28,69.49Zm21.33,0h0a2.66,2.66,0,0,0-2.67,2.66V82.82a2.68,2.68,0,0,0,2.67,2.67h0a2.69,2.69,0,0,0,2.67-2.67V72.15A2.67,2.67,0,0,0,46.61,69.49ZM36,64.16h0a2.65,2.65,0,0,0-2.67,2.65h0V88.15a2.66,2.66,0,0,0,2.64,2.67h0a2.67,2.67,0,0,0,2.66-2.66h0V66.82A2.67,2.67,0,0,0,36,64.16Zm21.33-5.34h0a2.67,2.67,0,0,0-2.67,2.67v32a2.65,2.65,0,0,0,2.65,2.66h0a2.67,2.67,0,0,0,2.66-2.66h0v-32A2.67,2.67,0,0,0,57.28,58.82ZM67.94,48.16h0a2.66,2.66,0,0,0-2.66,2.66h0v48a2.66,2.66,0,0,0,2.66,2.66h0a2.67,2.67,0,0,0,2.67-2.66v-48A2.67,2.67,0,0,0,67.94,48.16Z"/><circle class="cls-3" cx="76.41" cy="76.41" r="75.41"/></g></g></g></g></svg>