<svg xmlns="http://www.w3.org/2000/svg" viewBox="0 0 101.24 101.24"><defs><style>.cls-1{fill:#9e9e9e;}.cls-2{fill:#939393;}.cls-3{fill:#888;}.cls-4{fill:#7e7e7e;}.cls-5{fill:#737373;}.cls-6{fill:#864ad1;}.cls-7{fill:#fff;}</style></defs><title>Bouton Site</title><g id="Calque_2" data-name="Calque 2"><g id="Calque_1-2" data-name="Calque 1"><circle class="cls-1" cx="53.24" cy="53.24" r="48"/><circle class="cls-2" cx="51.93" cy="51.93" r="48"/><circle class="cls-3" cx="50.62" cy="50.62" r="48"/><circle class="cls-4" cx="49.31" cy="49.31" r="48"/><circle class="cls-5" cx="48" cy="48" r="48"/><path class="cls-6" d="M48.4,31.42v36H40.69l-14-21v21H17.83v-36h7.71l14,21v-21Z"/><path class="cls-6" d="M82.26,56.44c0,6.37-3.85,10.94-13.25,10.94H54.57v-36h13.1c8.69,0,13.1,3.8,13.1,9.91a7.54,7.54,0,0,1-3.85,7v.15A8.16,8.16,0,0,1,82.26,56.44ZM63.41,38.35v7.81h3.8c3.19,0,4.73-1.59,4.73-3.9,0-2.62-1.7-3.91-4.73-3.91Zm9.91,17.73c0-2.47-1.64-3.91-4.77-3.91H63.41v8.27h5.14C71.83,60.44,73.32,58.54,73.32,56.08Z"/><path class="cls-7" d="M45.93,29.06V65H38.22l-14-21V65H15.36v-36h7.71l14,21v-21Z"/><path class="cls-7" d="M79.79,54.08c0,6.37-3.85,11-13.25,11H52.1v-36H65.2c8.68,0,13.1,3.81,13.1,9.92a7.54,7.54,0,0,1-3.85,7v.15A8.15,8.15,0,0,1,79.79,54.08ZM60.94,36v7.81h3.8c3.18,0,4.73-1.59,4.73-3.91,0-2.62-1.7-3.9-4.73-3.9Zm9.91,17.72c0-2.46-1.64-3.9-4.77-3.9H60.94v8.27h5.14C69.36,58.09,70.85,56.19,70.85,53.72Z"/></g></g></svg>