<svg xmlns="http://www.w3.org/2000/svg" viewBox="0 0 236.69 48.06"><defs><style>.cls-1{fill:#9b9b9b;}.cls-2{fill:#3f3f3f;}</style></defs><g id="Calque_2" data-name="Calque 2"><g id="Calque_1-2" data-name="Calque 1"><path class="cls-1" d="M33.86,33.39l9.12,6a22.08,22.08,0,0,1-18,8.67c-13.2,0-22.7-9.88-22.7-23.15s9.5-23.08,22.7-23.08a22.17,22.17,0,0,1,18,8.61l-9.12,6a11,11,0,0,0-8.93-4.08c-7.78,0-11.73,6.25-11.73,12.56s3.95,12.63,11.73,12.63A10.82,10.82,0,0,0,33.86,33.39Z"/><path class="cls-1" d="M80.21,31.1c0,9.56-7.2,17-17.34,17s-17.34-7.4-17.34-17,7.27-17,17.34-17S80.21,21.47,80.21,31.1Zm-10.39,0A6.92,6.92,0,1,0,56,31.1a6.92,6.92,0,0,0,13.84,0Z"/><path class="cls-1" d="M116.37,27V47.23H106V29.82c0-3.7-2.29-5.55-5.16-5.55s-5.17,2-5.17,5.55V47.23H85.31V14.9H95.64v3a11.23,11.23,0,0,1,8.87-3.76C112.54,14.14,116.37,20.51,116.37,27Z"/><path class="cls-1" d="M135.18,23.45v10.2c0,3.38,1.21,5.1,4.4,5.1a14.25,14.25,0,0,0,2-.19v8.67a13.31,13.31,0,0,1-4.46.57c-10,0-12.24-6.76-12.24-13.07V23.45h-4V14.9h4V8.14h10.33V14.9h6.37v8.55Z"/><path class="cls-1" d="M176.56,27.14V47.23H166.23v-3c-1.72,2.49-5.55,3.83-8.86,3.83-4.34,0-11-1.66-11-9.5,0-10.71,13.91-10.71,16.07-10.71h3.83v-.13c0-3.06-1.53-5.23-5.29-5.23a10.09,10.09,0,0,0-6.12,2l-6.76-4.59c3.5-3.7,8.35-5.8,14.53-5.8C172.92,14.14,176.56,19.43,176.56,27.14ZM166.23,33h-.83c-5.16,0-8.61,1-8.61,4.21,0,2.36,1.92,3.25,4.15,3.25a7,7,0,0,0,5.29-2.29Z"/><path class="cls-1" d="M204.81,35l8.92,5.35A17.07,17.07,0,0,1,199,48.06c-10.07,0-17.34-7.4-17.34-17s7.27-17,17.34-17c6.44,0,11.8,3,14.73,7.71l-8.92,5.36a6.94,6.94,0,0,0-12.69,3.89A6.69,6.69,0,0,0,199,38,6.9,6.9,0,0,0,204.81,35Z"/><path class="cls-1" d="M230.31,23.45v10.2c0,3.38,1.21,5.1,4.4,5.1a14.42,14.42,0,0,0,2-.19v8.67a13.41,13.41,0,0,1-4.47.57C222.28,47.8,220,41,220,34.73V23.45h-4V14.9h4V8.14h10.33V14.9h6.38v8.55Z"/><path class="cls-2" d="M31.63,31.56l9.12,6a22.05,22.05,0,0,1-18,8.67C9.5,46.23,0,36.35,0,23.08S9.5,0,22.7,0A22.2,22.2,0,0,1,40.75,8.61l-9.12,6a11,11,0,0,0-8.93-4.08C14.92,10.52,11,16.77,11,23.08S14.92,35.71,22.7,35.71A10.83,10.83,0,0,0,31.63,31.56Z"/><path class="cls-2" d="M78,29.27c0,9.56-7.2,17-17.34,17s-17.35-7.4-17.35-17,7.27-17,17.35-17S78,19.64,78,29.27Zm-10.39,0a6.92,6.92,0,1,0-13.84,0,6.92,6.92,0,0,0,13.84,0Z"/><path class="cls-2" d="M114.14,25.19V45.4h-10.4V28c0-3.7-2.29-5.54-5.16-5.54s-5.17,2-5.17,5.54V45.4H83.08V13.07H93.41v3a11.23,11.23,0,0,1,8.87-3.76C110.31,12.31,114.14,18.68,114.14,25.19Z"/><path class="cls-2" d="M133,21.62v10.2c0,3.38,1.21,5.1,4.4,5.1a14.25,14.25,0,0,0,2-.19V45.4a13.26,13.26,0,0,1-4.46.58c-10,0-12.24-6.76-12.24-13.08V21.62h-4V13.07h4V6.31H133v6.76h6.37v8.55Z"/><path class="cls-2" d="M174.33,25.32V45.4H164v-3c-1.72,2.49-5.55,3.83-8.86,3.83-4.34,0-11-1.66-11-9.5C144.1,26,158,26,160.17,26H164v-.13c0-3.06-1.53-5.23-5.29-5.23a10.15,10.15,0,0,0-6.13,2l-6.75-4.59c3.5-3.7,8.35-5.8,14.53-5.8C170.69,12.31,174.33,17.6,174.33,25.32ZM164,31.18h-.83c-5.17,0-8.61,1-8.61,4.21,0,2.36,1.91,3.25,4.15,3.25A7,7,0,0,0,164,36.35Z"/><path class="cls-2" d="M202.57,33.16l8.93,5.36a17.08,17.08,0,0,1-14.73,7.71c-10.07,0-17.34-7.4-17.34-17s7.27-17,17.34-17c6.44,0,11.8,3,14.73,7.71l-8.93,5.36a6.93,6.93,0,0,0-12.68,3.89,6.7,6.7,0,0,0,6.88,6.89A6.87,6.87,0,0,0,202.57,33.16Z"/><path class="cls-2" d="M228.08,21.62v10.2c0,3.38,1.21,5.1,4.4,5.1a14.42,14.42,0,0,0,2-.19V45.4A13.37,13.37,0,0,1,230,46c-9.94,0-12.24-6.76-12.24-13.08V21.62h-4V13.07h4V6.31h10.33v6.76h6.38v8.55Z"/></g></g></svg>