<svg xmlns="http://www.w3.org/2000/svg" viewBox="0 0 373.6 65.85"><defs><style>.cls-1{fill:#e67d6c;}.cls-2{fill:#e94e2d;stroke:#fff;stroke-miterlimit:10;stroke-width:2px;}</style></defs><title>Graphisme</title><g id="Calque_2" data-name="Calque 2"><g id="Calque_1-2" data-name="Calque 1"><path class="cls-1" d="M49.91,26.14V53H44.46l-1.52-5.78C39.61,51.44,34.7,53.9,28,53.9,14.18,53.9,4.35,43.61,4.35,29.79s9.83-24,23.64-24a22.86,22.86,0,0,1,18.73,9L37.29,21A11.46,11.46,0,0,0,28,16.65c-8.1,0-12.28,6.57-12.28,13.14S19.89,42.94,28,42.94c6.31,0,9.9-3.38,11.36-7.77H28v-9Z"/><path class="cls-1" d="M78.26,18.57V30.13c-9.56-1.46-10.63,4-10.63,9.62V53H56.88V19.37H67.63v5.11A12.84,12.84,0,0,1,78.26,18.57Z"/><path class="cls-1" d="M111.72,32.12V53H101V49.92c-1.8,2.58-5.78,4-9.23,4-4.52,0-11.49-1.73-11.49-9.9,0-11.15,14.47-11.15,16.73-11.15h4v-.13c0-3.19-1.6-5.45-5.52-5.45a10.49,10.49,0,0,0-6.37,2.13l-7-4.79c3.65-3.85,8.7-6,15.14-6C107.94,18.57,111.72,24.08,111.72,32.12ZM101,38.23h-.87c-5.38,0-9,1-9,4.38,0,2.46,2,3.39,4.31,3.39A7.3,7.3,0,0,0,101,43.61Z"/><path class="cls-1" d="M155.48,36.24c0,8.83-5.71,17.66-16.14,17.66-4.58,0-7.57-1.73-9.49-4.12V65.85H119V19.37h10.83v3.32c1.92-2.39,4.91-4.12,9.49-4.12C149.77,18.57,155.48,27.4,155.48,36.24Zm-10.89,0a7.21,7.21,0,1,0-14.41,0,7.21,7.21,0,0,0,14.41,0Z"/><path class="cls-1" d="M193.13,32V53H182.3V34.91c0-3.85-2.39-5.78-5.37-5.78s-5.38,2.06-5.38,5.78V53H160.79V6.55h10.76V22.49a11.7,11.7,0,0,1,9.23-3.92C189.21,18.57,193.13,25.21,193.13,32Z"/><path class="cls-1" d="M200.16,9.94a5.65,5.65,0,1,1,5.65,5.71A5.65,5.65,0,0,1,200.16,9.94Zm.27,9.43h10.76V53H200.43Z"/><path class="cls-1" d="M245.58,42.61c0,7.11-5.24,11.29-15.07,11.29-6.78,0-13.28-2.19-14.68-8.1l9.76-3.06c.4,1.33,1.73,2.73,4.79,2.73,2.25,0,4.05-.67,4.05-2.39,0-2.33-3.52-2.2-7.51-3.06-6.44-1.46-10-3.78-10-10.36,0-7,6-11.09,14.48-11.09,5.77,0,11.49,2.86,12.95,8.57l-9,2.19c-.4-1.59-1.86-2.46-3.86-2.46s-4.11.6-4.11,2.46c0,2.19,3.65,2.32,6.31,2.85C242.2,34,245.58,36.43,245.58,42.61Z"/><path class="cls-1" d="M300.89,30.79V53H290.14V33.71a4.49,4.49,0,1,0-9,0V53H270.35V33.71c0-3.78-2.72-4.58-4.45-4.58a4.25,4.25,0,0,0-4.52,4.58V53H250.56V19.37h10.82V22a10.64,10.64,0,0,1,8.3-3.39c4.65,0,7.71,1.79,9.5,4.52a11.92,11.92,0,0,1,9.7-4.52C297.11,18.57,300.89,24,300.89,30.79Z"/><path class="cls-1" d="M341,39.49H316.69c1.13,3.92,4.32,5.71,8.44,5.71a9.1,9.1,0,0,0,6.9-2.92l7.57,4.51c-2.72,4.19-7.9,7.11-14.47,7.11-11.36,0-18.93-7.17-18.93-17.66a17.39,17.39,0,0,1,17.4-17.67C333.56,18.57,342.33,25.34,341,39.49ZM331.24,33c-.8-3.92-3.59-5.71-7.31-5.71A7.26,7.26,0,0,0,316.69,33Z"/><path class="cls-1" d="M373.6,42.61c0,7.11-5.25,11.29-15.07,11.29-6.78,0-13.29-2.19-14.68-8.1l9.76-3.06c.4,1.33,1.73,2.73,4.78,2.73,2.26,0,4.05-.67,4.05-2.39,0-2.33-3.52-2.2-7.5-3.06-6.44-1.46-10-3.78-10-10.36,0-7,6-11.09,14.48-11.09,5.77,0,11.48,2.86,12.94,8.57l-9,2.19c-.4-1.59-1.86-2.46-3.85-2.46s-4.12.6-4.12,2.46c0,2.19,3.66,2.32,6.31,2.85C370.21,34,373.6,36.43,373.6,42.61Z"/><path class="cls-2" d="M46.55,22.85V49.74H41.11L39.58,44c-3.32,4.19-8.23,6.65-14.94,6.65C10.83,50.61,1,40.31,1,26.5s9.83-24,23.64-24a22.89,22.89,0,0,1,18.73,9l-9.43,6.24a11.47,11.47,0,0,0-9.3-4.32c-8.1,0-12.28,6.58-12.28,13.15s4.18,13.15,12.28,13.15c6.31,0,9.9-3.39,11.36-7.77H24.64v-9Z"/><path class="cls-2" d="M74.9,15.28V26.83c-9.56-1.46-10.62,4-10.62,9.63V49.74H53.52V16.07H64.28v5.12A12.81,12.81,0,0,1,74.9,15.28Z"/><path class="cls-2" d="M108.37,28.82V49.74H97.61V46.62c-1.79,2.59-5.77,4-9.23,4-4.51,0-11.49-1.73-11.49-9.9,0-11.16,14.48-11.16,16.74-11.16h4v-.13C97.61,26.23,96,24,92.1,24a10.53,10.53,0,0,0-6.37,2.12l-7-4.78c3.65-3.85,8.7-6,15.14-6C104.59,15.28,108.37,20.79,108.37,28.82ZM97.61,34.93h-.86c-5.38,0-9,1-9,4.39,0,2.45,2,3.38,4.31,3.38a7.28,7.28,0,0,0,5.51-2.39Z"/><path class="cls-2" d="M152.13,32.94c0,8.83-5.71,17.67-16.14,17.67-4.58,0-7.57-1.73-9.49-4.12V62.56H115.67V16.07H126.5v3.32c1.92-2.39,4.91-4.11,9.49-4.11C146.42,15.28,152.13,24.11,152.13,32.94Zm-10.89,0a7.21,7.21,0,1,0-14.41,0,7.21,7.21,0,0,0,14.41,0Z"/><path class="cls-2" d="M189.78,28.69V49.74H179V31.61c0-3.85-2.39-5.77-5.38-5.77s-5.38,2.05-5.38,5.77V49.74H157.44V3.26h10.75V19.2a11.69,11.69,0,0,1,9.23-3.92C185.86,15.28,189.78,21.92,189.78,28.69Z"/><path class="cls-2" d="M196.81,6.64a5.65,5.65,0,0,1,11.29,0,5.65,5.65,0,1,1-11.29,0Zm.27,9.43h10.75V49.74H197.08Z"/><path class="cls-2" d="M242.23,39.32c0,7.1-5.25,11.29-15.07,11.29-6.78,0-13.29-2.2-14.68-8.11l9.76-3c.4,1.33,1.73,2.72,4.78,2.72,2.26,0,4-.66,4-2.39,0-2.32-3.52-2.19-7.5-3.05-6.44-1.46-10-3.79-10-10.36,0-7,6-11.09,14.47-11.09,5.78,0,11.49,2.85,12.95,8.56L232,26c-.4-1.6-1.86-2.46-3.85-2.46S224,24.18,224,26c0,2.19,3.66,2.32,6.31,2.85C238.84,30.68,242.23,33.14,242.23,39.32Z"/><path class="cls-2" d="M297.54,27.5V49.74H286.78V30.42a4.48,4.48,0,1,0-9,0V49.74H267V30.42c0-3.79-2.73-4.58-4.45-4.58A4.25,4.25,0,0,0,258,30.42V49.74H247.21V16.07H258v2.59a10.66,10.66,0,0,1,8.3-3.38c4.65,0,7.7,1.79,9.5,4.51a11.92,11.92,0,0,1,9.69-4.51C293.76,15.28,297.54,20.72,297.54,27.5Z"/><path class="cls-2" d="M337.65,36.2H313.34c1.13,3.91,4.32,5.71,8.43,5.71A9.07,9.07,0,0,0,328.68,39l7.57,4.52c-2.72,4.18-7.9,7.11-14.48,7.11-11.35,0-18.92-7.18-18.92-17.67a17.39,17.39,0,0,1,17.4-17.66C330.21,15.28,339,22.05,337.65,36.2Zm-9.77-6.51c-.79-3.92-3.58-5.71-7.3-5.71a7.26,7.26,0,0,0-7.24,5.71Z"/><path class="cls-2" d="M370.25,39.32c0,7.1-5.25,11.29-15.08,11.29-6.77,0-13.28-2.2-14.67-8.11l9.76-3c.4,1.33,1.73,2.72,4.78,2.72,2.26,0,4-.66,4-2.39,0-2.32-3.52-2.19-7.5-3.05-6.44-1.46-10-3.79-10-10.36,0-7,6-11.09,14.47-11.09,5.78,0,11.49,2.85,12.95,8.56L360,26c-.4-1.6-1.86-2.46-3.85-2.46s-4.12.6-4.12,2.46c0,2.19,3.65,2.32,6.31,2.85C366.86,30.68,370.25,33.14,370.25,39.32Z"/></g></g></svg>