<?xml version="1.0" encoding="utf-8"?>
<!-- Generator: Adobe Illustrator 25.0.0, SVG Export Plug-In . SVG Version: 6.00 Build 0)  -->
<svg version="1.1" id="Calque_1" xmlns="http://www.w3.org/2000/svg" xmlns:xlink="http://www.w3.org/1999/xlink" x="0px" y="0px"
	 viewBox="0 0 48 48" style="enable-background:new 0 0 48 48;" xml:space="preserve">
<style type="text/css">
	.st0{fill:#545454;}
	.st1{fill:#EEEEEE;}
</style>
<path class="st0" d="M10.1,8c3.2-2.4,7.8-4,13.9-4c12.6,0,19,6.7,19,14c0,2.1-0.5,4.6-1.4,7C41,25,18,11,10.1,8z"/>
<path class="st0" d="M13.4,17.2c0.1,0,0.2,0.1,0.2,0.1c-0.8-0.3-1.5-0.6-2.4-0.8C9.9,16.2,8.5,16,7,16c-0.3,0-0.6,0-0.9,0
	c1.5-1.7,3.3-3.2,5.4-4.4c0.4,0.7,1.1,1.8,2,2.9c0.4,0.6,0.9,1.1,1.3,1.7C14.3,16.6,13.8,16.9,13.4,17.2z"/>
<path class="st0" d="M7,26.3c-1.2-2.9-2-5.8-2-8.3c0-0.6,0.1-1.3,0.2-1.9C5.8,16,6.4,16,7,16c2.3,0,4.4,0.4,6.4,1.2
	C11,20,9,23,7,26.3z"/>
<path class="st0" d="M15.7,9.8c-1.5,0.4-2.8,1-4.1,1.7c0,0-0.1,0.1-0.1,0.1c0,0,0,0,0-0.1c-0.2-0.4-0.8-2.2-1.1-3.4
	c0-0.1,0-0.2-0.1-0.2c1.3-1,2.9-1.9,4.8-2.5C15.1,6.9,15.3,8.4,15.7,9.8z"/>
<path class="st0" d="M11.4,11.7c-2,1.1-3.8,2.6-5.4,4.4c-0.3,0-0.6,0-0.9,0.1c0.5-3.1,2.1-6,5-8.2C10.5,9.2,11.3,11.5,11.4,11.7z"/>
<path class="st0" d="M5.1,17.1L5.1,17.1c0,0.3,0,0.6,0,0.9C5.1,17.7,5.1,17.4,5.1,17.1z"/>
<path class="st0" d="M24,33c0,3.8-1.2,7.3-3.3,10.1c0,0,0,0-0.1,0c-5-2.5-10.7-9.7-13.6-16.7c1.2-3.6,3.5-6.8,6.4-9.1
	C19.6,19.8,24,25.9,24,33z"/>
<path class="st0" d="M18.3,20.3c0,0-0.1-0.1-0.1-0.1c-0.7-0.6-1.5-1.2-2.3-1.7c-0.2-0.1-0.4-0.3-0.7-0.4c-0.2-0.1-0.5-0.3-0.8-0.4
	c-0.2-0.1-0.5-0.2-0.8-0.3c-0.1,0-0.2-0.1-0.2-0.1c0.4-0.3,0.9-0.7,1.3-1C15.7,17.4,16.8,18.8,18.3,20.3z"/>
<path class="st0" d="M18,41.4c-0.1,0-0.1-0.1-0.2-0.1C17.9,41.3,17.9,41.3,18,41.4C18,41.4,18,41.4,18,41.4c0.1,0.1,0.1,0.1,0.1,0.1
	c0,0,0.1,0.1,0.1,0.1c0.1,0.1,0.2,0.1,0.3,0.2c0.1,0,0.1,0.1,0.2,0.1C18.4,41.7,18.2,41.5,18,41.4z M18.7,41.9
	c0.1,0.1,0.3,0.2,0.4,0.3c0.1,0,0.1,0.1,0.2,0.1C19.1,42.2,18.9,42.1,18.7,41.9z M13.4,17.2L13.4,17.2c0.1,0,0.2,0.1,0.2,0.1
	C13.6,17.3,13.5,17.3,13.4,17.2z"/>
<path class="st0" d="M13.6,17.3c-0.1,0-0.2-0.1-0.2-0.1l0,0C13.5,17.3,13.6,17.3,13.6,17.3z M17.8,41.2c0,0,0.1,0.1,0.2,0.1
	c0,0,0,0,0,0C17.9,41.3,17.9,41.3,17.8,41.2z M18,41.4c0.2,0.2,0.5,0.3,0.7,0.5c-0.1,0-0.1-0.1-0.2-0.1c-0.1-0.1-0.2-0.1-0.3-0.2
	c0,0-0.1-0.1-0.1-0.1C18.1,41.4,18,41.4,18,41.4z M18.7,41.9c0.2,0.1,0.4,0.3,0.6,0.4c-0.1,0-0.1-0.1-0.2-0.1
	C19,42.1,18.9,42,18.7,41.9z M22.9,39c-0.6,1.5-1.3,2.9-2.2,4.1C21.9,43.7,23,44,24,44c0.1,0,0.3,0,0.4,0c0.1,0,0.1,0,0.2,0
	c0,0,0,0,0.1,0c1.3-0.2,2.7-0.8,4.2-1.8c0.3-0.2,0.5-0.4,0.8-0.5c4.7-3.5,9.5-10.2,11.8-16.6c-0.6-2.7-1.7-5.2-3.2-7.3
	c-0.1-0.1-0.2-0.2-0.3-0.2c-1.9-1.6-4.1-2.8-6.5-3.5c-1.9-0.6-3.9-0.9-6-0.9c-2.7,0-5.3,0.6-7.6,1.5C20.4,18.3,25,23.1,25,31
	C25,35.4,23.2,38.6,22.9,39C22.9,39,22.9,39,22.9,39z"/>
<path class="st0" d="M41.6,25c-2.3,6.4-7.2,13.1-11.8,16.6c-0.3,0.2-0.5,0.4-0.8,0.5c-1.5,1-2.9,1.6-4.2,1.8c0,0,0,0-0.1,0
	c-0.1,0-0.1,0-0.2,0c-0.1,0-0.3,0-0.4,0c-1,0-2.2-0.3-3.3-0.9c0.9-1.2,1.7-2.6,2.2-4.1c0,0,0,0,0,0c0,0,0.1-0.2,0.2-0.3
	c0.1-0.1,0.1-0.3,0.2-0.5c0.1-0.2,0.2-0.5,0.3-0.7c0.1-0.1,0.1-0.3,0.2-0.5c0.1-0.2,0.1-0.3,0.2-0.5c0.2-0.6,0.4-1.2,0.6-1.9
	c0-0.2,0.1-0.3,0.1-0.5c0.2-0.9,0.3-1.9,0.3-3c0-6.1-2.8-10.4-5.2-13.8c-0.7-1-1.3-1.9-1.9-2.7c2.3-1,4.9-1.5,7.6-1.5
	c2.1,0,4.1,0.3,6,0.9c2.4,0.8,4.6,2,6.5,3.5c0.1,0.1,0.2,0.2,0.4,0.2c0.8,1.2,1.5,2.4,2.1,3.7C40.9,22.6,41.3,23.8,41.6,25z"/>
<path class="st0" d="M40.4,21.4c-2.2,1-4.7,1.6-7.3,1.6c-5.2,0-9.9-2.2-13.2-5.8c-0.7-1-1.3-1.9-1.9-2.7c2.3-1,4.9-1.5,7.6-1.5
	c2.1,0,4.1,0.3,6,0.9c2.4,0.8,4.6,2,6.5,3.5c0.1,0.1,0.2,0.2,0.4,0.2C39.1,18.9,39.8,20.1,40.4,21.4z"/>
<path class="st0" d="M9.2,13.1C8,14,7,15,6.1,16c-0.1,0-0.1,0-0.2,0c-0.2,0-0.4,0-0.7,0.1c0-0.3,0.1-0.5,0.2-0.8
	c0.1-0.3,0.1-0.5,0.2-0.8c0.1-0.2,0.2-0.5,0.2-0.7c0,0,0,0,0-0.1C5.9,13.5,6,13.3,6.1,13c0.3,0,0.6,0,0.9,0C7.7,13,8.5,13,9.2,13.1z
	"/>
<g>
	<path class="st0" d="M14.7,16.3c-0.5,0.3-0.9,0.6-1.3,1C11.5,16.5,9.4,16,7.3,16c-0.1,0-0.2,0-0.3,0c-0.3,0-0.5,0-0.8,0
		c-0.1,0-0.1,0-0.1,0C7,15,8,14,9.2,13.1c0.2,0,0.5,0.1,0.7,0.1c0.8,0.1,2,0.4,3.1,0.9C13.6,14.8,14.1,15.5,14.7,16.3z"/>
	<path class="st1" d="M38.3,17.7c-0.1-0.1-0.2-0.2-0.4-0.2c-1.9-1.6-4.1-2.8-6.5-3.5c-1.9-0.6-3.9-0.9-6-0.9c-2.7,0-5.3,0.6-7.6,1.5
		C20.4,18.3,25,23.1,25,31c0,4.7-2.1,8-2.1,8c0.7-1.9,1.1-3.9,1.1-6c0-0.3,0-0.6,0-0.9c0-0.3,0-0.6-0.1-0.9c-0.1-0.5-0.1-1-0.2-1.5
		c0-0.2-0.1-0.3-0.1-0.5c0-0.2-0.1-0.4-0.2-0.6c-0.1-0.3-0.1-0.5-0.2-0.8c-0.2-0.5-0.4-1.1-0.6-1.6c0-0.1-0.1-0.2-0.2-0.4
		c-1-2-2.3-3.9-4-5.4c0,0,0-0.1-0.1-0.1c-1.5-1.5-2.6-2.9-3.6-4c-1.4-1.7-2.7-3.6-3.3-4.6C14.4,10,17.8,9,21.5,9
		C28.5,9,34.6,12.4,38.3,17.7z"/>
	<path class="st1" d="M23.1,38.7c0.1-0.1,0.1-0.3,0.2-0.5C23.3,38.4,23.2,38.5,23.1,38.7z"/>
</g>
</svg>
