<svg xmlns="http://www.w3.org/2000/svg" viewBox="0 0 500.86 52.3"><defs><style>.cls-1{fill:#f8861e;}.cls-2{fill:#f36a24;}.cls-3,.cls-4{fill:#ef4d29;}.cls-4{stroke:#fff;stroke-miterlimit:10;}</style></defs><g id="Calque_2" data-name="Calque 2"><g id="Calque_1-2" data-name="Calque 1"><path class="cls-1" d="M54.57,5.67V51.45H43.32V24.24L31.42,43.93H27.3l-12-19.69V51.45H4.15V5.67H15.92L29.33,27.84,42.73,5.67Z"/><path class="cls-1" d="M85,34.9a7.1,7.1,0,1,0-14.19,0A7.1,7.1,0,0,0,85,34.9Zm10.66,0c0,9.81-7.39,17.4-17.79,17.4S60.12,44.71,60.12,34.9s7.46-17.39,17.79-17.39S95.7,25,95.7,34.9Z"/><path class="cls-1" d="M123.88,34.9a6.79,6.79,0,0,0-7.13-7.12c-4.38,0-7.06,3-7.06,7.12A6.69,6.69,0,0,0,116.75,42,6.78,6.78,0,0,0,123.88,34.9ZM134.8,5.67V51.45H124.21v-3.2a11.51,11.51,0,0,1-9.35,4C104.52,52.3,99,43.6,99,34.9s5.56-17.39,15.9-17.39a11.51,11.51,0,0,1,9.35,4V5.67Z"/><path class="cls-1" d="M166.58,4.56l-6.34,9.15H151.8l4.25-9.15Zm7.72,33.55H150.36c1.11,3.86,4.25,5.62,8.31,5.62a9,9,0,0,0,6.8-2.87l7.46,4.44c-2.69,4.12-7.79,7-14.26,7C147.48,52.3,140,45.24,140,34.9a17.12,17.12,0,0,1,17.13-17.39C167,17.51,175.61,24.18,174.3,38.11Zm-9.62-6.41c-.78-3.86-3.53-5.62-7.19-5.62a7.15,7.15,0,0,0-7.13,5.62Z"/><path class="cls-1" d="M190.38,5.67V51.45H179.72V5.67Z"/><path class="cls-1" d="M197.57,18.29h10.6V51.45h-10.6ZM197.31,9a5.56,5.56,0,1,1,5.56,5.62A5.61,5.61,0,0,1,197.31,9Z"/><path class="cls-1" d="M242,41.18c0,7-5.16,11.12-14.84,11.12-6.67,0-13.08-2.16-14.46-8l9.62-3c.39,1.31,1.7,2.69,4.71,2.69,2.22,0,4-.66,4-2.36,0-2.29-3.47-2.16-7.39-3-6.35-1.44-9.81-3.73-9.81-10.2,0-6.93,5.95-10.92,14.25-10.92,5.69,0,11.32,2.81,12.76,8.43L232,28.1c-.39-1.57-1.83-2.42-3.79-2.42s-4.06.59-4.06,2.42c0,2.16,3.6,2.29,6.22,2.82C238.71,32.68,242,35.1,242,41.18Z"/><path class="cls-1" d="M266,36.87h-.85c-5.3,0-8.83,1-8.83,4.31,0,2.42,2,3.34,4.25,3.34A7.16,7.16,0,0,0,266,42.16Zm10.59-6v20.6H266V48.38c-1.77,2.55-5.69,3.92-9.09,3.92-4.45,0-11.32-1.7-11.32-9.74,0-11,14.26-11,16.49-11H266v-.13c0-3.14-1.57-5.36-5.43-5.36a10.37,10.37,0,0,0-6.28,2.09l-6.93-4.71c3.6-3.79,8.57-5.95,14.91-5.95C272.91,17.51,276.63,22.94,276.63,30.85Z"/><path class="cls-1" d="M295.92,27.06V37.52c0,3.47,1.24,5.23,4.52,5.23a14.94,14.94,0,0,0,2-.19v8.89a13.63,13.63,0,0,1-4.58.59c-10.2,0-12.55-6.93-12.55-13.41V27.06h-4.12V18.29h4.12V11.36h10.59v6.93h6.54v8.77Z"/><path class="cls-1" d="M309.33,18.29h10.59V51.45H309.33ZM309.06,9a5.56,5.56,0,1,1,5.56,5.62A5.61,5.61,0,0,1,309.06,9Z"/><path class="cls-1" d="M350.07,34.9a7.1,7.1,0,1,0-14.2,0,7.1,7.1,0,0,0,14.2,0Zm10.66,0c0,9.81-7.39,17.4-17.79,17.4s-17.79-7.59-17.79-17.4,7.46-17.39,17.79-17.39S360.73,25,360.73,34.9Z"/><path class="cls-1" d="M397.8,30.72V51.45H387.14V33.6c0-3.8-2.35-5.69-5.29-5.69s-5.3,2-5.3,5.69V51.45H366V18.29h10.6v3.08a11.52,11.52,0,0,1,9.09-3.86C393.88,17.51,397.8,24.05,397.8,30.72Z"/><path class="cls-1" d="M454.3,38.5c0,8.24-6.47,13.8-17,13.8-8.7,0-16-4.58-17.27-12l10.66-2.48c.39,1.83,2,4.51,6.61,4.51,4.12,0,5.75-2.36,5.75-5.36,0-3.47-3.14-4.71-6.34-4.71h-4.45V23.66h4.45c3.46,0,5.75-1.31,5.75-4.39s-2.15-4.64-5.16-4.64a5.22,5.22,0,0,0-5.37,4L421.6,16.27c1.64-6.74,7.91-11.38,15.7-11.38,10.33,0,15.95,5.56,15.95,13.14a10.71,10.71,0,0,1-5.88,9.75C451.82,29.67,454.3,33.2,454.3,38.5Z"/><path class="cls-1" d="M489.68,28.56c0-8.11-5.63-12.29-13.15-12.29h-4.77V40.92h4.77C484.05,40.92,489.68,36.67,489.68,28.56Zm11.18,0c0,14-9,22.89-24.33,22.89h-16V5.67h16C491.84,5.67,500.86,14.63,500.86,28.56Z"/><polygon class="cls-2" points="52.98 4.25 52.98 50.03 41.73 50.03 41.73 22.82 29.83 42.51 25.71 42.51 13.74 22.82 13.74 50.03 2.56 50.03 2.56 4.25 14.33 4.25 27.74 26.42 41.14 4.25 52.98 4.25"/><path class="cls-2" d="M83.45,33.48a7.1,7.1,0,1,0-14.19,0,7.1,7.1,0,0,0,14.19,0Zm10.66,0c0,9.81-7.39,17.4-17.79,17.4s-17.79-7.59-17.79-17.4S66,16.08,76.32,16.08,94.11,23.6,94.11,33.48Z"/><path class="cls-2" d="M122.29,33.48a6.8,6.8,0,0,0-7.13-7.13c-4.38,0-7.06,3-7.06,7.13a6.69,6.69,0,0,0,7.06,7.06A6.78,6.78,0,0,0,122.29,33.48ZM133.21,4.25V50H122.62V46.82a11.48,11.48,0,0,1-9.35,4.06c-10.34,0-15.89-8.7-15.89-17.4s5.55-17.4,15.89-17.4a11.48,11.48,0,0,1,9.35,4.06V4.25Z"/><path class="cls-2" d="M165,3.13l-6.34,9.16h-8.44l4.25-9.16Zm7.72,33.55H148.77c1.12,3.86,4.26,5.63,8.31,5.63a9,9,0,0,0,6.8-2.88l7.46,4.45c-2.68,4.12-7.79,7-14.26,7-11.18,0-18.64-7.07-18.64-17.4a17.13,17.13,0,0,1,17.14-17.4C165.39,16.08,174,22.75,172.71,36.68Zm-9.61-6.41c-.79-3.85-3.53-5.62-7.2-5.62a7.16,7.16,0,0,0-7.13,5.62Z"/><rect class="cls-2" x="178.13" y="4.25" width="10.66" height="45.78"/><path class="cls-2" d="M196,16.87h10.59V50H196Zm-.27-9.29a5.56,5.56,0,1,1,5.56,5.63A5.56,5.56,0,0,1,195.72,7.58Z"/><path class="cls-2" d="M240.45,39.76c0,7-5.16,11.12-14.84,11.12-6.67,0-13.08-2.16-14.45-8l9.61-3c.39,1.31,1.7,2.68,4.71,2.68,2.22,0,4-.65,4-2.35,0-2.29-3.47-2.14-7.39-3-6.35-1.41-9.81-3.73-9.81-10.2,0-6.94,5.95-10.93,14.26-10.93,5.68,0,11.31,2.82,12.75,8.44l-8.9,2.16c-.39-1.57-1.83-2.42-3.79-2.42s-4.05.59-4.05,2.42c0,2.16,3.59,2.29,6.21,2.81C237.12,31.26,240.45,33.68,240.45,39.76Z"/><path class="cls-2" d="M264.45,35.44h-.85c-5.3,0-8.83,1-8.83,4.32,0,2.42,2,3.33,4.25,3.33a7.18,7.18,0,0,0,5.43-2.35Zm10.6-6V50h-10.6V47c-1.77,2.55-5.69,3.93-9.09,3.93-4.45,0-11.31-1.7-11.31-9.75,0-11,14.25-11,16.48-11h3.92V30c0-3.14-1.57-5.36-5.43-5.36a10.44,10.44,0,0,0-6.28,2.09L245.81,22c3.6-3.79,8.57-6,14.91-6C271.32,16.08,275.05,21.51,275.05,29.43Z"/><path class="cls-2" d="M294.33,25.63V36.1c0,3.46,1.25,5.23,4.52,5.23a13.27,13.27,0,0,0,2-.2V50a13.65,13.65,0,0,1-4.57.58c-10.21,0-12.56-6.93-12.56-13.4V25.63h-4.12V16.87h4.12V9.94h10.59v6.93h6.54v8.76Z"/><path class="cls-2" d="M307.74,16.87h10.59V50H307.74Zm-.26-9.29A5.56,5.56,0,1,1,313,13.21,5.55,5.55,0,0,1,307.48,7.58Z"/><path class="cls-2" d="M348.48,33.48a7.1,7.1,0,1,0-14.19,0,7.1,7.1,0,0,0,14.19,0Zm10.66,0c0,9.81-7.39,17.4-17.79,17.4s-17.79-7.59-17.79-17.4,7.46-17.4,17.79-17.4S359.14,23.6,359.14,33.48Z"/><path class="cls-2" d="M396.22,29.29V50H385.56V32.17c0-3.79-2.36-5.69-5.3-5.69s-5.3,2-5.3,5.69V50H364.37V16.87H375v3.07a11.52,11.52,0,0,1,9.09-3.86C392.29,16.08,396.22,22.62,396.22,29.29Z"/><path class="cls-2" d="M452.71,37.08c0,8.24-6.47,13.8-17,13.8-8.7,0-16-4.58-17.27-12l10.66-2.49c.4,1.83,2,4.52,6.61,4.52,4.12,0,5.75-2.36,5.75-5.37,0-3.46-3.14-4.71-6.34-4.71h-4.45V22.23h4.45c3.47,0,5.76-1.31,5.76-4.38s-2.16-4.64-5.17-4.64a5.2,5.2,0,0,0-5.36,4L420,14.84c1.64-6.74,7.92-11.38,15.7-11.38,10.33,0,16,5.56,16,13.15a10.7,10.7,0,0,1-5.89,9.74C450.23,28.25,452.71,31.78,452.71,37.08Z"/><path class="cls-2" d="M488.09,27.14c0-8.11-5.62-12.3-13.15-12.3h-4.77V39.5h4.77C482.47,39.5,488.09,35.25,488.09,27.14Zm11.18,0c0,14-9,22.89-24.33,22.89h-16V4.25h16C490.25,4.25,499.27,13.21,499.27,27.14Z"/><path class="cls-3" d="M51.39,2.82V48.6H40.14V21.4L28.24,41.08H24.12l-12-19.68V48.6H1V2.82H12.74L26.15,25,39.56,2.82Z"/><path class="cls-3" d="M81.86,32.06a7.1,7.1,0,1,0-14.19,0,7.1,7.1,0,0,0,14.19,0Zm10.66,0c0,9.81-7.39,17.39-17.79,17.39S57,41.87,57,32.06s7.45-17.4,17.78-17.4S92.52,22.18,92.52,32.06Z"/><path class="cls-3" d="M120.7,32.06a6.79,6.79,0,0,0-7.12-7.13c-4.39,0-7.07,3-7.07,7.13a6.69,6.69,0,0,0,7.07,7.06A6.77,6.77,0,0,0,120.7,32.06ZM131.63,2.82V48.6H121V45.4a11.49,11.49,0,0,1-9.35,4.05c-10.33,0-15.89-8.7-15.89-17.39s5.56-17.4,15.89-17.4A11.49,11.49,0,0,1,121,18.71V2.82Z"/><path class="cls-3" d="M163.41,1.71l-6.35,9.16h-8.44l4.26-9.16Zm7.71,33.55H147.19c1.11,3.86,4.25,5.62,8.3,5.62a9,9,0,0,0,6.8-2.87l7.46,4.44c-2.68,4.12-7.78,7-14.26,7-11.18,0-18.64-7.06-18.64-17.39A17.13,17.13,0,0,1,154,14.66C163.8,14.66,172.43,21.33,171.12,35.26Zm-9.61-6.41c-.79-3.86-3.53-5.62-7.2-5.62a7.14,7.14,0,0,0-7.12,5.62Z"/><path class="cls-3" d="M187.21,2.82V48.6H176.55V2.82Z"/><path class="cls-3" d="M194.4,15.44H205V48.6H194.4Zm-.26-9.28a5.56,5.56,0,1,1,11.11,0,5.56,5.56,0,1,1-11.11,0Z"/><path class="cls-3" d="M238.87,38.33c0,7-5.17,11.12-14.85,11.12-6.67,0-13.08-2.16-14.45-8l9.61-3c.39,1.31,1.7,2.69,4.71,2.69,2.22,0,4-.66,4-2.36,0-2.29-3.47-2.16-7.39-3-6.34-1.44-9.81-3.72-9.81-10.2,0-6.93,5.95-10.92,14.26-10.92,5.69,0,11.31,2.81,12.75,8.44l-8.89,2.15c-.4-1.57-1.84-2.42-3.8-2.42s-4.05.59-4.05,2.42c0,2.16,3.59,2.29,6.21,2.82C235.53,29.83,238.87,32.25,238.87,38.33Z"/><path class="cls-3" d="M262.86,34H262c-5.3,0-8.83,1-8.83,4.31,0,2.42,2,3.34,4.25,3.34a7.15,7.15,0,0,0,5.43-2.36Zm10.6-6V48.6h-10.6V45.53c-1.76,2.55-5.69,3.92-9.09,3.92-4.44,0-11.31-1.7-11.31-9.74,0-11,14.25-11,16.48-11h3.92v-.13c0-3.14-1.57-5.36-5.43-5.36a10.31,10.31,0,0,0-6.27,2.09l-6.94-4.71c3.6-3.79,8.57-5.95,14.91-5.95C269.73,14.66,273.46,20.09,273.46,28Z"/><path class="cls-3" d="M292.75,24.21V34.67c0,3.47,1.24,5.23,4.51,5.23a15.28,15.28,0,0,0,2-.19V48.6a13.71,13.71,0,0,1-4.58.59c-10.2,0-12.56-6.93-12.56-13.41V24.21H278V15.44h4.12V8.51h10.6v6.93h6.54v8.77Z"/><path class="cls-3" d="M306.15,15.44h10.59V48.6H306.15Zm-.26-9.28a5.56,5.56,0,0,1,11.12,0,5.56,5.56,0,1,1-11.12,0Z"/><path class="cls-3" d="M346.89,32.06a7.1,7.1,0,1,0-14.19,0,7.1,7.1,0,0,0,14.19,0Zm10.66,0c0,9.81-7.39,17.39-17.79,17.39S322,41.87,322,32.06s7.46-17.4,17.79-17.4S357.55,22.18,357.55,32.06Z"/><path class="cls-3" d="M394.63,27.87V48.6H384V30.75c0-3.8-2.36-5.69-5.3-5.69s-5.3,2-5.3,5.69V48.6H362.78V15.44h10.59v3.08a11.53,11.53,0,0,1,9.09-3.86C390.7,14.66,394.63,21.2,394.63,27.87Z"/><path class="cls-3" d="M451.12,35.65c0,8.24-6.47,13.8-17,13.8-8.7,0-16-4.58-17.27-12L427.51,35c.4,1.83,2,4.51,6.61,4.51,4.12,0,5.75-2.35,5.75-5.36,0-3.47-3.13-4.71-6.34-4.71h-4.45V20.81h4.45c3.47,0,5.76-1.31,5.76-4.39s-2.16-4.64-5.17-4.64a5.2,5.2,0,0,0-5.36,4l-10.34-2.35C420.06,6.68,426.34,2,434.12,2c10.33,0,16,5.56,16,13.14a10.7,10.7,0,0,1-5.89,9.75C448.64,26.82,451.12,30.36,451.12,35.65Z"/><path class="cls-3" d="M486.5,25.71c0-8.11-5.62-12.29-13.14-12.29h-4.78V38.07h4.78C480.88,38.07,486.5,33.82,486.5,25.71Zm11.18,0c0,14-9,22.89-24.32,22.89h-16V2.82h16C488.66,2.82,497.68,11.78,497.68,25.71Z"/><path class="cls-4" d="M50.92,2.72V48.5H39.67V21.3L27.77,41H23.65l-12-19.68V48.5H.5V2.72H12.27L25.68,24.89,39.09,2.72Z"/><path class="cls-4" d="M92.05,32c0,9.81-7.39,17.39-17.79,17.39S56.47,41.77,56.47,32s7.46-17.4,17.79-17.4S92.05,22.08,92.05,32ZM81.39,32A7.1,7.1,0,1,0,67.2,32a7.1,7.1,0,0,0,14.19,0Z"/><path class="cls-4" d="M131.16,2.72V48.5h-10.6V45.3a11.49,11.49,0,0,1-9.35,4.05c-10.33,0-15.89-8.69-15.89-17.39s5.56-17.4,15.89-17.4a11.47,11.47,0,0,1,9.35,4.06V2.72ZM120.23,32a6.79,6.79,0,0,0-7.12-7.13c-4.39,0-7.07,3-7.07,7.13A6.69,6.69,0,0,0,113.11,39,6.77,6.77,0,0,0,120.23,32Z"/><path class="cls-4" d="M170.65,35.16H146.72c1.11,3.86,4.25,5.63,8.3,5.63a9,9,0,0,0,6.8-2.88l7.46,4.45c-2.68,4.12-7.78,7-14.26,7-11.18,0-18.64-7.06-18.64-17.39a17.13,17.13,0,0,1,17.14-17.4C163.33,14.56,172,21.23,170.65,35.16ZM161,28.75c-.79-3.86-3.53-5.62-7.2-5.62a7.14,7.14,0,0,0-7.12,5.62Zm1.89-27.14-6.34,9.16h-8.44l4.26-9.16Z"/><path class="cls-4" d="M186.74,2.72V48.5H176.08V2.72Z"/><path class="cls-4" d="M193.67,6.06a5.56,5.56,0,1,1,5.56,5.62A5.55,5.55,0,0,1,193.67,6.06Zm.26,9.29h10.59V48.5H193.93Z"/><path class="cls-4" d="M238.4,38.24c0,7-5.17,11.11-14.85,11.11-6.67,0-13.08-2.15-14.45-8l9.61-3c.39,1.3,1.7,2.68,4.71,2.68,2.22,0,4-.66,4-2.36,0-2.29-3.47-2.15-7.39-3-6.34-1.43-9.81-3.72-9.81-10.2,0-6.93,5.95-10.92,14.26-10.92,5.69,0,11.31,2.81,12.75,8.44l-8.9,2.16c-.39-1.57-1.83-2.42-3.79-2.42s-4.05.58-4.05,2.42c0,2.15,3.59,2.28,6.21,2.81C235.06,29.73,238.4,32.15,238.4,38.24Z"/><path class="cls-4" d="M273,27.9V48.5h-10.6V45.43c-1.76,2.55-5.69,3.92-9.09,3.92-4.45,0-11.31-1.7-11.31-9.74,0-11,14.25-11,16.48-11h3.92v-.13c0-3.14-1.57-5.36-5.43-5.36a10.31,10.31,0,0,0-6.27,2.09l-6.94-4.71c3.6-3.79,8.57-6,14.91-6C269.26,14.56,273,20,273,27.9Zm-10.6,6h-.85c-5.3,0-8.83,1-8.83,4.32,0,2.42,2,3.33,4.25,3.33a7.18,7.18,0,0,0,5.43-2.35Z"/><path class="cls-4" d="M292.28,24.11V34.57c0,3.47,1.24,5.23,4.51,5.23a15.28,15.28,0,0,0,2-.19V48.5a13.46,13.46,0,0,1-4.58.59c-10.2,0-12.56-6.93-12.56-13.41V24.11h-4.12V15.35h4.12V8.41h10.6v6.94h6.54v8.76Z"/><path class="cls-4" d="M305.42,6.06a5.56,5.56,0,1,1,11.12,0,5.56,5.56,0,1,1-11.12,0Zm.26,9.29h10.59V48.5H305.68Z"/><path class="cls-4" d="M357.08,32c0,9.81-7.39,17.39-17.79,17.39S321.5,41.77,321.5,32s7.46-17.4,17.79-17.4S357.08,22.08,357.08,32Zm-10.66,0a7.1,7.1,0,1,0-14.19,0,7.1,7.1,0,0,0,14.19,0Z"/><path class="cls-4" d="M394.16,27.77V48.5H383.5V30.65c0-3.79-2.36-5.69-5.3-5.69s-5.3,2-5.3,5.69V48.5H362.31V15.35H372.9v3.07A11.53,11.53,0,0,1,382,14.56C390.23,14.56,394.16,21.1,394.16,27.77Z"/><path class="cls-4" d="M450.65,35.55c0,8.24-6.47,13.8-17,13.8-8.7,0-16-4.57-17.27-12L427,34.9c.4,1.83,2,4.51,6.61,4.51,4.12,0,5.75-2.35,5.75-5.36,0-3.47-3.13-4.71-6.34-4.71h-4.45V20.71h4.45c3.47,0,5.76-1.31,5.76-4.38s-2.16-4.65-5.17-4.65a5.2,5.2,0,0,0-5.36,4L418,13.32c1.64-6.74,7.92-11.38,15.7-11.38,10.33,0,16,5.56,16,13.14a10.71,10.71,0,0,1-5.89,9.75C448.17,26.72,450.65,30.26,450.65,35.55Z"/><path class="cls-4" d="M497.21,25.61c0,14-9,22.89-24.33,22.89h-16V2.72h16C488.19,2.72,497.21,11.68,497.21,25.61Zm-11.18,0c0-8.11-5.62-12.29-13.15-12.29h-4.77V38h4.77C480.41,38,486,33.72,486,25.61Z"/></g></g></svg>