<svg xmlns="http://www.w3.org/2000/svg" viewBox="0 0 499.89 51.7"><defs><style>.cls-1{fill:#f8861e;}.cls-2{fill:#f36a24;}.cls-3{fill:#ef4d29;}</style></defs><g id="Calque_2" data-name="Calque 2"><g id="Calque_1-2" data-name="Calque 1"><path class="cls-1" d="M53.6,5.07V50.85H42.35V23.65L30.45,43.33H26.33l-12-19.68v27.2H3.18V5.07H15l13.4,22.17L41.76,5.07Z"/><path class="cls-1" d="M84.07,34.31a7.1,7.1,0,1,0-14.19,0,7.1,7.1,0,0,0,14.19,0Zm10.66,0c0,9.81-7.39,17.39-17.79,17.39S59.15,44.12,59.15,34.31s7.46-17.4,17.79-17.4S94.73,24.43,94.73,34.31Z"/><path class="cls-1" d="M122.91,34.31a6.8,6.8,0,0,0-7.13-7.13c-4.38,0-7.06,3-7.06,7.13a6.69,6.69,0,0,0,7.06,7.06A6.78,6.78,0,0,0,122.91,34.31ZM133.83,5.07V50.85H123.24v-3.2a11.51,11.51,0,0,1-9.35,4.05C103.55,51.7,98,43,98,34.31s5.56-17.4,15.9-17.4A11.51,11.51,0,0,1,123.24,21V5.07Z"/><path class="cls-1" d="M165.61,4l-6.34,9.16h-8.44L155.08,4Zm7.72,33.55H149.39c1.11,3.86,4.25,5.62,8.31,5.62a9,9,0,0,0,6.8-2.87L172,44.7c-2.68,4.12-7.78,7-14.25,7-11.19,0-18.64-7.06-18.64-17.39a17.13,17.13,0,0,1,17.13-17.4C166,16.91,174.64,23.58,173.33,37.51Zm-9.62-6.41c-.78-3.86-3.53-5.62-7.19-5.62a7.15,7.15,0,0,0-7.13,5.62Z"/><path class="cls-1" d="M189.41,5.07V50.85H178.75V5.07Z"/><path class="cls-1" d="M196.6,17.69h10.6V50.85H196.6Zm-.26-9.28A5.56,5.56,0,1,1,201.9,14,5.61,5.61,0,0,1,196.34,8.41Z"/><path class="cls-1" d="M241.07,40.58c0,7-5.16,11.12-14.84,11.12-6.67,0-13.08-2.16-14.46-8l9.62-3c.39,1.31,1.7,2.69,4.71,2.69,2.22,0,4-.66,4-2.36,0-2.29-3.46-2.16-7.38-3-6.35-1.44-9.81-3.72-9.81-10.2,0-6.93,6-10.92,14.25-10.92,5.69,0,11.32,2.81,12.76,8.44L231,27.5c-.39-1.57-1.83-2.42-3.79-2.42s-4.06.59-4.06,2.42c0,2.16,3.6,2.29,6.22,2.82C237.74,32.08,241.07,34.5,241.07,40.58Z"/><path class="cls-1" d="M265.07,36.27h-.85c-5.3,0-8.83,1-8.83,4.31,0,2.42,2,3.34,4.25,3.34a7.16,7.16,0,0,0,5.43-2.36Zm10.59-6v20.6H265.07V47.78c-1.77,2.55-5.69,3.92-9.09,3.92-4.45,0-11.32-1.7-11.32-9.74,0-11,14.26-11,16.48-11h3.93v-.13c0-3.14-1.57-5.36-5.43-5.36a10.37,10.37,0,0,0-6.28,2.09l-6.93-4.71c3.6-3.79,8.57-5.95,14.91-5.95C271.94,16.91,275.66,22.34,275.66,30.25Z"/><path class="cls-1" d="M295,26.46V36.92c0,3.47,1.24,5.23,4.51,5.23a15.11,15.11,0,0,0,2-.19v8.89a13.63,13.63,0,0,1-4.58.59c-10.2,0-12.55-6.93-12.55-13.41V26.46h-4.12V17.69h4.12V10.76H295v6.93h6.54v8.77Z"/><path class="cls-1" d="M308.36,17.69H319V50.85H308.36Zm-.27-9.28A5.56,5.56,0,1,1,313.65,14,5.61,5.61,0,0,1,308.09,8.41Z"/><path class="cls-1" d="M349.1,34.31a7.1,7.1,0,1,0-14.2,0,7.1,7.1,0,0,0,14.2,0Zm10.66,0c0,9.81-7.39,17.39-17.79,17.39s-17.79-7.58-17.79-17.39,7.45-17.4,17.79-17.4S359.76,24.43,359.76,34.31Z"/><path class="cls-1" d="M396.83,30.12V50.85H386.17V33c0-3.8-2.35-5.69-5.29-5.69s-5.3,2-5.3,5.69V50.85H365V17.69h10.6v3.08a11.5,11.5,0,0,1,9.09-3.86C392.91,16.91,396.83,23.45,396.83,30.12Z"/><path class="cls-1" d="M453.33,37.9c0,8.24-6.47,13.8-17,13.8-8.7,0-16-4.58-17.27-12l10.66-2.48c.39,1.83,2,4.51,6.61,4.51,4.12,0,5.75-2.35,5.75-5.36,0-3.47-3.14-4.71-6.34-4.71h-4.45V23.06h4.45c3.46,0,5.75-1.31,5.75-4.39S439.33,14,436.33,14A5.22,5.22,0,0,0,431,18l-10.33-2.35c1.64-6.74,7.91-11.38,15.7-11.38,10.33,0,15.95,5.56,15.95,13.14a10.71,10.71,0,0,1-5.88,9.75C450.84,29.07,453.33,32.61,453.33,37.9Z"/><path class="cls-1" d="M488.71,28c0-8.11-5.63-12.29-13.15-12.29h-4.77V40.32h4.77C483.08,40.32,488.71,36.07,488.71,28Zm11.18,0c0,14-9,22.89-24.33,22.89h-16V5.07h16C490.87,5.07,499.89,14,499.89,28Z"/><polygon class="cls-2" points="52.01 3.65 52.01 49.43 40.76 49.43 40.76 22.22 28.86 41.91 24.74 41.91 12.77 22.22 12.77 49.43 1.59 49.43 1.59 3.65 13.36 3.65 26.77 25.82 40.17 3.65 52.01 3.65"/><path class="cls-2" d="M82.48,32.88a7.1,7.1,0,1,0-14.19,0,7.1,7.1,0,0,0,14.19,0Zm10.66,0c0,9.81-7.39,17.4-17.79,17.4s-17.79-7.59-17.79-17.4S65,15.48,75.35,15.48,93.14,23,93.14,32.88Z"/><path class="cls-2" d="M121.32,32.88a6.8,6.8,0,0,0-7.13-7.13c-4.38,0-7.06,3-7.06,7.13a6.69,6.69,0,0,0,7.06,7.06A6.78,6.78,0,0,0,121.32,32.88ZM132.24,3.65V49.43H121.65V46.22a11.48,11.48,0,0,1-9.35,4.06c-10.34,0-15.89-8.7-15.89-17.4s5.55-17.4,15.89-17.4a11.51,11.51,0,0,1,9.35,4.06V3.65Z"/><path class="cls-2" d="M164,2.54l-6.34,9.15h-8.44l4.25-9.15Zm7.72,33.55H147.8c1.12,3.85,4.25,5.62,8.31,5.62a9,9,0,0,0,6.8-2.88l7.46,4.45c-2.68,4.12-7.79,7-14.26,7-11.18,0-18.64-7.07-18.64-17.4a17.13,17.13,0,0,1,17.14-17.4C164.42,15.48,173.05,22.16,171.74,36.09Zm-9.61-6.41c-.79-3.86-3.54-5.63-7.2-5.63a7.15,7.15,0,0,0-7.13,5.63Z"/><rect class="cls-2" x="177.16" y="3.65" width="10.66" height="45.78"/><path class="cls-2" d="M195,16.27h10.59V49.43H195ZM194.75,7a5.56,5.56,0,1,1,5.56,5.63A5.56,5.56,0,0,1,194.75,7Z"/><path class="cls-2" d="M239.48,39.16c0,7-5.16,11.12-14.84,11.12-6.67,0-13.08-2.16-14.45-8l9.61-3c.39,1.31,1.7,2.68,4.71,2.68,2.22,0,4-.65,4-2.35,0-2.29-3.47-2.14-7.39-3-6.35-1.41-9.81-3.73-9.81-10.2,0-6.94,5.95-10.93,14.25-10.93,5.69,0,11.32,2.82,12.76,8.44l-8.9,2.16c-.39-1.57-1.83-2.42-3.79-2.42s-4.05.59-4.05,2.42c0,2.16,3.59,2.29,6.21,2.81C236.15,30.66,239.48,33.08,239.48,39.16Z"/><path class="cls-2" d="M263.48,34.84h-.85c-5.3,0-8.83,1-8.83,4.32,0,2.42,2,3.33,4.25,3.33a7.19,7.19,0,0,0,5.43-2.35Zm10.59-6v20.6H263.48V46.35c-1.77,2.55-5.69,3.93-9.09,3.93-4.45,0-11.31-1.7-11.31-9.75,0-11,14.25-11,16.48-11h3.92v-.13c0-3.14-1.57-5.37-5.43-5.37a10.37,10.37,0,0,0-6.28,2.1l-6.93-4.71c3.6-3.8,8.57-6,14.91-6C270.35,15.48,274.07,20.91,274.07,28.83Z"/><path class="cls-2" d="M293.36,25V35.5c0,3.46,1.25,5.23,4.52,5.23a13.27,13.27,0,0,0,2-.2v8.9a13.61,13.61,0,0,1-4.57.59c-10.21,0-12.56-6.94-12.56-13.41V25h-4.12V16.27h4.12V9.34h10.59v6.93h6.54V25Z"/><path class="cls-2" d="M306.77,16.27h10.59V49.43H306.77ZM306.51,7a5.56,5.56,0,1,1,5.55,5.63A5.55,5.55,0,0,1,306.51,7Z"/><path class="cls-2" d="M347.51,32.88a7.1,7.1,0,1,0-14.19,0,7.1,7.1,0,0,0,14.19,0Zm10.66,0c0,9.81-7.39,17.4-17.79,17.4s-17.79-7.59-17.79-17.4,7.46-17.4,17.79-17.4S358.17,23,358.17,32.88Z"/><path class="cls-2" d="M395.24,28.7V49.43H384.58V31.57c0-3.79-2.35-5.69-5.29-5.69s-5.3,2-5.3,5.69V49.43H363.4V16.27H374v3.07a11.55,11.55,0,0,1,9.09-3.86C391.32,15.48,395.24,22,395.24,28.7Z"/><path class="cls-2" d="M451.74,36.48c0,8.24-6.47,13.8-17,13.8-8.7,0-16-4.58-17.27-12l10.66-2.49c.39,1.84,2,4.52,6.61,4.52,4.12,0,5.75-2.36,5.75-5.37,0-3.46-3.14-4.7-6.34-4.7H429.7V21.63h4.45c3.47,0,5.75-1.31,5.75-4.38s-2.15-4.64-5.16-4.64a5.2,5.2,0,0,0-5.36,4L419,14.24c1.64-6.73,7.92-11.38,15.7-11.38,10.33,0,15.95,5.56,15.95,13.15a10.69,10.69,0,0,1-5.88,9.74C449.26,27.65,451.74,31.18,451.74,36.48Z"/><path class="cls-2" d="M487.12,26.54c0-8.11-5.63-12.3-13.15-12.3H469.2V38.9H474C481.49,38.9,487.12,34.65,487.12,26.54Zm11.18,0c0,14-9,22.89-24.33,22.89H458V3.65h16C489.28,3.65,498.3,12.61,498.3,26.54Z"/><path class="cls-3" d="M50.42,2.22V48H39.17V20.8L27.27,40.48H23.15l-12-19.68V48H0V2.22H11.77L25.18,24.39,38.59,2.22Z"/><path class="cls-3" d="M80.89,31.46a7.1,7.1,0,1,0-14.19,0,7.1,7.1,0,0,0,14.19,0Zm10.66,0c0,9.81-7.39,17.39-17.79,17.39S56,41.27,56,31.46s7.46-17.4,17.79-17.4S91.55,21.58,91.55,31.46Z"/><path class="cls-3" d="M119.73,31.46a6.79,6.79,0,0,0-7.12-7.13c-4.39,0-7.07,3-7.07,7.13a6.69,6.69,0,0,0,7.07,7.06A6.77,6.77,0,0,0,119.73,31.46ZM130.66,2.22V48h-10.6V44.8a11.49,11.49,0,0,1-9.35,4.05c-10.33,0-15.89-8.69-15.89-17.39s5.56-17.4,15.89-17.4a11.47,11.47,0,0,1,9.35,4.06V2.22Z"/><path class="cls-3" d="M162.43,1.11l-6.34,9.16h-8.44l4.26-9.16Zm7.72,33.55H146.22c1.11,3.86,4.25,5.63,8.3,5.63a9,9,0,0,0,6.8-2.88l7.46,4.45c-2.68,4.12-7.78,7-14.26,7-11.18,0-18.64-7.06-18.64-17.39A17.13,17.13,0,0,1,153,14.06C162.83,14.06,171.46,20.73,170.15,34.66Zm-9.61-6.41c-.79-3.86-3.53-5.62-7.2-5.62a7.14,7.14,0,0,0-7.12,5.62Z"/><path class="cls-3" d="M186.24,2.22V48H175.58V2.22Z"/><path class="cls-3" d="M193.43,14.85H204V48H193.43Zm-.26-9.29a5.56,5.56,0,1,1,5.56,5.62A5.55,5.55,0,0,1,193.17,5.56Z"/><path class="cls-3" d="M237.9,37.74c0,7-5.17,11.11-14.85,11.11-6.67,0-13.08-2.15-14.45-8l9.61-3c.39,1.3,1.7,2.68,4.71,2.68,2.22,0,4-.66,4-2.36,0-2.29-3.47-2.15-7.39-3-6.34-1.43-9.81-3.72-9.81-10.2,0-6.93,5.95-10.92,14.26-10.92,5.69,0,11.31,2.81,12.75,8.44l-8.9,2.16c-.39-1.57-1.83-2.42-3.79-2.42s-4.05.58-4.05,2.42c0,2.15,3.59,2.28,6.21,2.81C234.56,29.23,237.9,31.65,237.9,37.74Z"/><path class="cls-3" d="M261.89,33.42H261c-5.3,0-8.83,1-8.83,4.32,0,2.42,2,3.33,4.25,3.33a7.18,7.18,0,0,0,5.43-2.35Zm10.6-6V48h-10.6V44.93c-1.76,2.55-5.69,3.92-9.09,3.92-4.45,0-11.31-1.7-11.31-9.74,0-11,14.25-11,16.48-11h3.92V28c0-3.14-1.57-5.36-5.43-5.36a10.31,10.31,0,0,0-6.27,2.09L243.25,20c3.6-3.79,8.57-6,14.91-6C268.76,14.06,272.49,19.49,272.49,27.4Z"/><path class="cls-3" d="M291.78,23.61V34.07c0,3.47,1.24,5.23,4.51,5.23a15.28,15.28,0,0,0,2-.19V48a13.46,13.46,0,0,1-4.58.59c-10.2,0-12.56-6.93-12.56-13.41V23.61h-4.12V14.85h4.12V7.91h10.6v6.94h6.54v8.76Z"/><path class="cls-3" d="M305.18,14.85h10.59V48H305.18Zm-.26-9.29a5.56,5.56,0,1,1,11.12,0,5.56,5.56,0,1,1-11.12,0Z"/><path class="cls-3" d="M345.92,31.46a7.1,7.1,0,1,0-14.19,0,7.1,7.1,0,0,0,14.19,0Zm10.66,0c0,9.81-7.39,17.39-17.79,17.39S321,41.27,321,31.46s7.46-17.4,17.79-17.4S356.58,21.58,356.58,31.46Z"/><path class="cls-3" d="M393.66,27.27V48H383V30.15c0-3.79-2.36-5.69-5.3-5.69s-5.3,2-5.3,5.69V48H361.81V14.85H372.4v3.07a11.53,11.53,0,0,1,9.09-3.86C389.73,14.06,393.66,20.6,393.66,27.27Z"/><path class="cls-3" d="M450.15,35.05c0,8.24-6.47,13.8-17,13.8-8.7,0-16-4.57-17.27-12l10.66-2.48c.4,1.83,2,4.51,6.61,4.51,4.12,0,5.75-2.35,5.75-5.36,0-3.47-3.13-4.71-6.34-4.71h-4.45V20.21h4.45c3.47,0,5.76-1.31,5.76-4.38s-2.16-4.65-5.17-4.65a5.2,5.2,0,0,0-5.36,4l-10.34-2.35c1.64-6.74,7.92-11.38,15.7-11.38,10.33,0,16,5.56,16,13.14a10.71,10.71,0,0,1-5.89,9.75C447.67,26.22,450.15,29.76,450.15,35.05Z"/><path class="cls-3" d="M485.53,25.11c0-8.11-5.62-12.29-13.15-12.29h-4.77V37.47h4.77C479.91,37.47,485.53,33.22,485.53,25.11Zm11.18,0c0,14-9,22.89-24.33,22.89h-16V2.22h16C487.69,2.22,496.71,11.18,496.71,25.11Z"/></g></g></svg>