<svg xmlns="http://www.w3.org/2000/svg" viewBox="0 0 222.57 222.57"><defs><style>.cls-1{fill:none;stroke:#f23d3d;stroke-miterlimit:10;stroke-width:5px;}.cls-2{fill:#c43131;}.cls-3{fill:#bb7272;}.cls-4{fill:#a96060;}.cls-5{fill:#984e4e;}.cls-6{fill:#863c3c;}.cls-7{fill:#742b2b;}.cls-8{fill:#621919;}.cls-9{fill:#b2b2b2;}.cls-10{fill:#8e8e8e;}.cls-11{fill:#6b6b6b;}.cls-12{fill:#474747;}.cls-13{fill:#242424;}</style></defs><g id="Calque_2" data-name="Calque 2"><g id="Calque_1-2" data-name="Calque 1"><circle class="cls-1" cx="111.28" cy="111.28" r="108.78"/><circle class="cls-2" cx="54.38" cy="120.47" r="33.29"/><circle class="cls-2" cx="78.27" cy="120.41" r="33.29"/><circle class="cls-2" cx="102.16" cy="120.36" r="33.29"/><circle class="cls-2" cx="126.03" cy="120.3" r="33.29"/><circle class="cls-2" cx="149.92" cy="120.24" r="33.29"/><circle class="cls-2" cx="173.79" cy="120.18" r="33.29" transform="translate(27.33 272.48) rotate(-80.78)"/><circle class="cls-3" cx="51.85" cy="116.2" r="33.29"/><circle class="cls-4" cx="75.74" cy="116.15" r="33.29"/><circle class="cls-5" cx="99.62" cy="116.1" r="33.29"/><circle class="cls-6" cx="123.5" cy="116.04" r="33.29"/><circle class="cls-7" cx="147.38" cy="115.98" r="33.29"/><circle class="cls-8" cx="171.27" cy="115.92" r="33.29" transform="translate(29.41 266.4) rotate(-80.78)"/><circle class="cls-9" cx="49.32" cy="111.94" r="33.29"/><circle class="cls-10" cx="73.21" cy="111.9" r="33.29"/><circle class="cls-11" cx="97.08" cy="111.84" r="33.29"/><circle class="cls-12" cx="120.97" cy="111.78" r="33.29"/><circle class="cls-13" cx="144.85" cy="111.72" r="33.29"/><circle cx="168.74" cy="111.65" r="33.29" transform="translate(31.5 260.33) rotate(-80.78)"/></g></g></svg>