<svg xmlns="http://www.w3.org/2000/svg" viewBox="0 0 445.91 65.08"><defs><style>.cls-1{fill:#ffb243;}.cls-2{fill:#f97840;}.cls-3,.cls-4{fill:#f23d3d;}.cls-4{stroke:#fff;stroke-miterlimit:10;}</style></defs><g id="Calque_2" data-name="Calque 2"><g id="Calque_1-2" data-name="Calque 1"><path class="cls-1" d="M56,6.26V51.9H44.74V24.78L32.88,44.41H28.77L16.84,24.78V51.9H5.69V6.26H17.42L30.79,28.37,44.16,6.26Z"/><path class="cls-1" d="M86.34,35.41a7.08,7.08,0,1,0-14.15,0,7.08,7.08,0,0,0,14.15,0Zm10.63,0c0,9.78-7.37,17.34-17.74,17.34S61.5,45.19,61.5,35.41s7.43-17.34,17.73-17.34S97,25.56,97,35.41Z"/><path class="cls-1" d="M114.25,27.58V38c0,3.45,1.23,5.21,4.49,5.21a15.28,15.28,0,0,0,2-.19V51.9a13.35,13.35,0,0,1-4.57.59c-10.17,0-12.52-6.91-12.52-13.36V27.58h-4.1V18.85h4.1V11.94h10.57v6.91h6.52v8.73Z"/><path class="cls-1" d="M127.61,18.85h10.56V51.9H127.61Zm-.26-9.26a5.54,5.54,0,0,1,11.08,0,5.54,5.54,0,1,1-11.08,0Z"/><path class="cls-1" d="M168.23,35.41a7.08,7.08,0,1,0-14.15,0,7.08,7.08,0,0,0,14.15,0Zm10.63,0c0,9.78-7.37,17.34-17.74,17.34s-17.73-7.56-17.73-17.34,7.43-17.34,17.73-17.34S178.86,25.56,178.86,35.41Z"/><path class="cls-1" d="M215.82,31.24V51.9H205.2V34.1c0-3.78-2.35-5.67-5.28-5.67s-5.29,2-5.29,5.67V51.9H184.07v-33h10.56v3.06a11.51,11.51,0,0,1,9.07-3.84C211.91,18.07,215.82,24.59,215.82,31.24Z"/><path class="cls-1" d="M269.35,29.08c0-8.08-5.6-12.25-13.1-12.25h-4.76V41.41h4.76C263.75,41.41,269.35,37.17,269.35,29.08Zm11.15,0c0,14-9,22.82-24.25,22.82h-16V6.26h16C271.51,6.26,280.5,15.2,280.5,29.08Z"/><path class="cls-1" d="M309,32.21c-.78-3.84-3.52-5.6-7.17-5.6a7.13,7.13,0,0,0-7.11,5.6Zm9.59,6.39H294.71c1.11,3.85,4.24,5.61,8.29,5.61a9,9,0,0,0,6.78-2.87l7.43,4.44c-2.67,4.1-7.76,7-14.21,7-11.15,0-18.59-7-18.59-17.34A17.07,17.07,0,0,1,301.5,18.07C311.28,18.07,319.88,24.72,318.58,38.6Z"/><path class="cls-1" d="M350.59,41.67c0,7-5.15,11.08-14.8,11.08-6.65,0-13-2.15-14.41-8l9.58-3c.4,1.3,1.7,2.67,4.7,2.67,2.22,0,4-.65,4-2.35,0-2.28-3.46-2.15-7.37-3-6.33-1.44-9.78-3.72-9.78-10.18,0-6.91,5.93-10.88,14.21-10.88,5.68,0,11.28,2.8,12.72,8.41l-8.87,2.15c-.39-1.57-1.83-2.41-3.78-2.41s-4,.58-4,2.41c0,2.15,3.58,2.28,6.19,2.8C347.26,33.19,350.59,35.6,350.59,41.67Z"/><path class="cls-1" d="M355.48,18.85H366V51.9H355.48Zm-.26-9.26a5.54,5.54,0,0,1,11.08,0,5.54,5.54,0,1,1-11.08,0Z"/><path class="cls-1" d="M396,34.24a7,7,0,1,0-14.08,0,7,7,0,1,0,14.08,0Zm11-15.39V49c0,9.39-6.78,16-18.52,16-7.17,0-13.5-2.81-16-6.92l7.89-4.69c1,1.56,3.91,3.06,7.69,3.06,6.46,0,8.41-3.52,8.41-8.67v-1.5c-1.82,2.35-4.69,4-9.25,4-10.11,0-15.91-7.49-15.91-16.16S377,18.07,387.17,18.07c4.5,0,7.43,1.82,9.25,4.36V18.85Z"/><path class="cls-1" d="M445.91,31.24V51.9H435.28V34.1c0-3.78-2.34-5.67-5.28-5.67s-5.28,2-5.28,5.67V51.9H414.16v-33h10.56v3.06a11.49,11.49,0,0,1,9.06-3.84C442,18.07,445.91,24.59,445.91,31.24Z"/><polygon class="cls-2" points="53.37 4.5 53.37 50.14 42.16 50.14 42.16 23.02 30.29 42.64 26.18 42.64 14.25 23.02 14.25 50.14 3.1 50.14 3.1 4.5 14.84 4.5 28.2 26.6 41.57 4.5 53.37 4.5"/><path class="cls-2" d="M83.75,33.64a7.08,7.08,0,1,0-14.15,0,7.08,7.08,0,0,0,14.15,0Zm10.63,0C94.38,43.42,87,51,76.64,51S58.91,43.42,58.91,33.64,66.34,16.3,76.64,16.3,94.38,23.8,94.38,33.64Z"/><path class="cls-2" d="M111.66,25.82V36.25c0,3.46,1.24,5.22,4.5,5.22a13.41,13.41,0,0,0,2-.2v8.87a13.61,13.61,0,0,1-4.57.59c-10.17,0-12.52-6.91-12.52-13.37V25.82H97V17.08h4.1V10.17h10.57v6.91h6.52v8.74Z"/><path class="cls-2" d="M125,17.08h10.56V50.14H125Zm-.26-9.26a5.55,5.55,0,0,1,11.09,0,5.55,5.55,0,1,1-11.09,0Z"/><path class="cls-2" d="M165.64,33.64a7.08,7.08,0,1,0-14.15,0,7.08,7.08,0,0,0,14.15,0Zm10.63,0c0,9.78-7.37,17.35-17.74,17.35S140.8,43.42,140.8,33.64s7.43-17.34,17.73-17.34S176.27,23.8,176.27,33.64Z"/><path class="cls-2" d="M213.24,29.47V50.14H202.61V32.34c0-3.78-2.35-5.67-5.28-5.67s-5.28,2-5.28,5.67v17.8H181.48V17.08h10.57v3.07a11.5,11.5,0,0,1,9.06-3.85C209.32,16.3,213.24,22.82,213.24,29.47Z"/><path class="cls-2" d="M266.76,27.32c0-8.09-5.6-12.26-13.1-12.26H248.9V39.64h4.76C261.16,39.64,266.76,35.4,266.76,27.32Zm11.15,0c0,14-9,22.82-24.25,22.82h-16V4.5h16C268.92,4.5,277.91,13.43,277.91,27.32Z"/><path class="cls-2" d="M306.41,30.45c-.79-3.85-3.53-5.61-7.18-5.61a7.13,7.13,0,0,0-7.1,5.61ZM316,36.84H292.13c1.1,3.85,4.23,5.61,8.28,5.61a8.93,8.93,0,0,0,6.78-2.87L314.62,44c-2.67,4.11-7.76,7-14.21,7-11.15,0-18.59-7-18.59-17.35A17.07,17.07,0,0,1,298.91,16.3C308.69,16.3,317.29,23,316,36.84Z"/><path class="cls-2" d="M348,39.9c0,7-5.15,11.09-14.8,11.09-6.65,0-13-2.15-14.41-8l9.59-3c.39,1.31,1.69,2.68,4.69,2.68,2.22,0,4-.66,4-2.35,0-2.28-3.46-2.13-7.37-3-6.33-1.4-9.78-3.72-9.78-10.17,0-6.91,5.93-10.89,14.21-10.89,5.68,0,11.28,2.8,12.72,8.41L338,26.86c-.39-1.56-1.82-2.41-3.78-2.41s-4,.59-4,2.41c0,2.15,3.58,2.28,6.19,2.81C344.68,31.43,348,33.84,348,39.9Z"/><path class="cls-2" d="M352.89,17.08h10.56V50.14H352.89Zm-.26-9.26a5.54,5.54,0,1,1,5.54,5.61A5.54,5.54,0,0,1,352.63,7.82Z"/><path class="cls-2" d="M393.44,32.47a7,7,0,0,0-14.08,0,7,7,0,0,0,14.08,0Zm11-15.39V47.27c0,9.39-6.78,16-18.52,16-7.17,0-13.49-2.8-16-6.91l7.89-4.7c1,1.57,3.91,3.07,7.7,3.07,6.45,0,8.41-3.52,8.41-8.67V44.6c-1.83,2.34-4.7,4-9.26,4-10.11,0-15.91-7.5-15.91-16.17s5.74-16.17,15.91-16.17c4.5,0,7.43,1.83,9.26,4.37V17.08Z"/><path class="cls-2" d="M443.32,29.47V50.14H432.69V32.34c0-3.78-2.34-5.67-5.28-5.67s-5.28,2-5.28,5.67v17.8H411.57V17.08h10.56v3.07a11.5,11.5,0,0,1,9.06-3.85C439.41,16.3,443.32,22.82,443.32,29.47Z"/><path class="cls-3" d="M50.78,2.73V48.37H39.57V21.25L27.7,40.88H23.59L11.66,21.25V48.37H.51V2.73H12.25L25.61,24.84,39,2.73Z"/><path class="cls-3" d="M81.16,31.88a7.08,7.08,0,1,0-14.15,0,7.08,7.08,0,0,0,14.15,0Zm10.63,0c0,9.78-7.37,17.34-17.73,17.34S56.32,41.66,56.32,31.88s7.43-17.34,17.74-17.34S91.79,22,91.79,31.88Z"/><path class="cls-3" d="M109.07,24.05V34.49c0,3.45,1.24,5.21,4.5,5.21a14.94,14.94,0,0,0,2-.19v8.86A13.35,13.35,0,0,1,111,49c-10.17,0-12.51-6.91-12.51-13.37V24.05H94.4V15.32h4.11V8.41h10.56v6.91h6.52v8.73Z"/><path class="cls-3" d="M122.43,15.32H133V48.37H122.43Zm-.26-9.26a5.55,5.55,0,0,1,11.09,0,5.55,5.55,0,1,1-11.09,0Z"/><path class="cls-3" d="M163.05,31.88a7.08,7.08,0,1,0-14.15,0,7.08,7.08,0,0,0,14.15,0Zm10.63,0c0,9.78-7.37,17.34-17.73,17.34s-17.74-7.56-17.74-17.34S145.64,14.54,156,14.54,173.68,22,173.68,31.88Z"/><path class="cls-3" d="M210.65,27.71V48.37H200V30.57c0-3.78-2.35-5.67-5.28-5.67s-5.28,2-5.28,5.67v17.8H178.9v-33h10.56v3.06a11.49,11.49,0,0,1,9.06-3.84C206.74,14.54,210.65,21.05,210.65,27.71Z"/><path class="cls-3" d="M264.18,25.55c0-8.08-5.61-12.25-13.11-12.25h-4.76V37.88h4.76C258.57,37.88,264.18,33.64,264.18,25.55Zm11.15,0c0,14-9,22.82-24.26,22.82h-16V2.73h16C266.33,2.73,275.33,11.67,275.33,25.55Z"/><path class="cls-3" d="M303.82,28.68c-.78-3.84-3.52-5.6-7.17-5.6a7.12,7.12,0,0,0-7.11,5.6Zm9.58,6.39H289.54c1.11,3.85,4.24,5.61,8.28,5.61a8.93,8.93,0,0,0,6.78-2.87L312,42.25c-2.67,4.1-7.76,7-14.21,7-11.15,0-18.58-7-18.58-17.34a17.07,17.07,0,0,1,17.08-17.34C306.1,14.54,314.71,21.19,313.4,35.07Z"/><path class="cls-3" d="M345.41,38.14c0,7-5.15,11.08-14.8,11.08-6.65,0-13-2.15-14.41-7.95l9.59-3c.39,1.3,1.69,2.67,4.69,2.67,2.22,0,4-.65,4-2.35,0-2.28-3.46-2.15-7.37-3-6.32-1.43-9.78-3.71-9.78-10.17,0-6.91,5.94-10.88,14.22-10.88,5.67,0,11.28,2.8,12.71,8.41l-8.87,2.15c-.39-1.57-1.82-2.42-3.78-2.42s-4,.59-4,2.42c0,2.15,3.58,2.28,6.19,2.8C342.09,29.66,345.41,32.07,345.41,38.14Z"/><path class="cls-3" d="M350.3,15.32h10.57V48.37H350.3ZM350,6.06a5.55,5.55,0,0,1,11.09,0,5.55,5.55,0,1,1-11.09,0Z"/><path class="cls-3" d="M390.86,30.71a7,7,0,1,0-14.09,0,7,7,0,0,0,14.09,0Zm10.95-15.39V45.51c0,9.38-6.78,16-18.52,16-7.17,0-13.49-2.81-16-6.92l7.89-4.69c1.05,1.56,3.91,3.06,7.7,3.06,6.45,0,8.41-3.52,8.41-8.67v-1.5c-1.83,2.35-4.7,4-9.26,4-10.11,0-15.91-7.49-15.91-16.16S371.82,14.54,382,14.54c4.5,0,7.43,1.82,9.26,4.36V15.32Z"/><path class="cls-3" d="M440.73,27.71V48.37H430.11V30.57c0-3.78-2.35-5.67-5.29-5.67s-5.28,2-5.28,5.67v17.8H409v-33h10.56v3.06a11.5,11.5,0,0,1,9.07-3.84C436.82,14.54,440.73,21.05,440.73,27.71Z"/><path class="cls-4" d="M50.77,2.72V48.36H39.56V21.23L27.69,40.86H23.58L11.65,21.23V48.36H.5V2.72H12.24L25.6,24.82,39,2.72Z"/><path class="cls-4" d="M91.78,31.86c0,9.78-7.37,17.34-17.74,17.34S56.31,41.64,56.31,31.86,63.74,14.52,74,14.52,91.78,22,91.78,31.86Zm-10.63,0a7.08,7.08,0,1,0-14.15,0,7.08,7.08,0,0,0,14.15,0Z"/><path class="cls-4" d="M109.06,24V34.47c0,3.46,1.24,5.22,4.5,5.22a13.41,13.41,0,0,0,2-.2v8.87a13.65,13.65,0,0,1-4.57.58c-10.17,0-12.52-6.91-12.52-13.36V24h-4.1V15.3h4.1V8.39h10.57V15.3h6.52V24Z"/><path class="cls-4" d="M122.16,6a5.55,5.55,0,0,1,11.09,0,5.55,5.55,0,1,1-11.09,0Zm.26,9.26H133V48.36H122.42Z"/><path class="cls-4" d="M173.67,31.86c0,9.78-7.37,17.34-17.74,17.34S138.2,41.64,138.2,31.86s7.43-17.34,17.73-17.34S173.67,22,173.67,31.86Zm-10.63,0a7.08,7.08,0,1,0-14.15,0,7.08,7.08,0,0,0,14.15,0Z"/><path class="cls-4" d="M210.64,27.69V48.36H200V30.56c0-3.78-2.35-5.68-5.28-5.68s-5.28,2-5.28,5.68v17.8H178.88V15.3h10.57v3.06a11.49,11.49,0,0,1,9.06-3.84C206.72,14.52,210.64,21,210.64,27.69Z"/><path class="cls-4" d="M275.31,25.54c0,14-9,22.82-24.25,22.82h-16V2.72h16C266.32,2.72,275.31,11.65,275.31,25.54Zm-11.15,0c0-8.09-5.6-12.26-13.1-12.26H246.3V37.86h4.76C258.56,37.86,264.16,33.62,264.16,25.54Z"/><path class="cls-4" d="M313.39,35.06H289.53c1.1,3.84,4.23,5.6,8.28,5.6a9,9,0,0,0,6.78-2.87L312,42.23c-2.67,4.11-7.76,7-14.21,7-11.15,0-18.59-7-18.59-17.34a17.07,17.07,0,0,1,17.09-17.34C306.09,14.52,314.69,21.17,313.39,35.06Zm-9.58-6.39c-.79-3.85-3.53-5.61-7.18-5.61a7.12,7.12,0,0,0-7.1,5.61Z"/><path class="cls-4" d="M345.4,38.12c0,7-5.15,11.08-14.8,11.08-6.65,0-13-2.15-14.41-8l9.59-3c.39,1.31,1.69,2.67,4.69,2.67,2.22,0,4-.65,4-2.34,0-2.29-3.46-2.15-7.37-3-6.32-1.44-9.78-3.72-9.78-10.17,0-6.92,5.93-10.89,14.21-10.89,5.68,0,11.28,2.8,12.72,8.41l-8.87,2.15c-.39-1.56-1.82-2.41-3.78-2.41s-4,.58-4,2.41c0,2.15,3.58,2.28,6.19,2.8C342.08,29.64,345.4,32.06,345.4,38.12Z"/><path class="cls-4" d="M350,6a5.54,5.54,0,1,1,5.54,5.61A5.54,5.54,0,0,1,350,6Zm.26,9.26h10.56V48.36H350.29Z"/><path class="cls-4" d="M401.8,15.3V45.49c0,9.39-6.78,16-18.52,16-7.17,0-13.49-2.81-16-6.91l7.89-4.7c1,1.57,3.91,3.07,7.7,3.07,6.45,0,8.41-3.52,8.41-8.68v-1.5c-1.83,2.35-4.7,4-9.26,4-10.11,0-15.91-7.5-15.91-16.17S371.81,14.52,382,14.52c4.5,0,7.43,1.82,9.26,4.37V15.3Zm-11,15.39a7,7,0,1,0-14.08,0,7,7,0,1,0,14.08,0Z"/><path class="cls-4" d="M440.72,27.69V48.36H430.09V30.56c0-3.78-2.34-5.68-5.28-5.68s-5.28,2-5.28,5.68v17.8H409V15.3h10.56v3.06a11.49,11.49,0,0,1,9.06-3.84C436.81,14.52,440.72,21,440.72,27.69Z"/></g></g></svg>