<svg xmlns="http://www.w3.org/2000/svg" viewBox="0 0 152.82 152.82"><defs><style>.cls-1{fill:none;stroke:#80e1ff;stroke-miterlimit:10;stroke-width:2px;}.cls-2{fill:#80e1ff;}.cls-3{fill:#407180;}</style></defs><g id="Calque_2" data-name="Calque 2"><g id="Calque_1-2" data-name="Calque 1"><g id="Calque_2-2" data-name="Calque 2"><g id="Calque_2-2-2" data-name="Calque 2-2"><circle class="cls-1" cx="76.41" cy="76.41" r="75.41"/><path class="cls-2" d="M80.64,71a11.3,11.3,0,1,1-9,13.18,11.16,11.16,0,0,1,0-4.31A11.38,11.38,0,0,1,80.64,71Zm5.25-7.51a18.83,18.83,0,1,0,15.82,15.61A18.83,18.83,0,0,0,85.89,63.46ZM56.2,70.76a3.82,3.82,0,1,0-3.88,3.76h.06a3.79,3.79,0,0,0,3.82-3.76ZM94.83,49.35l1.53,2.25a17.94,17.94,0,0,0,14.88,7.87h3.3a2.64,2.64,0,0,1,2.65,2.62v43.68a2.64,2.64,0,0,1-2.65,2.62H43.6A2.63,2.63,0,0,1,41,105.78h0V62.09a2.62,2.62,0,0,1,2.64-2.62H54.51A17.92,17.92,0,0,0,69.4,51.6l1.52-2.25a2.66,2.66,0,0,1,2.21-1.17h19.5A2.67,2.67,0,0,1,94.83,49.35Zm1.57-8.69H68.85a2.76,2.76,0,0,0-2.29,1.25l-3.73,5.52a10.39,10.39,0,0,1-8.63,4.48H35.82a2.74,2.74,0,0,0-2.75,2.72v58.54a2.73,2.73,0,0,0,2.72,2.74h86a2.73,2.73,0,0,0,2.75-2.71h0V54.66a2.75,2.75,0,0,0-2.73-2.75H111a10.4,10.4,0,0,1-8.63-4.55l-3.7-5.45A2.79,2.79,0,0,0,96.4,40.66ZM51.88,48.18H41.45a.5.5,0,0,1-.5-.5V44.91a.5.5,0,0,1,.5-.5H51.88a.5.5,0,0,1,.5.5v2.76a.51.51,0,0,1-.49.51Z"/><path class="cls-3" d="M78.61,69.09a11.3,11.3,0,1,1-9,13.18,11.32,11.32,0,0,1,9-13.18Zm5.25-7.51A18.8,18.8,0,1,0,99.67,77.19,18.83,18.83,0,0,0,83.86,61.58Zm-29.7,7.33a3.81,3.81,0,1,0-3.86,3.76h.05A3.79,3.79,0,0,0,54.16,68.91ZM92.8,47.47l1.52,2.25a18,18,0,0,0,14.89,7.87h3.3a2.62,2.62,0,0,1,2.64,2.6h0v43.71a2.63,2.63,0,0,1-2.64,2.62H41.56a2.62,2.62,0,0,1-2.64-2.62h0V60.2a2.61,2.61,0,0,1,2.63-2.61H52.48a18,18,0,0,0,14.89-7.87l1.52-2.25A2.66,2.66,0,0,1,71.1,46.3H90.6A2.67,2.67,0,0,1,92.8,47.47Zm1.57-8.7H66.82A2.75,2.75,0,0,0,64.53,40L60.8,45.5a10.4,10.4,0,0,1-8.63,4.56H33.79A2.73,2.73,0,0,0,31,52.75v58.57A2.73,2.73,0,0,0,33.77,114h86a2.73,2.73,0,0,0,2.75-2.71h0V52.77a2.73,2.73,0,0,0-2.75-2.71H109a10.4,10.4,0,0,1-8.62-4.55L96.67,40A2.78,2.78,0,0,0,94.37,38.77ZM49.85,46.3H39.42a.5.5,0,0,1-.5-.5V43a.5.5,0,0,1,.5-.5H49.85a.5.5,0,0,1,.5.5V45.8A.5.5,0,0,1,49.85,46.3Z"/><path d="M76.57,67.21a11.3,11.3,0,1,1-9,13.18,11.32,11.32,0,0,1,9-13.18Zm5.26-7.51A18.8,18.8,0,1,0,97.64,75.31,18.83,18.83,0,0,0,81.83,59.7ZM52.13,67a3.81,3.81,0,1,0-3.86,3.76h0A3.79,3.79,0,0,0,52.13,67ZM90.77,45.58l1.52,2.26a17.94,17.94,0,0,0,14.89,7.87h3.29a2.63,2.63,0,0,1,2.65,2.61h0V102a2.64,2.64,0,0,1-2.65,2.62H39.53A2.64,2.64,0,0,1,36.88,102V58.32a2.63,2.63,0,0,1,2.65-2.61H50.45a18,18,0,0,0,14.89-7.87l1.52-2.26A2.67,2.67,0,0,1,69,44.42H88.57A2.66,2.66,0,0,1,90.77,45.58Zm1.57-8.67H64.78a2.76,2.76,0,0,0-2.28,1.21l-3.73,5.52a10.4,10.4,0,0,1-8.63,4.56H31.75A2.73,2.73,0,0,0,29,50.91v58.55a2.73,2.73,0,0,0,2.74,2.71h86a2.73,2.73,0,0,0,2.74-2.71V50.91a2.73,2.73,0,0,0-2.74-2.71H107a10.36,10.36,0,0,1-8.62-4.56l-3.73-5.52A2.79,2.79,0,0,0,92.34,36.91ZM47.82,44.42H37.38a.5.5,0,0,1-.5-.5V41.16a.5.5,0,0,1,.5-.5H47.82a.5.5,0,0,1,.5.5v2.75a.51.51,0,0,1-.49.51Z"/></g></g></g></g></svg>