<svg xmlns="http://www.w3.org/2000/svg" viewBox="0 0 407.12 62.1"><defs><style>.cls-1{fill:#2111ed;}.cls-2{fill:#2269f6;}.cls-3{fill:#22c1ff;}</style></defs><title>Photographie</title><g id="Calque_2" data-name="Calque 2"><g id="Calque_1-2" data-name="Calque 1"><path class="cls-1" d="M25.69,20.58c0-3.44-2.43-5.67-6.64-5.67H13.32V26.26h5.73C23,26.26,25.69,24.48,25.69,20.58Zm11.09,0c0,10.53-8,15.44-17.73,15.44H13.32v13.2H2.41V4.58H19.05C30.15,4.58,36.78,11,36.78,20.58Z"/><path class="cls-1" d="M73.25,29V49.22H62.86V31.81c0-3.7-2.3-5.55-5.17-5.55s-5.16,2-5.16,5.55V49.22H42.2V4.58H52.53v15.3a11.24,11.24,0,0,1,8.86-3.76C69.49,16.12,73.25,22.5,73.25,29Z"/><path class="cls-1" d="M102.65,33.08a6.92,6.92,0,1,0-13.84,0,6.92,6.92,0,0,0,13.84,0Zm10.39,0c0,9.57-7.2,17-17.34,17s-17.35-7.4-17.35-17,7.27-17,17.35-17S113,23.46,113,33.08Z"/><path class="cls-1" d="M129.94,25.43v10.2c0,3.38,1.21,5.11,4.4,5.11a12.66,12.66,0,0,0,2-.2v8.68a13.31,13.31,0,0,1-4.46.57c-9.95,0-12.24-6.76-12.24-13.07V25.43h-4V16.89h4V10.13h10.33v6.76h6.37v8.54Z"/><path class="cls-1" d="M164.75,33.08a6.92,6.92,0,1,0-13.83,0,6.92,6.92,0,0,0,13.83,0Zm10.4,0c0,9.57-7.21,17-17.35,17s-17.34-7.4-17.34-17,7.27-17,17.34-17S175.15,23.46,175.15,33.08Z"/><path class="cls-1" d="M202.56,31.94a6.89,6.89,0,1,0-13.77,0,6.89,6.89,0,0,0,13.77,0Zm10.72-15V46.41c0,9.18-6.63,15.69-18.11,15.69-7,0-13.2-2.74-15.69-6.76l7.72-4.59c1,1.53,3.82,3,7.52,3,6.31,0,8.23-3.44,8.23-8.48V43.8c-1.79,2.29-4.59,4-9.06,4-9.88,0-15.56-7.33-15.56-15.81s5.61-15.82,15.56-15.82c4.4,0,7.27,1.79,9.06,4.27v-3.5Z"/><path class="cls-1" d="M240.82,16.12v11.1c-9.18-1.41-10.2,3.82-10.2,9.24V49.22H220.29V16.89h10.33V21.8A12.3,12.3,0,0,1,240.82,16.12Z"/><path class="cls-1" d="M262.63,35h-.83c-5.17,0-8.61,1-8.61,4.21,0,2.35,1.91,3.25,4.15,3.25a7,7,0,0,0,5.29-2.3ZM273,29.13V49.22H262.63v-3c-1.72,2.49-5.55,3.83-8.86,3.83-4.34,0-11-1.66-11-9.51,0-10.71,13.9-10.71,16.07-10.71h3.83V29.7c0-3.06-1.53-5.22-5.29-5.22a10.15,10.15,0,0,0-6.13,2l-6.76-4.6c3.51-3.69,8.36-5.8,14.54-5.8C269.32,16.12,273,21.41,273,29.13Z"/><path class="cls-1" d="M304.52,33.08a6.92,6.92,0,1,0-13.84,0,6.92,6.92,0,0,0,13.84,0Zm10.46,0c0,8.48-5.49,17-15.5,17-4.4,0-7.27-1.66-9.12-4V61.52H280V16.89h10.39v3.19c1.85-2.3,4.72-4,9.12-4C309.49,16.12,315,24.6,315,33.08Z"/><path class="cls-1" d="M351.13,29V49.22H340.74V31.81c0-3.7-2.3-5.55-5.17-5.55s-5.16,2-5.16,5.55V49.22H320.08V4.58h10.33v15.3a11.24,11.24,0,0,1,8.86-3.76C347.37,16.12,351.13,22.5,351.13,29Z"/><path class="cls-1" d="M358.14,16.89h10.33V49.22H358.14Zm-.25-9.06a5.42,5.42,0,0,1,10.84,0,5.42,5.42,0,1,1-10.84,0Z"/><path class="cls-1" d="M397.61,30c-.76-3.76-3.44-5.48-7-5.48a7,7,0,0,0-7,5.48ZM407,36.21H383.65c1.08,3.76,4.14,5.48,8.1,5.48a8.76,8.76,0,0,0,6.63-2.8l7.27,4.33c-2.62,4-7.59,6.83-13.9,6.83-10.91,0-18.18-6.89-18.18-17a16.7,16.7,0,0,1,16.71-17C399.85,16.12,408.26,22.63,407,36.21Z"/><path class="cls-2" d="M24.48,19.38c0-3.44-2.42-5.68-6.63-5.68H12.11V25.05h5.74C21.8,25.05,24.48,23.27,24.48,19.38Zm11.1,0c0,10.52-8,15.43-17.73,15.43H12.11V48H1.21V3.37H17.85C28.94,3.37,35.58,9.75,35.58,19.38Z"/><path class="cls-2" d="M72.05,27.8V48H61.65V30.6c0-3.7-2.29-5.55-5.16-5.55s-5.17,2-5.17,5.55V48H41V3.37H51.32V18.68a11.23,11.23,0,0,1,8.87-3.76C68.29,14.92,72.05,21.29,72.05,27.8Z"/><path class="cls-2" d="M101.44,31.88a6.92,6.92,0,1,0-13.84,0,6.92,6.92,0,0,0,13.84,0Zm10.4,0c0,9.56-7.21,17-17.35,17s-17.34-7.4-17.34-17,7.27-17,17.34-17S111.84,22.25,111.84,31.88Z"/><path class="cls-2" d="M128.73,24.23v10.2c0,3.38,1.21,5.1,4.4,5.1a14.42,14.42,0,0,0,2-.19V48a13.31,13.31,0,0,1-4.46.57c-10,0-12.25-6.75-12.25-13.07V24.23h-4V15.68h4V8.92h10.33v6.76h6.38v8.55Z"/><path class="cls-2" d="M163.55,31.88a6.92,6.92,0,1,0-13.84,0,6.92,6.92,0,0,0,13.84,0Zm10.39,0c0,9.56-7.2,17-17.34,17s-17.35-7.4-17.35-17,7.27-17,17.35-17S173.94,22.25,173.94,31.88Z"/><path class="cls-2" d="M201.36,30.73a6.89,6.89,0,0,0-13.78,0,6.89,6.89,0,0,0,13.78,0Zm10.71-15V45.21c0,9.18-6.63,15.68-18.11,15.68-7,0-13.2-2.74-15.68-6.76L186,49.54c1,1.53,3.83,3,7.53,3,6.31,0,8.22-3.45,8.22-8.48V42.59c-1.78,2.3-4.59,3.95-9.05,3.95-9.89,0-15.56-7.33-15.56-15.81s5.61-15.81,15.56-15.81c4.4,0,7.27,1.78,9.05,4.27V15.68Z"/><path class="cls-2" d="M239.62,14.92V26c-9.19-1.4-10.21,3.83-10.21,9.25V48H219.08V15.68h10.33v4.91A12.34,12.34,0,0,1,239.62,14.92Z"/><path class="cls-2" d="M261.42,33.79h-.83c-5.16,0-8.61,1-8.61,4.21,0,2.36,1.92,3.25,4.15,3.25A7,7,0,0,0,261.42,39Zm10.33-5.87V48H261.42V45c-1.72,2.49-5.55,3.83-8.86,3.83-4.34,0-11-1.66-11-9.5,0-10.71,13.9-10.71,16.07-10.71h3.82V28.5c0-3.06-1.53-5.23-5.29-5.23a10.12,10.12,0,0,0-6.12,2l-6.76-4.59c3.51-3.7,8.35-5.8,14.54-5.8C268.12,14.92,271.75,20.21,271.75,27.92Z"/><path class="cls-2" d="M303.31,31.88a6.92,6.92,0,1,0-13.83,0,6.92,6.92,0,0,0,13.83,0Zm10.46,0c0,8.48-5.48,17-15.49,17-4.4,0-7.27-1.66-9.12-4V60.32h-10.4V15.68h10.4v3.19c1.85-2.3,4.72-4,9.12-4C308.29,14.92,313.77,23.4,313.77,31.88Z"/><path class="cls-2" d="M349.93,27.8V48h-10.4V30.6c0-3.7-2.29-5.55-5.16-5.55s-5.17,2-5.17,5.55V48H318.87V3.37H329.2V18.68a11.23,11.23,0,0,1,8.87-3.76C346.16,14.92,349.93,21.29,349.93,27.8Z"/><path class="cls-2" d="M356.94,15.68h10.33V48H356.94Zm-.26-9a5.42,5.42,0,1,1,10.84,0,5.42,5.42,0,1,1-10.84,0Z"/><path class="cls-2" d="M396.41,28.75c-.77-3.76-3.45-5.48-7-5.48a7,7,0,0,0-6.95,5.48ZM405.78,35H382.44c1.09,3.76,4.15,5.49,8.1,5.49a8.74,8.74,0,0,0,6.63-2.81L404.44,42c-2.61,4-7.59,6.82-13.9,6.82-10.9,0-18.17-6.89-18.17-17a16.69,16.69,0,0,1,16.7-17C398.64,14.92,407.06,21.42,405.78,35Z"/><path class="cls-3" d="M23.27,18.17c0-3.44-2.42-5.67-6.63-5.67H10.9V23.85h5.74C20.6,23.85,23.27,22.06,23.27,18.17Zm11.1,0c0,10.53-8,15.44-17.73,15.44H10.9V46.8H0V2.17H16.64C27.74,2.17,34.37,8.54,34.37,18.17Z"/><path class="cls-3" d="M70.84,26.59V46.8H60.45V29.4c0-3.7-2.3-5.55-5.17-5.55s-5.16,2-5.16,5.55V46.8H39.79V2.17H50.12v15.3A11.24,11.24,0,0,1,59,13.71C67.08,13.71,70.84,20.09,70.84,26.59Z"/><path class="cls-3" d="M100.24,30.67a6.92,6.92,0,1,0-13.84,0,6.92,6.92,0,0,0,13.84,0Zm10.39,0c0,9.57-7.21,17-17.34,17s-17.35-7.39-17.35-17,7.27-17,17.35-17S110.63,21,110.63,30.67Z"/><path class="cls-3" d="M127.53,23v10.2c0,3.38,1.21,5.1,4.4,5.1a12.84,12.84,0,0,0,2-.19V46.8a13,13,0,0,1-4.46.58c-10,0-12.24-6.76-12.24-13.07V23h-4V14.48h4V7.72h10.33v6.76h6.37V23Z"/><path class="cls-3" d="M162.34,30.67a6.92,6.92,0,1,0-13.84,0,6.92,6.92,0,0,0,13.84,0Zm10.4,0c0,9.57-7.21,17-17.35,17s-17.34-7.39-17.34-17,7.27-17,17.34-17S172.74,21,172.74,30.67Z"/><path class="cls-3" d="M200.15,29.52a6.89,6.89,0,0,0-13.77,0,6.89,6.89,0,1,0,13.77,0Zm10.72-15V44c0,9.18-6.64,15.69-18.11,15.69-7,0-13.2-2.75-15.69-6.76l7.72-4.6c1,1.54,3.82,3,7.52,3,6.31,0,8.23-3.44,8.23-8.48V41.38c-1.79,2.3-4.6,4-9.06,4-9.88,0-15.56-7.34-15.56-15.82s5.61-15.81,15.56-15.81c4.4,0,7.27,1.79,9.06,4.27v-3.5Z"/><path class="cls-3" d="M238.41,13.71v11.1c-9.18-1.41-10.2,3.82-10.2,9.24V46.8H217.88V14.48h10.33v4.91A12.29,12.29,0,0,1,238.41,13.71Z"/><path class="cls-3" d="M260.22,32.58h-.83c-5.17,0-8.61,1-8.61,4.21,0,2.36,1.91,3.26,4.14,3.26a7,7,0,0,0,5.3-2.3Zm10.33-5.86V46.8H260.22v-3c-1.73,2.48-5.55,3.82-8.87,3.82-4.33,0-11-1.65-11-9.5,0-10.71,13.9-10.71,16.07-10.71h3.83v-.13c0-3.06-1.53-5.23-5.3-5.23a10.14,10.14,0,0,0-6.12,2L242,19.51c3.51-3.7,8.36-5.8,14.54-5.8C266.91,13.71,270.55,19,270.55,26.72Z"/><path class="cls-3" d="M302.11,30.67a6.92,6.92,0,1,0-13.84,0,6.92,6.92,0,0,0,13.84,0Zm10.46,0c0,8.48-5.49,17-15.5,17-4.4,0-7.27-1.65-9.12-4V59.11H277.56V14.48H288v3.18c1.85-2.29,4.72-3.95,9.12-3.95C307.08,13.71,312.57,22.19,312.57,30.67Z"/><path class="cls-3" d="M348.72,26.59V46.8H338.33V29.4c0-3.7-2.3-5.55-5.17-5.55s-5.16,2-5.16,5.55V46.8H317.67V2.17H328v15.3a11.24,11.24,0,0,1,8.86-3.76C345,13.71,348.72,20.09,348.72,26.59Z"/><path class="cls-3" d="M355.73,14.48h10.33V46.8H355.73Zm-.25-9.06a5.42,5.42,0,0,1,10.84,0,5.42,5.42,0,1,1-10.84,0Z"/><path class="cls-3" d="M395.2,27.55c-.76-3.76-3.44-5.49-7-5.49a7,7,0,0,0-6.95,5.49Zm9.37,6.25H381.24c1.08,3.76,4.14,5.48,8.09,5.48A8.73,8.73,0,0,0,396,36.47l7.27,4.34c-2.62,4-7.59,6.82-13.91,6.82-10.9,0-18.17-6.88-18.17-17a16.7,16.7,0,0,1,16.71-17C397.43,13.71,405.85,20.21,404.57,33.8Z"/></g></g></svg>