<svg xmlns="http://www.w3.org/2000/svg" viewBox="0 0 407.96 107.39"><defs><style>.cls-1,.cls-4{fill:#ef4d29;}.cls-2{fill:#864ad1;}.cls-3{fill:#bb4c7d;}.cls-4{font-size:24.51px;font-family:MADETOMMY-Light, MADE TOMMY;font-weight:300;}</style></defs><g id="Calque_2" data-name="Calque 2"><g id="Calque_1-2" data-name="Calque 1"><g id="Calque_2-2" data-name="Calque 2"><g id="Calque_1-2-2" data-name="Calque 1-2"><path class="cls-1" d="M42.76,61.18c0-5.4-3.8-8.9-10.4-8.9h-9V70.09h9C38.56,70.09,42.76,67.33,42.76,61.18Zm17.4,0c0,16.51-12.6,24.21-27.8,24.21h-9v20.7H6.25v-70H32.36C49.76,36.08,60.16,46.08,60.16,61.18Z"/><path class="cls-1" d="M102.76,80.79a10.85,10.85,0,1,0-21.7,0h0a10.85,10.85,0,0,0,21.7,0Zm16.3,0c0,15-11.3,26.6-27.2,26.6s-27.21-11.6-27.21-26.6,11.4-26.61,27.21-26.61S119.06,65.68,119.06,80.79Z"/><path class="cls-1" d="M159.26,54.18V71.59c-14.4-2.2-16,6-16,14.5v20h-16.2V55.38h16.2v7.7A19.36,19.36,0,0,1,159.26,54.18Z"/><path class="cls-1" d="M186.76,68.79v16c0,5.3,1.89,8,6.9,8a22.91,22.91,0,0,0,3.1-.3v13.6a20.71,20.71,0,0,1-7,.9c-15.61,0-19.21-10.6-19.21-20.5V68.79h-6.3V55.38h6.3V44.78h16.21v10.6h10V68.79Z"/><path class="cls-2" d="M225.25,55.38h9.9V68.79h-9.9v37.3H209V68.79h-6.2V55.38H209c0-9.4,3.2-21.8,19.2-21.8a39.18,39.18,0,0,1,7,.7v13.1a23.14,23.14,0,0,0-3-.2C226.85,47.18,225.25,50.08,225.25,55.38Z"/><path class="cls-2" d="M277.75,80.79a10.85,10.85,0,1,0-21.7,0h0a10.85,10.85,0,0,0,21.7,0Zm16.31,0c0,15-11.31,26.6-27.21,26.6s-27.2-11.6-27.2-26.6,11.4-26.61,27.2-26.61S294.06,65.68,294.06,80.79Z"/><path class="cls-2" d="M318.35,36.08v70h-16.3v-70Z"/><path class="cls-2" d="M329.35,55.38h16.2v50.71h-16.2Zm-.4-14.2a8.5,8.5,0,1,1,8.5,8.5A8.51,8.51,0,0,1,329,41.18Z"/><path class="cls-2" d="M391.65,80.79a10.85,10.85,0,1,0-21.7,0h0a10.85,10.85,0,1,0,21.7,0Zm16.3,0c0,15-11.3,26.6-27.2,26.6s-27.2-11.6-27.2-26.6,11.4-26.61,27.2-26.61S408,65.68,408,80.79Z"/><path class="cls-3" d="M40.61,59.51c0-5.4-3.8-8.9-10.4-8.9h-9v17.8h9C36.41,68.41,40.61,65.61,40.61,59.51Zm17.4,0c0,16.5-12.6,24.2-27.8,24.2h-9v20.7H4.11v-70h26.1C47.61,34.41,58,44.41,58,59.51Z"/><path class="cls-3" d="M100.61,79.11A10.85,10.85,0,1,0,89.77,90,10.85,10.85,0,0,0,100.61,79.11Zm16.3,0c0,15-11.3,26.6-27.2,26.6s-27.2-11.6-27.2-26.6,11.4-26.6,27.2-26.6S117,64,117,79.11Z"/><path class="cls-3" d="M157.11,52.51v17.4c-14.4-2.2-16,6-16,14.5v20H125V53.71h16.2v7.7A19.33,19.33,0,0,1,157.11,52.51Z"/><path class="cls-3" d="M184.61,67.11v16c0,5.3,1.9,8,6.9,8a22.91,22.91,0,0,0,3.1-.3v13.6a20.71,20.71,0,0,1-7,.9c-15.6,0-19.2-10.6-19.2-20.5V67.11h-6.3V53.71h6.3V43.11h16.2v10.6h10v13.4Z"/><path class="cls-3" d="M223.11,53.71H233v13.4h-9.9v37.3H206.8V67.11h-6.2V53.71h6.2c0-9.4,3.2-21.8,19.21-21.8a39.18,39.18,0,0,1,7,.7v13.1a23.14,23.14,0,0,0-3-.2C224.71,45.51,223.11,48.41,223.11,53.71Z"/><path class="cls-3" d="M275.61,79.11a10.85,10.85,0,1,0-21.7,0h0a10.85,10.85,0,0,0,21.7,0Zm16.3,0c0,15-11.3,26.6-27.2,26.6s-27.21-11.6-27.21-26.6,11.41-26.6,27.21-26.6S292,64,292,79.11Z"/><rect class="cls-3" x="299.9" y="34.41" width="16.3" height="70"/><path class="cls-3" d="M327.2,53.71h16.21v50.7H327.2Zm-.4-14.2a8.51,8.51,0,1,1,0,.82C326.79,40.06,326.79,39.78,326.8,39.51Z"/><path class="cls-3" d="M389.51,79.11a10.86,10.86,0,0,0-21.71-.66q0,.33,0,.66a10.86,10.86,0,0,0,21.71,0Zm16.3,0c0,15-11.3,26.6-27.2,26.6s-27.21-11.6-27.21-26.6,11.4-26.6,27.21-26.6,27.2,11.5,27.2,26.6Z"/><path class="cls-2" d="M38.46,57.83c0-5.4-3.8-8.9-10.4-8.9h-9v17.8h9C34.26,66.73,38.46,63.93,38.46,57.83Zm17.4,0c0,16.5-12.6,24.2-27.8,24.2h-9v20.7H2v-70h26.1C45.46,32.73,55.86,42.73,55.86,57.83Z"/><path class="cls-2" d="M98.46,77.43a10.85,10.85,0,1,0-21.7,0h0a10.85,10.85,0,0,0,21.7,0Zm16.3,0c0,15-11.3,26.6-27.2,26.6s-27.2-11.6-27.2-26.6,11.4-26.6,27.2-26.6S114.76,62.33,114.76,77.43Z"/><path class="cls-2" d="M155,50.83v17.4c-14.4-2.2-16,6-16,14.5v20h-16.2V52H139v7.7A19.31,19.31,0,0,1,155,50.83Z"/><path class="cls-2" d="M182.46,65.43v16c0,5.3,1.9,8,6.9,8a22.91,22.91,0,0,0,3.1-.3v13.6a20.71,20.71,0,0,1-7,.9c-15.6,0-19.2-10.6-19.2-20.5V65.43H160V52h6.3V41.43h16.2V52h10v13.4Z"/><path class="cls-1" d="M221,52h9.9v13.4H221v37.3h-16.3V65.43h-6.2V52h6.2c0-9.4,3.2-21.8,19.2-21.8a39.18,39.18,0,0,1,7,.7V44a23.14,23.14,0,0,0-3-.2C222.56,43.83,221,46.73,221,52Z"/><path class="cls-1" d="M273.46,77.43a10.85,10.85,0,1,0-21.7,0h0a10.85,10.85,0,0,0,21.7,0Zm16.3,0c0,15-11.3,26.6-27.2,26.6s-27.2-11.6-27.2-26.6,11.4-26.6,27.2-26.6S289.76,62.33,289.76,77.43Z"/><path class="cls-1" d="M314.06,32.73v70h-16.3v-70Z"/><path class="cls-1" d="M325.06,52h16.2v50.7h-16.2Zm-.4-14.2a8.5,8.5,0,1,1,8.5,8.5A8.51,8.51,0,0,1,324.66,37.83Z"/><path class="cls-1" d="M387.36,77.43a10.85,10.85,0,1,0-10.85,10.85A10.85,10.85,0,0,0,387.36,77.43Zm16.3,0c0,15-11.3,26.6-27.2,26.6s-27.2-11.6-27.2-26.6,11.4-26.6,27.2-26.6,27.2,11.5,27.2,26.6Z"/></g></g><text class="cls-4" transform="translate(0 20.83)">Nicolas Bariteau</text></g></g></svg>