<svg xmlns="http://www.w3.org/2000/svg" viewBox="0 0 406 103.71"><defs><style>.cls-1{fill:#ef4d29;}.cls-2{fill:#864ad1;}.cls-3{fill:#bb4c7d;}</style></defs><g id="Calque_2" data-name="Calque 2"><g id="Calque_1-2" data-name="Calque 1"><g id="Calque_2-2" data-name="Calque 2"><g id="Calque_1-2-2" data-name="Calque 1-2"><path class="cls-1" d="M40.8,57.5c0-5.4-3.8-8.9-10.4-8.9h-9V66.41h9C36.6,66.41,40.8,63.65,40.8,57.5Zm17.4,0C58.2,74,45.6,81.71,30.4,81.71h-9v20.7H4.29v-70H30.4C47.8,32.4,58.2,42.4,58.2,57.5Z"/><path class="cls-1" d="M100.8,77.11a10.85,10.85,0,1,0-21.7,0h0a10.85,10.85,0,0,0,21.7,0Zm16.3,0c0,15-11.3,26.6-27.2,26.6s-27.21-11.6-27.21-26.6S74.09,50.5,89.9,50.5,117.1,62,117.1,77.11Z"/><path class="cls-1" d="M157.3,50.5V67.91c-14.4-2.2-16,6-16,14.5v20H125.1V51.7h16.2v7.7A19.36,19.36,0,0,1,157.3,50.5Z"/><path class="cls-1" d="M184.8,65.11v16c0,5.3,1.89,8,6.9,8a22.91,22.91,0,0,0,3.1-.3v13.6a20.71,20.71,0,0,1-7,.9c-15.61,0-19.21-10.6-19.21-20.5V65.11h-6.3V51.7h6.3V41.1H184.8V51.7h10V65.11Z"/><path class="cls-2" d="M223.29,51.7h9.9V65.11h-9.9v37.3H207V65.11h-6.2V51.7H207c0-9.4,3.2-21.8,19.2-21.8a39.18,39.18,0,0,1,7,.7V43.7a23.14,23.14,0,0,0-3-.2C224.89,43.5,223.29,46.4,223.29,51.7Z"/><path class="cls-2" d="M275.79,77.11a10.85,10.85,0,1,0-21.7,0h0a10.85,10.85,0,0,0,21.7,0Zm16.31,0c0,15-11.31,26.6-27.21,26.6s-27.2-11.6-27.2-26.6,11.4-26.61,27.2-26.61S292.1,62,292.1,77.11Z"/><path class="cls-2" d="M316.39,32.4v70h-16.3v-70Z"/><path class="cls-2" d="M327.39,51.7h16.2v50.71h-16.2ZM327,37.5a8.5,8.5,0,1,1,8.5,8.5A8.51,8.51,0,0,1,327,37.5Z"/><path class="cls-2" d="M389.69,77.11a10.85,10.85,0,0,0-21.7,0h0a10.85,10.85,0,0,0,21.7,0Zm16.3,0c0,15-11.3,26.6-27.2,26.6s-27.2-11.6-27.2-26.6S363,50.5,378.79,50.5,406,62,406,77.11Z"/><path class="cls-3" d="M38.65,55.83c0-5.4-3.8-8.9-10.4-8.9h-9v17.8h9C34.45,64.73,38.65,61.93,38.65,55.83Zm17.4,0c0,16.5-12.6,24.2-27.8,24.2h-9v20.7H2.15v-70h26.1C45.65,30.73,56.05,40.73,56.05,55.83Z"/><path class="cls-3" d="M98.65,75.43A10.85,10.85,0,1,0,87.81,86.27,10.85,10.85,0,0,0,98.65,75.43Zm16.3,0c0,15-11.3,26.6-27.2,26.6s-27.2-11.6-27.2-26.6,11.4-26.6,27.2-26.6S115,60.33,115,75.43Z"/><path class="cls-3" d="M155.15,48.83v17.4c-14.4-2.2-16,6-16,14.5v20H123V50h16.2v7.7A19.33,19.33,0,0,1,155.15,48.83Z"/><path class="cls-3" d="M182.65,63.43v16c0,5.3,1.9,8,6.9,8a22.91,22.91,0,0,0,3.1-.3v13.6a20.71,20.71,0,0,1-7,.9c-15.6,0-19.2-10.6-19.2-20.5V63.43h-6.3V50h6.3V39.43h16.2V50h10v13.4Z"/><path class="cls-3" d="M221.15,50h9.9v13.4h-9.9v37.3H204.84V63.43h-6.2V50h6.2c0-9.4,3.2-21.8,19.21-21.8a39.18,39.18,0,0,1,7,.7V42a23.14,23.14,0,0,0-3-.2C222.75,41.83,221.15,44.73,221.15,50Z"/><path class="cls-3" d="M273.65,75.43a10.85,10.85,0,1,0-21.7,0h0a10.85,10.85,0,0,0,21.7,0Zm16.3,0c0,15-11.3,26.6-27.2,26.6s-27.21-11.6-27.21-26.6,11.41-26.6,27.21-26.6S290,60.33,290,75.43Z"/><rect class="cls-3" x="297.94" y="30.73" width="16.3" height="70"/><path class="cls-3" d="M325.24,50h16.21v50.7H325.24Zm-.4-14.2a8.51,8.51,0,1,1,0,.82C324.83,36.38,324.83,36.1,324.84,35.83Z"/><path class="cls-3" d="M387.55,75.43a10.86,10.86,0,0,0-21.71-.66q0,.33,0,.66a10.86,10.86,0,0,0,21.71,0Zm16.3,0c0,15-11.3,26.6-27.2,26.6s-27.21-11.6-27.21-26.6,11.4-26.6,27.21-26.6,27.2,11.5,27.2,26.6Z"/><path class="cls-2" d="M36.5,54.15c0-5.4-3.8-8.9-10.4-8.9h-9v17.8h9C32.3,63.05,36.5,60.25,36.5,54.15Zm17.4,0c0,16.5-12.6,24.2-27.8,24.2h-9v20.7H0v-70H26.1C43.5,29.05,53.9,39.05,53.9,54.15Z"/><path class="cls-2" d="M96.5,73.75a10.85,10.85,0,1,0-21.7,0h0a10.85,10.85,0,0,0,21.7,0Zm16.3,0c0,15-11.3,26.6-27.2,26.6s-27.2-11.6-27.2-26.6,11.4-26.6,27.2-26.6S112.8,58.65,112.8,73.75Z"/><path class="cls-2" d="M153,47.15v17.4c-14.4-2.2-16,6-16,14.5v20H120.8V48.35H137v7.7A19.31,19.31,0,0,1,153,47.15Z"/><path class="cls-2" d="M180.5,61.75v16c0,5.3,1.9,8,6.9,8a22.91,22.91,0,0,0,3.1-.3v13.6a20.71,20.71,0,0,1-7,.9c-15.6,0-19.2-10.6-19.2-20.5V61.75H158V48.35h6.3V37.75h16.2v10.6h10v13.4Z"/><path class="cls-1" d="M219,48.35h9.9v13.4H219v37.3H202.7V61.75h-6.2V48.35h6.2c0-9.4,3.2-21.8,19.2-21.8a39.18,39.18,0,0,1,7,.7v13.1a23.14,23.14,0,0,0-3-.2C220.6,40.15,219,43.05,219,48.35Z"/><path class="cls-1" d="M271.5,73.75a10.85,10.85,0,1,0-21.7,0h0a10.85,10.85,0,0,0,21.7,0Zm16.3,0c0,15-11.3,26.6-27.2,26.6s-27.2-11.6-27.2-26.6,11.4-26.6,27.2-26.6S287.8,58.65,287.8,73.75Z"/><path class="cls-1" d="M312.1,29.05v70H295.8v-70Z"/><path class="cls-1" d="M323.1,48.35h16.2v50.7H323.1Zm-.4-14.2a8.5,8.5,0,1,1,8.5,8.5A8.51,8.51,0,0,1,322.7,34.15Z"/><path class="cls-1" d="M385.4,73.75A10.85,10.85,0,1,0,374.55,84.6,10.85,10.85,0,0,0,385.4,73.75Zm16.3,0c0,15-11.3,26.6-27.2,26.6s-27.2-11.6-27.2-26.6,11.4-26.6,27.2-26.6,27.2,11.5,27.2,26.6Z"/></g></g><path class="cls-1" d="M13,0V17.15h-1.3L1.3,2.23V17.15H0V0H1.3L11.74,14.92V0Z"/><path class="cls-1" d="M16.64,1.25a.86.86,0,0,1,1.72,0,.86.86,0,1,1-1.72,0Zm.2,3.48h1.32V17.15H16.84Z"/><path class="cls-1" d="M31.67,13.92l1.17.61a6.42,6.42,0,0,1-5.39,2.94,6.52,6.52,0,0,1,0-13,6.41,6.41,0,0,1,5.39,2.91L31.67,8a5.08,5.08,0,0,0-4.22-2.26,5.21,5.21,0,0,0,0,10.42A5.06,5.06,0,0,0,31.67,13.92Z"/><path class="cls-1" d="M47.45,11A6.45,6.45,0,1,1,41,4.44,6.44,6.44,0,0,1,47.45,11Zm-1.3,0A5.15,5.15,0,1,0,41,16.15,5.18,5.18,0,0,0,46.15,11Z"/><path class="cls-1" d="M51.57,0V17.15h-1.3V0Z"/><path class="cls-1" d="M64.34,17.15H63V15.24a5,5,0,0,1-4.34,2.23c-2.47,0-4.31-1.54-4.31-3.7,0-3.89,4.73-3.85,8.26-3.85L63,10V9.12c0-1.72-.78-3.39-3.24-3.39a5.46,5.46,0,0,0-3.52,1.35l-1.06-.81A6.68,6.68,0,0,1,59.8,4.44c2.77,0,4.54,1.76,4.54,4.68ZM63,13.41V11.25h-.42c-2.86,0-6.88-.27-6.88,2.52,0,1.62,1.52,2.38,3,2.38A4.32,4.32,0,0,0,63,13.41Z"/><path class="cls-1" d="M75.81,13.75c0,1.86-1.32,3.72-4.34,3.72A4.44,4.44,0,0,1,67,14.63l1.22-.42a3.22,3.22,0,0,0,3.21,1.94c1.87,0,3-.93,3-2.4s-1-1.77-3-2.18c-1.84-.37-4.1-1.06-4.1-3.53a3.69,3.69,0,0,1,3.9-3.6,3.84,3.84,0,0,1,3.87,2.77L74,7.55a2.54,2.54,0,0,0-2.6-1.82A2.37,2.37,0,0,0,68.78,8c0,1.39,1.17,1.86,3.09,2.28C73.63,10.68,75.81,11.22,75.81,13.75Z"/><path class="cls-1" d="M97.06,12.4c0,3.14-2.45,4.75-5.61,4.75H85.62V0h5.46c3.16,0,5.1,1.86,5.1,4.44A3.72,3.72,0,0,1,93.63,8v.07A4.25,4.25,0,0,1,97.06,12.4ZM86.92,1.32v6.3h4.16c2.43,0,3.8-1.32,3.8-3.18s-1.37-3.12-3.8-3.12ZM95.76,12.4c0-2.45-1.88-3.5-4.31-3.5H86.92v7h4.53C93.88,15.86,95.76,14.83,95.76,12.4Z"/><path class="cls-1" d="M109,17.15h-1.3V15.24a5,5,0,0,1-4.33,2.23c-2.48,0-4.32-1.54-4.32-3.7,0-3.89,4.73-3.85,8.26-3.85l.39,0V9.12c0-1.72-.78-3.39-3.23-3.39a5.46,5.46,0,0,0-3.53,1.35l-1-.81a6.63,6.63,0,0,1,4.58-1.83c2.77,0,4.53,1.76,4.53,4.68Zm-1.3-3.74V11.25h-.41c-2.87,0-6.89-.27-6.89,2.52,0,1.62,1.52,2.38,3,2.38A4.3,4.3,0,0,0,107.67,13.41Z"/><path class="cls-1" d="M118.39,4.44V6C115.64,6,114,7.7,114,10.83v6.32h-1.33V4.73H114V7.4A5,5,0,0,1,118.39,4.44Z"/><path class="cls-1" d="M120.76,1.25a.86.86,0,0,1,1.72,0,.86.86,0,1,1-1.72,0Zm.2,3.48h1.32V17.15H121Z"/><path class="cls-1" d="M131.28,15.93v1.3c-2,.19-4.24,0-4.24-3.78V6.05h-2.18V4.73H127V2.13h1.3v2.6h2.91V6.05h-2.91v7.4C128.34,15.29,128.88,16.15,131.28,15.93Z"/><path class="cls-1" d="M145.64,11.62H135a5.15,5.15,0,0,0,9,2.74l1.13.71A6.46,6.46,0,0,1,133.61,11a6.28,6.28,0,0,1,6.12-6.51C143.21,4.44,145.86,7.3,145.64,11.62ZM135,10.29h9.33c-.29-2.72-2.18-4.56-4.56-4.56A4.88,4.88,0,0,0,135,10.29Z"/><path class="cls-1" d="M157.58,17.15h-1.3V15.24a5,5,0,0,1-4.34,2.23c-2.47,0-4.31-1.54-4.31-3.7,0-3.89,4.73-3.85,8.26-3.85l.39,0V9.12c0-1.72-.79-3.39-3.24-3.39a5.51,5.51,0,0,0-3.53,1.35l-1-.81A6.65,6.65,0,0,1,153,4.44c2.77,0,4.54,1.76,4.54,4.68Zm-1.3-3.74V11.25h-.42C153,11.25,149,11,149,13.77c0,1.62,1.52,2.38,3,2.38A4.33,4.33,0,0,0,156.28,13.41Z"/><path class="cls-1" d="M171.67,4.73V17.15h-1.32V15.22a4.63,4.63,0,0,1-4.09,2.25c-3.61,0-5-3-5-5.39V4.73h1.32v7.35c0,1.69.81,4.07,3.68,4.07a4,4,0,0,0,4.09-4.07V4.73Z"/></g></g></svg>