<svg xmlns="http://www.w3.org/2000/svg" viewBox="0 0 426.51 61.84"><defs><style>.cls-1{fill:#4351de;}.cls-2{fill:#904ade;}.cls-3{fill:#dd43de;}</style></defs><g id="Calque_2" data-name="Calque 2"><g id="Calque_1-2" data-name="Calque 1"><path class="cls-1" d="M26.27,21.41c0-3.44-2.42-5.68-6.63-5.68H13.9V27.08h5.74C23.6,27.08,26.27,25.3,26.27,21.41Zm11.1,0c0,10.52-8,15.43-17.73,15.43H13.9V50H3V5.4H19.64C30.74,5.4,37.37,11.78,37.37,21.41Z"/><path class="cls-1" d="M63.32,17V28c-9.18-1.4-10.2,3.83-10.2,9.25V50H42.79V17.71H53.12v4.91A12.32,12.32,0,0,1,63.32,17Z"/><path class="cls-1" d="M90.17,33.91a6.92,6.92,0,1,0-13.84,0,6.92,6.92,0,0,0,13.84,0Zm10.39,0c0,9.56-7.21,17-17.35,17s-17.34-7.4-17.34-17,7.27-17,17.34-17S100.56,24.28,100.56,33.91Z"/><path class="cls-1" d="M105.4,8.66a5.42,5.42,0,1,1,5.42,5.48A5.48,5.48,0,0,1,105.4,8.66Zm.19,9.05H116V48.89c0,7.08-3.32,13-11.8,13a29.42,29.42,0,0,1-4.46-.45v-9c4,.38,5.86-.51,5.86-4.53Z"/><path class="cls-1" d="M145.13,30.78c-.77-3.76-3.44-5.48-7-5.48a7,7,0,0,0-7,5.48ZM154.5,37H131.16c1.09,3.76,4.15,5.49,8.1,5.49a8.74,8.74,0,0,0,6.63-2.81l7.27,4.34c-2.61,4-7.58,6.82-13.9,6.82-10.9,0-18.17-6.89-18.17-17A16.69,16.69,0,0,1,137.8,17C147.36,17,155.78,23.45,154.5,37Z"/><path class="cls-1" d="M171.59,26.26v10.2c0,3.38,1.21,5.1,4.4,5.1a14.42,14.42,0,0,0,2-.19V50a13.41,13.41,0,0,1-4.47.57c-9.94,0-12.24-6.76-12.24-13.07V26.26h-4V17.71h4V11h10.33v6.76H178v8.55Z"/><path class="cls-1" d="M210.68,40c0,6.82-5,10.84-14.48,10.84-6.5,0-12.75-2.11-14.09-7.78l9.37-2.93c.39,1.27,1.66,2.61,4.59,2.61,2.17,0,3.89-.64,3.89-2.29,0-2.24-3.38-2.11-7.2-2.94-6.19-1.4-9.57-3.63-9.57-9.95C183.19,20.83,189,17,197.1,17c5.54,0,11,2.74,12.43,8.22l-8.67,2.11c-.39-1.53-1.79-2.36-3.7-2.36s-3.95.57-3.95,2.36c0,2.1,3.5,2.23,6,2.74C207.43,31.74,210.68,34.1,210.68,40Z"/><path class="cls-1" d="M264.3,17.71,251.74,50h-10L229.17,17.71h11l6.57,20.66,6.56-20.66Z"/><path class="cls-1" d="M268.44,17.71h10.33V50H268.44Zm-.25-9a5.42,5.42,0,1,1,10.84,0,5.42,5.42,0,1,1-10.84,0Z"/><path class="cls-1" d="M308.17,33.91A6.62,6.62,0,0,0,301.22,27c-4.27,0-6.89,2.93-6.89,6.95a6.53,6.53,0,0,0,6.89,6.88A6.6,6.6,0,0,0,308.17,33.91ZM318.82,5.4V50H308.49V46.92a11.23,11.23,0,0,1-9.12,3.95c-10.08,0-15.5-8.48-15.5-17s5.42-17,15.5-17a11.2,11.2,0,0,1,9.12,3.95V5.4Z"/><path class="cls-1" d="M349.81,4.32l-6.19,8.93h-8.23l4.15-8.93ZM357.33,37H334c1.09,3.76,4.15,5.49,8.1,5.49a8.74,8.74,0,0,0,6.63-2.81L356,44.05c-2.61,4-7.59,6.82-13.9,6.82-10.9,0-18.17-6.89-18.17-17a16.69,16.69,0,0,1,16.7-17C350.19,17,358.61,23.45,357.33,37ZM348,30.78c-.77-3.76-3.45-5.48-7-5.48A7,7,0,0,0,334,30.78Z"/><path class="cls-1" d="M385,33.91a6.92,6.92,0,1,0-13.83,0,6.92,6.92,0,0,0,13.83,0Zm10.4,0c0,9.56-7.21,17-17.35,17s-17.34-7.4-17.34-17S368,17,378.05,17,395.4,24.28,395.4,33.91Z"/><path class="cls-1" d="M426.51,40c0,6.82-5,10.84-14.47,10.84-6.51,0-12.76-2.11-14.1-7.78l9.38-2.93c.38,1.27,1.66,2.61,4.59,2.61,2.17,0,3.89-.64,3.89-2.29,0-2.24-3.38-2.11-7.21-2.94-6.18-1.4-9.56-3.63-9.56-9.95,0-6.76,5.8-10.64,13.9-10.64,5.55,0,11,2.74,12.43,8.22l-8.67,2.11c-.38-1.53-1.78-2.36-3.7-2.36s-3.95.57-3.95,2.36c0,2.1,3.51,2.23,6.06,2.74C423.26,31.74,426.51,34.1,426.51,40Z"/><path class="cls-2" d="M24.77,19.79c0-3.44-2.42-5.67-6.63-5.67H12.4V25.47h5.74C22.1,25.47,24.77,23.68,24.77,19.79Zm11.1,0c0,10.52-8,15.43-17.73,15.43H12.4v13.2H1.5V3.79H18.14C29.24,3.79,35.87,10.16,35.87,19.79Z"/><path class="cls-2" d="M61.82,15.33V26.42c-9.18-1.4-10.2,3.83-10.2,9.25V48.42H41.29V16.09H51.62V21A12.31,12.31,0,0,1,61.82,15.33Z"/><path class="cls-2" d="M88.67,32.29a6.92,6.92,0,1,0-13.84,0,6.92,6.92,0,0,0,13.84,0Zm10.39,0c0,9.56-7.21,17-17.35,17s-17.34-7.4-17.34-17,7.27-17,17.34-17S99.06,22.66,99.06,32.29Z"/><path class="cls-2" d="M103.9,7a5.42,5.42,0,1,1,5.42,5.48A5.42,5.42,0,0,1,103.9,7Zm.19,9.05h10.4V47.27c0,7.08-3.32,12.95-11.8,12.95a29.42,29.42,0,0,1-4.46-.45V50.72c4,.38,5.86-.51,5.86-4.53Z"/><path class="cls-2" d="M143.63,29.17c-.77-3.77-3.44-5.49-7-5.49a7,7,0,0,0-7,5.49ZM153,35.41H129.66c1.09,3.77,4.15,5.49,8.1,5.49a8.74,8.74,0,0,0,6.63-2.81l7.27,4.34c-2.61,4-7.59,6.82-13.9,6.82-10.9,0-18.17-6.89-18.17-17a16.7,16.7,0,0,1,16.71-17C145.86,15.33,154.28,21.83,153,35.41Z"/><path class="cls-2" d="M170.09,24.64v10.2c0,3.38,1.21,5.1,4.4,5.1a14.42,14.42,0,0,0,2-.19v8.67A13.11,13.11,0,0,1,172,49c-9.94,0-12.24-6.76-12.24-13.08V24.64h-4V16.09h4V9.33h10.33v6.76h6.38v8.55Z"/><path class="cls-2" d="M209.18,38.41c0,6.82-5,10.84-14.48,10.84-6.5,0-12.75-2.1-14.09-7.78L190,38.54c.39,1.27,1.66,2.61,4.59,2.61,2.17,0,3.89-.63,3.89-2.29,0-2.23-3.38-2.09-7.2-2.94-6.19-1.37-9.57-3.63-9.57-9.94,0-6.76,5.81-10.65,13.9-10.65,5.55,0,11,2.74,12.44,8.22l-8.67,2.11c-.39-1.53-1.79-2.36-3.7-2.36s-3.95.57-3.95,2.36c0,2.1,3.5,2.23,6,2.74C205.93,30.12,209.18,32.48,209.18,38.41Z"/><polygon class="cls-2" points="262.8 16.09 250.24 48.42 240.23 48.42 227.67 16.09 238.7 16.09 245.27 36.75 251.83 16.09 262.8 16.09"/><path class="cls-2" d="M266.94,16.09h10.33V48.42H266.94Zm-.25-9a5.42,5.42,0,1,1,5.42,5.48A5.41,5.41,0,0,1,266.69,7Z"/><path class="cls-2" d="M306.67,32.29a6.62,6.62,0,0,0-6.95-6.95c-4.27,0-6.89,2.93-6.89,7a6.53,6.53,0,0,0,6.89,6.89A6.61,6.61,0,0,0,306.67,32.29Zm10.65-28.5V48.42H307V45.3a11.23,11.23,0,0,1-9.12,4c-10.08,0-15.5-8.48-15.5-17s5.42-17,15.5-17a11.23,11.23,0,0,1,9.12,4V3.79Z"/><path class="cls-2" d="M348.31,2.7l-6.19,8.93h-8.23L338,2.7Zm7.52,32.71H332.49c1.09,3.77,4.15,5.49,8.1,5.49a8.74,8.74,0,0,0,6.63-2.81l7.27,4.34c-2.61,4-7.59,6.82-13.9,6.82-10.9,0-18.17-6.89-18.17-17a16.7,16.7,0,0,1,16.7-17C348.69,15.33,357.11,21.83,355.83,35.41Zm-9.37-6.24c-.77-3.77-3.45-5.49-7-5.49a7,7,0,0,0-6.95,5.49Z"/><path class="cls-2" d="M383.5,32.29a6.92,6.92,0,1,0-13.83,0,6.92,6.92,0,0,0,13.83,0Zm10.4,0c0,9.56-7.21,17-17.35,17s-17.34-7.4-17.34-17,7.27-17,17.34-17S393.9,22.66,393.9,32.29Z"/><path class="cls-2" d="M425,38.41c0,6.82-5,10.84-14.47,10.84-6.51,0-12.76-2.1-14.1-7.78l9.38-2.93c.38,1.27,1.66,2.61,4.59,2.61,2.17,0,3.89-.63,3.89-2.29,0-2.23-3.38-2.09-7.21-2.94-6.19-1.37-9.56-3.63-9.56-9.94,0-6.76,5.8-10.65,13.9-10.65,5.55,0,11,2.74,12.43,8.22l-8.67,2.11c-.38-1.53-1.78-2.36-3.7-2.36s-3.95.57-3.95,2.36c0,2.1,3.51,2.23,6.06,2.74C421.76,30.12,425,32.48,425,38.41Z"/><path class="cls-3" d="M23.27,18.17c0-3.44-2.42-5.67-6.63-5.67H10.9V23.85h5.74C20.6,23.85,23.27,22.06,23.27,18.17Zm11.1,0c0,10.53-8,15.44-17.73,15.44H10.9V46.8H0V2.17H16.64C27.74,2.17,34.37,8.54,34.37,18.17Z"/><path class="cls-3" d="M60.32,13.71v11.1c-9.18-1.41-10.2,3.82-10.2,9.24V46.8H39.79V14.48H50.12v4.91A12.29,12.29,0,0,1,60.32,13.71Z"/><path class="cls-3" d="M87.17,30.67a6.92,6.92,0,1,0-13.84,0,6.92,6.92,0,0,0,13.84,0Zm10.39,0c0,9.57-7.21,17-17.35,17s-17.34-7.39-17.34-17,7.27-17,17.34-17S97.56,21,97.56,30.67Z"/><path class="cls-3" d="M102.4,5.42a5.42,5.42,0,1,1,5.42,5.48A5.42,5.42,0,0,1,102.4,5.42Zm.19,9.06H113V45.66c0,7.08-3.32,12.94-11.8,12.94a29.51,29.51,0,0,1-4.46-.44V49.1c4,.38,5.86-.51,5.86-4.53Z"/><path class="cls-3" d="M142.13,27.55c-.77-3.76-3.44-5.49-7-5.49a7,7,0,0,0-7,5.49Zm9.37,6.25H128.16c1.09,3.76,4.15,5.48,8.1,5.48a8.7,8.7,0,0,0,6.63-2.81l7.27,4.34c-2.61,4-7.59,6.82-13.9,6.82-10.9,0-18.17-6.88-18.17-17a16.7,16.7,0,0,1,16.7-17C144.36,13.71,152.78,20.21,151.5,33.8Z"/><path class="cls-3" d="M168.59,23v10.2c0,3.38,1.21,5.1,4.4,5.1a13,13,0,0,0,2-.19V46.8a13.11,13.11,0,0,1-4.47.58c-9.94,0-12.24-6.76-12.24-13.07V23h-4V14.48h4V7.72h10.33v6.76H175V23Z"/><path class="cls-3" d="M207.68,36.79c0,6.83-5,10.84-14.48,10.84-6.5,0-12.75-2.1-14.09-7.78l9.37-2.93c.39,1.28,1.66,2.62,4.59,2.62,2.17,0,3.89-.64,3.89-2.3,0-2.23-3.38-2.1-7.2-2.93-6.19-1.41-9.57-3.64-9.57-10,0-6.76,5.81-10.65,13.9-10.65,5.55,0,11,2.74,12.44,8.23L197.86,24c-.39-1.53-1.79-2.36-3.7-2.36s-3.95.57-3.95,2.36c0,2.1,3.5,2.23,6,2.74C204.42,28.5,207.68,30.86,207.68,36.79Z"/><path class="cls-3" d="M261.3,14.48,248.74,46.8h-10L226.17,14.48h11l6.57,20.66,6.56-20.66Z"/><path class="cls-3" d="M265.44,14.48h10.33V46.8H265.44Zm-.25-9.06a5.42,5.42,0,1,1,5.42,5.48A5.41,5.41,0,0,1,265.19,5.42Z"/><path class="cls-3" d="M305.17,30.67a6.63,6.63,0,0,0-6.95-7c-4.27,0-6.89,2.93-6.89,7a6.53,6.53,0,0,0,6.89,6.89A6.61,6.61,0,0,0,305.17,30.67Zm10.65-28.5V46.8H305.49V43.68a11.2,11.2,0,0,1-9.12,4c-10.08,0-15.5-8.48-15.5-17s5.42-17,15.5-17a11.23,11.23,0,0,1,9.12,3.95V2.17Z"/><path class="cls-3" d="M346.81,1.08,340.62,10h-8.23l4.15-8.93Zm7.52,32.72H331c1.09,3.76,4.15,5.48,8.1,5.48a8.7,8.7,0,0,0,6.63-2.81L353,40.81c-2.61,4-7.59,6.82-13.9,6.82-10.9,0-18.17-6.88-18.17-17a16.7,16.7,0,0,1,16.7-17C347.19,13.71,355.61,20.21,354.33,33.8ZM345,27.55c-.77-3.76-3.45-5.49-7-5.49A7,7,0,0,0,331,27.55Z"/><path class="cls-3" d="M382,30.67a6.92,6.92,0,1,0-13.83,0,6.92,6.92,0,0,0,13.83,0Zm10.4,0c0,9.57-7.21,17-17.35,17s-17.34-7.39-17.34-17,7.27-17,17.34-17S392.4,21,392.4,30.67Z"/><path class="cls-3" d="M423.51,36.79c0,6.83-5,10.84-14.47,10.84-6.51,0-12.76-2.1-14.1-7.78l9.38-2.93c.38,1.28,1.66,2.62,4.59,2.62,2.17,0,3.89-.64,3.89-2.3,0-2.23-3.38-2.1-7.21-2.93-6.18-1.41-9.56-3.64-9.56-10,0-6.76,5.8-10.65,13.9-10.65,5.55,0,11,2.74,12.43,8.23L413.69,24c-.38-1.53-1.78-2.36-3.7-2.36S406,22.25,406,24c0,2.1,3.51,2.23,6.06,2.74C420.26,28.5,423.51,30.86,423.51,36.79Z"/></g></g></svg>