<svg xmlns="http://www.w3.org/2000/svg" viewBox="0 0 426.11 61.01"><defs><style>.cls-1{fill:#dd43de;}.cls-2{fill:#904ade;}.cls-3{fill:#4351de;}</style></defs><title>Projets audios</title><g id="Calque_2" data-name="Calque 2"><g id="Calque_1-2" data-name="Calque 1"><path class="cls-1" d="M25.69,20.59c0-3.45-2.43-5.68-6.64-5.68H13.32V26.26h5.73C23,26.26,25.69,24.48,25.69,20.59Zm11.09,0c0,10.52-8,15.43-17.73,15.43H13.32v13.2H2.41V4.58H19.05C30.15,4.58,36.78,11,36.78,20.59Z"/><path class="cls-1" d="M62.73,16.12v11.1c-9.18-1.41-10.2,3.82-10.2,9.24V49.22H42.2V16.89H52.53V21.8A12.32,12.32,0,0,1,62.73,16.12Z"/><path class="cls-1" d="M89.58,33.08a6.92,6.92,0,1,0-13.84,0,6.92,6.92,0,0,0,13.84,0Zm10.39,0c0,9.57-7.2,17-17.34,17s-17.35-7.4-17.35-17,7.27-17,17.35-17S100,23.46,100,33.08Z"/><path class="cls-1" d="M104.81,7.83a5.42,5.42,0,1,1,5.42,5.49A5.42,5.42,0,0,1,104.81,7.83Zm.2,9.06H115.4V48.07c0,7.08-3.32,12.94-11.8,12.94a29.51,29.51,0,0,1-4.46-.44V51.51c4,.39,5.87-.51,5.87-4.52Z"/><path class="cls-1" d="M144.54,30c-.77-3.76-3.44-5.48-7-5.48A7,7,0,0,0,130.58,30Zm9.37,6.25H130.58c1.08,3.76,4.14,5.48,8.09,5.48a8.78,8.78,0,0,0,6.64-2.8l7.26,4.33c-2.61,4-7.58,6.83-13.9,6.83-10.9,0-18.17-6.89-18.17-17a16.7,16.7,0,0,1,16.71-17C146.77,16.12,155.19,22.63,153.91,36.21Z"/><path class="cls-1" d="M171,25.43v10.2c0,3.38,1.21,5.11,4.4,5.11a12.81,12.81,0,0,0,2-.2v8.68a13.37,13.37,0,0,1-4.47.57c-9.94,0-12.24-6.76-12.24-13.07V25.43h-4V16.89h4V10.13H171v6.76h6.38v8.54Z"/><path class="cls-1" d="M210.09,39.21c0,6.82-5,10.84-14.48,10.84-6.5,0-12.75-2.11-14.09-7.78l9.38-2.94c.38,1.28,1.65,2.62,4.59,2.62,2.16,0,3.89-.64,3.89-2.3,0-2.23-3.38-2.1-7.21-2.93-6.19-1.4-9.57-3.64-9.57-9.95,0-6.76,5.81-10.65,13.91-10.65,5.54,0,11,2.74,12.43,8.23l-8.67,2.1c-.38-1.53-1.79-2.36-3.7-2.36s-3.95.58-3.95,2.36c0,2.11,3.5,2.23,6,2.74C206.84,30.92,210.09,33.28,210.09,39.21Z"/><path class="cls-1" d="M249.43,35h-.83c-5.16,0-8.61,1-8.61,4.21,0,2.36,1.92,3.25,4.15,3.25a7,7,0,0,0,5.29-2.3Zm10.33-5.87V49.22H249.43v-3c-1.72,2.49-5.55,3.83-8.86,3.83-4.34,0-11-1.66-11-9.51,0-10.71,13.91-10.71,16.07-10.71h3.83V29.7c0-3.06-1.53-5.22-5.29-5.22a10.09,10.09,0,0,0-6.12,2l-6.76-4.6c3.5-3.69,8.35-5.8,14.53-5.8C256.13,16.12,259.76,21.42,259.76,29.13Z"/><path class="cls-1" d="M297.83,16.89V49.22h-10.4V46.28a11,11,0,0,1-8.8,3.77c-8.1,0-11.86-6.38-11.86-12.88V16.89H277.1V34.36c0,3.7,2.36,5.55,5.17,5.55,3.06,0,5.16-2,5.16-5.55V16.89Z"/><path class="cls-1" d="M327.22,33.08a6.63,6.63,0,0,0-7-6.95,6.55,6.55,0,0,0-6.89,7A6.53,6.53,0,0,0,320.27,40,6.61,6.61,0,0,0,327.22,33.08Zm10.65-28.5V49.22H327.54V46.09a11.19,11.19,0,0,1-9.12,4c-10.08,0-15.5-8.48-15.5-17s5.42-17,15.5-17a11.19,11.19,0,0,1,9.12,4V4.58Z"/><path class="cls-1" d="M344.88,16.89h10.33V49.22H344.88Zm-.25-9.06a5.42,5.42,0,1,1,10.84,0,5.42,5.42,0,1,1-10.84,0Z"/><path class="cls-1" d="M384.61,33.08a6.92,6.92,0,1,0-13.84,0,6.92,6.92,0,0,0,13.84,0Zm10.39,0c0,9.57-7.21,17-17.35,17s-17.34-7.4-17.34-17,7.27-17,17.34-17S395,23.46,395,33.08Z"/><path class="cls-1" d="M426.11,39.21c0,6.82-5,10.84-14.47,10.84-6.5,0-12.75-2.11-14.09-7.78l9.37-2.94c.38,1.28,1.66,2.62,4.59,2.62,2.17,0,3.89-.64,3.89-2.3,0-2.23-3.38-2.1-7.2-2.93-6.19-1.4-9.57-3.64-9.57-9.95,0-6.76,5.8-10.65,13.9-10.65,5.55,0,11,2.74,12.44,8.23l-8.68,2.1c-.38-1.53-1.78-2.36-3.69-2.36s-4,.58-4,2.36c0,2.11,3.51,2.23,6.06,2.74C422.86,30.92,426.11,33.28,426.11,39.21Z"/><path class="cls-2" d="M24.48,19.38c0-3.44-2.42-5.67-6.63-5.67H12.11V25.05h5.74C21.8,25.05,24.48,23.27,24.48,19.38Zm11.1,0c0,10.52-8,15.43-17.73,15.43H12.11V48H1.21V3.37H17.85C28.94,3.37,35.58,9.75,35.58,19.38Z"/><path class="cls-2" d="M61.53,14.92V26c-9.19-1.4-10.21,3.83-10.21,9.25V48H41V15.68H51.32v4.91A12.34,12.34,0,0,1,61.53,14.92Z"/><path class="cls-2" d="M88.37,31.88a6.92,6.92,0,1,0-13.84,0,6.92,6.92,0,0,0,13.84,0Zm10.39,0c0,9.56-7.2,17-17.34,17s-17.34-7.4-17.34-17,7.27-17,17.34-17S98.76,22.25,98.76,31.88Z"/><path class="cls-2" d="M103.61,6.63a5.42,5.42,0,0,1,10.84,0,5.42,5.42,0,1,1-10.84,0Zm.19,9.05h10.39V46.86c0,7.08-3.31,13-11.79,13a29.56,29.56,0,0,1-4.47-.45v-9c4,.38,5.87-.51,5.87-4.53Z"/><path class="cls-2" d="M143.33,28.75c-.76-3.76-3.44-5.48-7-5.48a7,7,0,0,0-6.95,5.48ZM152.71,35H129.37c1.08,3.76,4.14,5.49,8.1,5.49a8.76,8.76,0,0,0,6.63-2.81L151.37,42c-2.62,4-7.59,6.82-13.9,6.82-10.91,0-18.18-6.89-18.18-17a16.69,16.69,0,0,1,16.71-17C145.57,14.92,154,21.42,152.71,35Z"/><path class="cls-2" d="M169.8,24.23v10.2c0,3.38,1.21,5.1,4.4,5.1a14.42,14.42,0,0,0,2-.19V48a13.31,13.31,0,0,1-4.46.57c-10,0-12.24-6.75-12.24-13.07V24.23h-4V15.68h4V8.92H169.8v6.76h6.37v8.55Z"/><path class="cls-2" d="M208.88,38c0,6.82-5,10.84-14.47,10.84-6.51,0-12.76-2.1-14.09-7.78l9.37-2.93c.38,1.27,1.66,2.61,4.59,2.61,2.17,0,3.89-.64,3.89-2.29,0-2.24-3.38-2.09-7.21-2.94-6.19-1.37-9.56-3.63-9.56-9.94,0-6.76,5.8-10.65,13.9-10.65,5.55,0,11,2.74,12.44,8.22l-8.68,2.11c-.38-1.53-1.78-2.36-3.7-2.36s-4,.57-4,2.36c0,2.1,3.51,2.23,6.06,2.74C205.63,29.71,208.88,32.07,208.88,38Z"/><path class="cls-2" d="M248.22,33.79h-.83c-5.16,0-8.6,1-8.6,4.21,0,2.36,1.91,3.25,4.14,3.25A7,7,0,0,0,248.22,39Zm10.33-5.87V48H248.22V45c-1.72,2.49-5.54,3.83-8.86,3.83-4.34,0-11-1.66-11-9.5,0-10.71,13.9-10.71,16.07-10.71h3.82V28.5c0-3.06-1.53-5.23-5.29-5.23a10.12,10.12,0,0,0-6.12,2l-6.76-4.59c3.51-3.7,8.35-5.8,14.54-5.8C254.92,14.92,258.55,20.21,258.55,27.92Z"/><path class="cls-2" d="M296.62,15.68V48H286.23V45.08a11,11,0,0,1-8.8,3.76c-8.1,0-11.87-6.38-11.87-12.88V15.68h10.33V33.15c0,3.7,2.36,5.55,5.17,5.55,3.06,0,5.17-2,5.17-5.55V15.68Z"/><path class="cls-2" d="M326,31.88a6.62,6.62,0,0,0-6.95-6.95c-4.27,0-6.88,2.93-6.88,7a6.52,6.52,0,0,0,6.88,6.88A6.6,6.6,0,0,0,326,31.88ZM336.66,3.37V48H326.33V44.89a11.21,11.21,0,0,1-9.12,4c-10.07,0-15.49-8.48-15.49-17s5.42-17,15.49-17a11.19,11.19,0,0,1,9.12,4V3.37Z"/><path class="cls-2" d="M343.67,15.68H354V48H343.67Zm-.25-9a5.42,5.42,0,0,1,10.84,0,5.42,5.42,0,1,1-10.84,0Z"/><path class="cls-2" d="M383.4,31.88a6.92,6.92,0,1,0-13.84,0,6.92,6.92,0,0,0,13.84,0Zm10.39,0c0,9.56-7.2,17-17.34,17s-17.35-7.4-17.35-17,7.27-17,17.35-17S393.79,22.25,393.79,31.88Z"/><path class="cls-2" d="M424.91,38c0,6.82-5,10.84-14.48,10.84-6.5,0-12.75-2.1-14.09-7.78l9.37-2.93c.39,1.27,1.66,2.61,4.6,2.61,2.16,0,3.89-.64,3.89-2.29,0-2.24-3.39-2.09-7.21-2.94-6.19-1.37-9.57-3.63-9.57-9.94,0-6.76,5.81-10.65,13.91-10.65,5.54,0,11,2.74,12.43,8.22l-8.67,2.11c-.38-1.53-1.79-2.36-3.7-2.36s-3.95.57-3.95,2.36c0,2.1,3.5,2.23,6.05,2.74C421.66,29.71,424.91,32.07,424.91,38Z"/><path class="cls-3" d="M23.27,18.17c0-3.44-2.42-5.67-6.63-5.67H10.9V23.85h5.74C20.6,23.85,23.27,22.06,23.27,18.17Zm11.1,0c0,10.53-8,15.44-17.73,15.44H10.9V46.8H0V2.17H16.64C27.74,2.17,34.37,8.54,34.37,18.17Z"/><path class="cls-3" d="M60.32,13.71v11.1c-9.18-1.41-10.2,3.82-10.2,9.24V46.8H39.79V14.48H50.12v4.91A12.29,12.29,0,0,1,60.32,13.71Z"/><path class="cls-3" d="M87.17,30.67a6.92,6.92,0,1,0-13.84,0,6.92,6.92,0,0,0,13.84,0Zm10.39,0c0,9.57-7.21,17-17.35,17s-17.34-7.39-17.34-17,7.27-17,17.34-17S97.56,21,97.56,30.67Z"/><path class="cls-3" d="M102.4,5.42a5.42,5.42,0,1,1,5.42,5.48A5.42,5.42,0,0,1,102.4,5.42Zm.19,9.06H113V45.66c0,7.08-3.32,12.94-11.8,12.94a29.51,29.51,0,0,1-4.46-.44V49.1c4,.38,5.86-.51,5.86-4.53Z"/><path class="cls-3" d="M142.13,27.55c-.77-3.76-3.44-5.49-7-5.49a7,7,0,0,0-7,5.49Zm9.37,6.25H128.16c1.09,3.76,4.15,5.48,8.1,5.48a8.7,8.7,0,0,0,6.63-2.81l7.27,4.34c-2.61,4-7.59,6.82-13.9,6.82-10.9,0-18.17-6.88-18.17-17a16.7,16.7,0,0,1,16.7-17C144.36,13.71,152.78,20.21,151.5,33.8Z"/><path class="cls-3" d="M168.59,23v10.2c0,3.38,1.21,5.1,4.4,5.1a13,13,0,0,0,2-.19V46.8a13.11,13.11,0,0,1-4.47.58c-9.94,0-12.24-6.76-12.24-13.07V23h-4V14.48h4V7.72h10.33v6.76H175V23Z"/><path class="cls-3" d="M207.68,36.79c0,6.83-5,10.84-14.48,10.84-6.5,0-12.75-2.1-14.09-7.78l9.37-2.93c.39,1.28,1.66,2.62,4.59,2.62,2.17,0,3.89-.64,3.89-2.3,0-2.23-3.38-2.1-7.2-2.93-6.19-1.41-9.57-3.64-9.57-10,0-6.76,5.81-10.65,13.9-10.65,5.55,0,11,2.74,12.44,8.23L197.86,24c-.39-1.53-1.79-2.36-3.7-2.36s-3.95.57-3.95,2.36c0,2.1,3.5,2.23,6,2.74C204.42,28.5,207.68,30.86,207.68,36.79Z"/><path class="cls-3" d="M247,32.58h-.83c-5.17,0-8.61,1-8.61,4.21,0,2.36,1.91,3.26,4.14,3.26a7,7,0,0,0,5.3-2.3Zm10.33-5.86V46.8H247v-3c-1.72,2.48-5.55,3.82-8.87,3.82-4.33,0-11-1.65-11-9.5,0-10.71,13.9-10.71,16.07-10.71H247v-.13c0-3.06-1.53-5.23-5.3-5.23a10.14,10.14,0,0,0-6.12,2l-6.76-4.59c3.51-3.7,8.36-5.8,14.54-5.8C253.71,13.71,257.35,19,257.35,26.72Z"/><path class="cls-3" d="M295.41,14.48V46.8H285V43.87a11,11,0,0,1-8.8,3.76c-8.1,0-11.86-6.37-11.86-12.88V14.48h10.33V32c0,3.7,2.36,5.55,5.16,5.55,3.07,0,5.17-2,5.17-5.55V14.48Z"/><path class="cls-3" d="M324.81,30.67a6.63,6.63,0,0,0-6.95-7c-4.28,0-6.89,2.93-6.89,7a6.52,6.52,0,0,0,6.89,6.89A6.61,6.61,0,0,0,324.81,30.67Zm10.65-28.5V46.8H325.13V43.68a11.21,11.21,0,0,1-9.12,4c-10.08,0-15.5-8.48-15.5-17s5.42-17,15.5-17a11.24,11.24,0,0,1,9.12,3.95V2.17Z"/><path class="cls-3" d="M342.47,14.48H352.8V46.8H342.47Zm-.26-9.06a5.42,5.42,0,1,1,5.42,5.48A5.42,5.42,0,0,1,342.21,5.42Z"/><path class="cls-3" d="M382.19,30.67a6.92,6.92,0,1,0-13.83,0,6.92,6.92,0,0,0,13.83,0Zm10.4,0c0,9.57-7.21,17-17.35,17s-17.34-7.39-17.34-17,7.27-17,17.34-17S392.59,21,392.59,30.67Z"/><path class="cls-3" d="M423.7,36.79c0,6.83-5,10.84-14.47,10.84-6.51,0-12.76-2.1-14.1-7.78l9.38-2.93c.38,1.28,1.66,2.62,4.59,2.62,2.17,0,3.89-.64,3.89-2.3,0-2.23-3.38-2.1-7.21-2.93-6.18-1.41-9.56-3.64-9.56-10,0-6.76,5.8-10.65,13.9-10.65,5.55,0,11,2.74,12.43,8.23L413.88,24c-.38-1.53-1.78-2.36-3.7-2.36s-3.95.57-3.95,2.36c0,2.1,3.51,2.23,6.06,2.74C420.45,28.5,423.7,30.86,423.7,36.79Z"/></g></g></svg>