<svg xmlns="http://www.w3.org/2000/svg" viewBox="0 0 37.95 40"><defs><style>.cls-1{fill:#545454;}.cls-2{fill:#eee;}</style></defs><g id="Calque_2" data-name="Calque 2"><g id="Calque_1-2" data-name="Calque 1"><path class="cls-1" d="M5.09,4C8.24,1.56,12.87,0,19,0,31.62,0,38,6.71,38,14a21,21,0,0,1-1.44,7C36,21,13,7,5.09,4Z"/><path class="cls-1" d="M8.34,13.23l.24.11a17.11,17.11,0,0,0-2.35-.8A17.19,17.19,0,0,0,2,12L1,12A20.36,20.36,0,0,1,6.37,7.66c.43.67,1.14,1.75,2,2.9.41.56.85,1.14,1.3,1.7A16,16,0,0,0,8.34,13.23Z"/><path class="cls-1" d="M2,22.33A22.71,22.71,0,0,1,0,14,11.82,11.82,0,0,1,.15,12.1,15.27,15.27,0,0,1,2,12a17,17,0,0,1,6.39,1.24A63.72,63.72,0,0,0,2,22.33Z"/><path class="cls-1" d="M10.64,5.85A20.24,20.24,0,0,0,6.5,7.59l-.13.07a.16.16,0,0,1,0-.06A25,25,0,0,1,5.23,4.18c0-.08,0-.17-.05-.25A17.1,17.1,0,0,1,10,1.4,17.22,17.22,0,0,0,10.64,5.85Z"/><path class="cls-1" d="M6.37,7.66A20.43,20.43,0,0,0,1,12c-.29,0-.58,0-.86.07a12.53,12.53,0,0,1,5-8.17A22.92,22.92,0,0,0,6.37,7.66Z"/><path class="cls-1" d="M0,13.12H0A8.44,8.44,0,0,0,0,14C0,13.69,0,13.41,0,13.12Z"/><path class="cls-1" d="M19,29a16.84,16.84,0,0,1-3.34,10.1l-.07,0C10.57,36.55,4.88,29.36,2,22.33a19.48,19.48,0,0,1,6.39-9.1A17,17,0,0,1,19,29Z"/><path class="cls-1" d="M13.25,16.28l-.14-.12a16.94,16.94,0,0,0-2.33-1.7c-.21-.13-.44-.26-.67-.38a7.16,7.16,0,0,0-.78-.4c-.25-.12-.5-.24-.75-.34l-.24-.11a16,16,0,0,1,1.32-1C10.6,13.43,11.8,14.79,13.25,16.28Z"/><path class="cls-1" d="M12.94,37.36l-.16-.12.12.1.08.06.08.06.13.1.26.2.17.11C13.39,37.71,13.16,37.54,12.94,37.36Zm.76.57.39.27.21.13ZM8.34,13.23h0l.25.1Z"/><path class="cls-1" d="M8.58,13.34l-.25-.1h0Zm4.2,23.9.16.12,0,0Zm.16.12c.22.18.45.35.68.51l-.17-.11-.26-.2-.13-.1Zm.76.57.6.4-.21-.13ZM17.88,35a16.63,16.63,0,0,1-2.24,4.1A7.58,7.58,0,0,0,19,40l.41,0,.21,0h.08a11,11,0,0,0,4.18-1.75c.26-.17.53-.36.79-.55C29.33,34.17,34.17,27.41,36.5,21a20.11,20.11,0,0,0-3.24-7.33l-.35-.24a19.5,19.5,0,0,0-6.47-3.53,19.26,19.26,0,0,0-6-.93,19.57,19.57,0,0,0-7.6,1.53C15.36,14.3,20,19.11,20,27a16.33,16.33,0,0,1-2.08,8Z"/><path class="cls-1" d="M36.5,21c-2.33,6.38-7.17,13.14-11.85,16.62-.26.19-.53.38-.79.55A11,11,0,0,1,19.68,40H19.6l-.21,0L19,40a7.62,7.62,0,0,1-3.34-.9A16.63,16.63,0,0,0,17.88,35a.11.11,0,0,0,0,0l.17-.3.25-.49a7.65,7.65,0,0,0,.33-.74l.19-.45.18-.5a16.76,16.76,0,0,0,.56-1.9c0-.17.07-.35.11-.54A15.85,15.85,0,0,0,20,27c0-6.13-2.79-10.4-5.21-13.77-.68-1-1.34-1.86-1.89-2.7A19.57,19.57,0,0,1,20.48,9,19.49,19.49,0,0,1,32.9,13.46l.36.24a20,20,0,0,1,2.08,3.73A19.15,19.15,0,0,1,36.5,21Z"/><path class="cls-1" d="M35.34,17.43A17.88,17.88,0,0,1,28,19a18,18,0,0,1-13.22-5.77c-.68-1-1.34-1.86-1.89-2.7A19.61,19.61,0,0,1,20.48,9a19.21,19.21,0,0,1,6,.93,19.5,19.5,0,0,1,6.47,3.53l.35.24A20,20,0,0,1,35.34,17.43Z"/><path class="cls-1" d="M4.13,9.13A20.43,20.43,0,0,0,1,12H.82c-.23,0-.45,0-.67.06,0-.26.09-.53.15-.79a7.44,7.44,0,0,1,.2-.78c.07-.24.15-.47.23-.71l0-.05c.09-.25.2-.5.31-.75L2,9A17.37,17.37,0,0,1,4.13,9.13Z"/><path class="cls-1" d="M9.66,12.26c-.46.31-.9.63-1.33,1A16.72,16.72,0,0,0,2.23,12H2l-.8,0H1a20.43,20.43,0,0,1,3.12-2.9c.25,0,.5,0,.74.09A20.93,20.93,0,0,1,8,10.07C8.51,10.78,9.07,11.54,9.66,12.26Z"/><path class="cls-2" d="M33.26,13.7l-.36-.24A19.49,19.49,0,0,0,20.48,9a19.57,19.57,0,0,0-7.6,1.53C15.36,14.3,20,19.11,20,27a16.27,16.27,0,0,1-2.1,8A16.56,16.56,0,0,0,19,29c0-.31,0-.63,0-.93s0-.62-.07-.93q-.09-.78-.24-1.53c0-.17-.07-.33-.11-.5s-.1-.43-.16-.64-.15-.51-.23-.77c-.18-.54-.39-1.07-.62-1.59-.05-.12-.12-.25-.17-.37a17.21,17.21,0,0,0-4-5.38l-.08-.08c-1.45-1.49-2.64-2.85-3.59-4a55.48,55.48,0,0,1-3.29-4.6,20.54,20.54,0,0,1,26.89,6Z"/><path class="cls-2" d="M18.07,34.66l.25-.49C18.23,34.37,18.14,34.53,18.07,34.66Z"/></g></g></svg>