<svg xmlns="http://www.w3.org/2000/svg" viewBox="0 0 152.82 152.82"><defs><style>.cls-1{fill:none;stroke:#da6fdd;stroke-miterlimit:10;stroke-width:2px;}.cls-2{fill:#da6fdd;}.cls-3{fill:#6d386f;}</style></defs><g id="Calque_2" data-name="Calque 2"><g id="Calque_1-2" data-name="Calque 1"><g id="Calque_2-2" data-name="Calque 2"><g id="Calque_2-2-2" data-name="Calque 2-2"><circle class="cls-1" cx="76.41" cy="76.41" r="75.41"/><path class="cls-2" d="M113.2,55.66h-4.9a1.16,1.16,0,0,1-1.17-1.15h0V49.6a1.18,1.18,0,0,1,1.17-1.17h4.9a1.16,1.16,0,0,1,1.16,1.16h0v4.9a1.16,1.16,0,0,1-1.16,1.16Zm0,14.47h-4.9A1.17,1.17,0,0,1,107.13,69v-4.9a1.18,1.18,0,0,1,1.17-1.17h4.9a1.18,1.18,0,0,1,1.16,1.17V69a1.16,1.16,0,0,1-1.16,1.16ZM34.82,42.36v77.22A1.16,1.16,0,0,0,36,120.75h84.46a1.17,1.17,0,0,0,1.17-1.17V42.36a1.17,1.17,0,0,0-1.17-1.16H36A1.16,1.16,0,0,0,34.82,42.36Zm13.3,71.16H43.21a1.16,1.16,0,0,1-1.16-1.17v-4.9a1.17,1.17,0,0,1,1.15-1.17h4.92a1.16,1.16,0,0,1,1.16,1.16h0v4.9A1.16,1.16,0,0,1,48.12,113.52Zm0-14.47H43.21a1.16,1.16,0,0,1-1.16-1.16h0V93a1.16,1.16,0,0,1,1.16-1.16h4.91A1.16,1.16,0,0,1,49.28,93h0v4.91A1.16,1.16,0,0,1,48.12,99.05Zm0-14.46H43.21a1.16,1.16,0,0,1-1.16-1.16h0v-4.9a1.16,1.16,0,0,1,1.16-1.16h4.91a1.16,1.16,0,0,1,1.16,1.16h0v4.9a1.15,1.15,0,0,1-1.15,1.17Zm0-14.46H43.21A1.16,1.16,0,0,1,42.05,69v-4.9a1.18,1.18,0,0,1,1.16-1.17h4.91a1.18,1.18,0,0,1,1.16,1.17V69a1.16,1.16,0,0,1-1.16,1.16Zm0-14.47H43.21a1.16,1.16,0,0,1-1.16-1.16V49.6a1.17,1.17,0,0,1,1.15-1.17h4.92a1.16,1.16,0,0,1,1.16,1.16h0v4.9A1.16,1.16,0,0,1,48.12,55.66Zm50.62,57.86H57.68a1.17,1.17,0,0,1-1.15-1.17V85.75a1.16,1.16,0,0,1,1.16-1.16H98.76a1.16,1.16,0,0,1,1.16,1.16h0v26.6a1.17,1.17,0,0,1-1.17,1.17Zm0-36.16H57.68a1.17,1.17,0,0,1-1.15-1.17V49.6a1.18,1.18,0,0,1,1.17-1.17H98.76a1.16,1.16,0,0,1,1.16,1.16h0V76.19a1.15,1.15,0,0,1-1.15,1.17Zm14.46,36.16h-4.9a1.17,1.17,0,0,1-1.17-1.17v-4.9a1.18,1.18,0,0,1,1.17-1.17h4.9a1.16,1.16,0,0,1,1.16,1.16h0v4.9A1.16,1.16,0,0,1,113.2,113.52Zm0-14.47h-4.9a1.16,1.16,0,0,1-1.17-1.15h0V93a1.16,1.16,0,0,1,1.16-1.16h4.91A1.16,1.16,0,0,1,114.36,93h0v4.91A1.16,1.16,0,0,1,113.2,99.05Zm0-14.46h-4.9a1.17,1.17,0,0,1-1.17-1.17v-4.9a1.16,1.16,0,0,1,1.16-1.16h4.91a1.16,1.16,0,0,1,1.16,1.16h0v4.9a1.15,1.15,0,0,1-1.15,1.17Z"/><path class="cls-3" d="M111.32,54.19h-4.9A1.16,1.16,0,0,1,105.25,53h0V48.12A1.16,1.16,0,0,1,106.41,47h4.91a1.17,1.17,0,0,1,1.21,1.11v5a1.16,1.16,0,0,1-1.16,1.16Zm0,14.46h-4.9a1.16,1.16,0,0,1-1.17-1.15h0v-4.9a1.18,1.18,0,0,1,1.17-1.17h4.9a1.17,1.17,0,0,1,1.21,1.11v5a1.16,1.16,0,0,1-1.16,1.16ZM32.93,40.89v77.23a1.18,1.18,0,0,0,1.17,1.17h84.43a1.16,1.16,0,0,0,1.16-1.17V40.89a1.16,1.16,0,0,0-1.16-1.16H34.1A1.18,1.18,0,0,0,32.93,40.89ZM46.23,112h-4.9a1.16,1.16,0,0,1-1.16-1.16h0V106a1.17,1.17,0,0,1,1.15-1.17h4.91A1.17,1.17,0,0,1,47.4,106v4.9A1.16,1.16,0,0,1,46.24,112Zm0-14.46h-4.9a1.16,1.16,0,0,1-1.16-1.16h0V91.51a1.16,1.16,0,0,1,1.16-1.16h4.9A1.16,1.16,0,0,1,47.4,91.5h0v4.91a1.16,1.16,0,0,1-1.16,1.16Zm0-14.46h-4.9A1.16,1.16,0,0,1,40.17,82h0v-4.9a1.16,1.16,0,0,1,1.16-1.16h4.9A1.16,1.16,0,0,1,47.4,77h0V82A1.17,1.17,0,0,1,46.23,83.12Zm0-14.47h-4.9a1.16,1.16,0,0,1-1.16-1.16h0v-4.9a1.17,1.17,0,0,1,1.15-1.17h4.91a1.17,1.17,0,0,1,1.17,1.17v4.9a1.16,1.16,0,0,1-1.16,1.16Zm0-14.46h-4.9A1.16,1.16,0,0,1,40.17,53V48.12A1.16,1.16,0,0,1,41.33,47h4.9a1.16,1.16,0,0,1,1.17,1.15h0V53a1.16,1.16,0,0,1-1.16,1.16ZM96.85,112H55.79a1.16,1.16,0,0,1-1.16-1.16h0V84.28a1.16,1.16,0,0,1,1.16-1.16H96.85A1.16,1.16,0,0,1,98,84.27h0v26.6A1.16,1.16,0,0,1,96.86,112Zm0-36.15H55.79a1.16,1.16,0,0,1-1.16-1.16h0V48.12A1.16,1.16,0,0,1,55.79,47H96.85A1.16,1.16,0,0,1,98,48.11h0v26.6A1.17,1.17,0,0,1,96.85,75.89ZM111.32,112h-4.9a1.16,1.16,0,0,1-1.17-1.15h0V106a1.18,1.18,0,0,1,1.17-1.17h4.9a1.16,1.16,0,0,1,1.16,1.16h0v4.9a1.16,1.16,0,0,1-1.16,1.16Zm0-14.46h-4.9a1.16,1.16,0,0,1-1.17-1.15h0V91.51a1.16,1.16,0,0,1,1.16-1.16h4.91a1.17,1.17,0,0,1,1.21,1.11v5a1.16,1.16,0,0,1-1.16,1.16Zm0-14.46h-4.9A1.17,1.17,0,0,1,105.25,82v-4.9a1.16,1.16,0,0,1,1.16-1.16h4.91A1.17,1.17,0,0,1,112.53,77v5a1.15,1.15,0,0,1-1.15,1.17Z"/><path d="M109.44,52.72h-4.91a1.16,1.16,0,0,1-1.16-1.16h0V46.65a1.16,1.16,0,0,1,1.16-1.16h4.91a1.16,1.16,0,0,1,1.16,1.16h0v4.91a1.16,1.16,0,0,1-1.16,1.16Zm0,14.46h-4.91A1.16,1.16,0,0,1,103.37,66h0v-4.9A1.17,1.17,0,0,1,104.52,60h4.92a1.16,1.16,0,0,1,1.16,1.16h0V66A1.16,1.16,0,0,1,109.44,67.18ZM31.05,39.42v77.22a1.17,1.17,0,0,0,1.17,1.17h84.45a1.16,1.16,0,0,0,1.16-1.17V39.42a1.16,1.16,0,0,0-1.16-1.16H32.22a1.17,1.17,0,0,0-1.17,1.15Zm13.3,71.15h-4.9a1.17,1.17,0,0,1-1.17-1.16v-4.9a1.18,1.18,0,0,1,1.17-1.17h4.9a1.17,1.17,0,0,1,1.18,1.16h0v4.9a1.16,1.16,0,0,1-1.18,1.16Zm0-14.46h-4.9A1.17,1.17,0,0,1,38.28,95V90a1.18,1.18,0,0,1,1.17-1.16h4.9A1.17,1.17,0,0,1,45.53,90h0V95a1.17,1.17,0,0,1-1.17,1.17h0Zm0-14.46h-4.9a1.17,1.17,0,0,1-1.17-1.17v-4.9a1.18,1.18,0,0,1,1.17-1.16h4.9a1.17,1.17,0,0,1,1.18,1.16h0v4.9a1.17,1.17,0,0,1-1.17,1.17Zm0-14.47h-4.9A1.17,1.17,0,0,1,38.28,66v-4.9A1.18,1.18,0,0,1,39.45,60h4.9a1.17,1.17,0,0,1,1.18,1.16h0V66a1.16,1.16,0,0,1-1.18,1.16Zm0-14.46h-4.9a1.17,1.17,0,0,1-1.17-1.16V46.65a1.18,1.18,0,0,1,1.17-1.16h4.9a1.17,1.17,0,0,1,1.18,1.16h0v4.91a1.16,1.16,0,0,1-1.18,1.16ZM95,110.57H53.91a1.16,1.16,0,0,1-1.16-1.16h0V82.81a1.16,1.16,0,0,1,1.16-1.16H95a1.16,1.16,0,0,1,1.17,1.15h0v26.6A1.16,1.16,0,0,1,95,110.57Zm0-36.15H53.91a1.16,1.16,0,0,1-1.16-1.17V46.65a1.16,1.16,0,0,1,1.16-1.16H95a1.16,1.16,0,0,1,1.17,1.15h0v26.6A1.17,1.17,0,0,1,95,74.42Zm14.47,36.15h-4.91a1.16,1.16,0,0,1-1.16-1.16h0v-4.9a1.17,1.17,0,0,1,1.15-1.17h4.92a1.16,1.16,0,0,1,1.16,1.16h0v4.9a1.16,1.16,0,0,1-1.16,1.16Zm0-14.46h-4.91A1.16,1.16,0,0,1,103.37,95h0V90a1.16,1.16,0,0,1,1.16-1.16h4.91A1.16,1.16,0,0,1,110.6,90h0V95a1.15,1.15,0,0,1-1.15,1.17h0Zm0-14.46h-4.91a1.16,1.16,0,0,1-1.16-1.16h0v-4.9a1.16,1.16,0,0,1,1.16-1.16h4.91a1.16,1.16,0,0,1,1.16,1.16h0v4.9a1.15,1.15,0,0,1-1.15,1.17Z"/></g></g></g></g></svg>